<svg width="242" height="241" viewBox="0 0 242 241" fill="none" xmlns="http://www.w3.org/2000/svg">
<g id="Frame" clip-path="url(#clip0_6113_32662)">
<g id="Layer_4">
<path id="Vector" d="M229.903 44.3976C232.963 37.4801 228.173 29.656 221.475 27.2012C209.867 22.9456 196.177 22.4819 183.849 21.447C151.386 18.7189 118.847 11.2467 86.3754 6.75927C74.1095 5.06199 60.3366 1.64258 48.0292 1.84957C36.5084 2.04413 18.2026 -2.65858 8.07271 4.42033C1.64788 8.91192 1.74309 16.0943 1.74309 23.3595C1.74309 54.159 0.509454 85.6871 0.339726 116.4C0.290049 125.532 0.0416663 134.619 0.443219 143.61C0.741278 150.229 -0.649666 161.167 3.73015 166.312C6.12705 169.127 10.747 170.613 13.8766 172.613C18.6497 175.664 23.4807 178.367 28.5146 180.938C35.5439 184.527 43.637 188.741 51.1672 191.233C59.2272 193.903 67.4652 194.123 75.1734 198.105C83.0223 202.158 91.0574 205.573 99.4818 208.392C104.921 210.21 112.948 215.691 118.628 215.053C138.424 212.834 155.037 232.875 173.694 238.534C181.597 240.931 184.127 238.794 184.553 230.95C184.917 224.285 184.706 217.247 184.06 210.74C183.439 204.489 184.466 194.756 182.214 189.337C188.469 190.786 195.225 191.229 201.762 192.144C208.601 193.1 218.283 195.58 225.242 194.015C230.346 192.868 230.156 186.791 230.843 181.861C231.522 176.984 232.371 173.66 232.371 168.651C233.178 163.158 234.039 160.641 234.039 153.839C234.776 147.025 232.868 127.78 232.822 127.105C232.342 119.98 232.739 113.154 233.658 102.507C234.143 96.914 233.956 85.0164 234.573 79.4527C235.107 74.6175 234.528 69.7906 233.625 64.9926C232.569 59.3875 231.361 50.0731 229.908 44.3976H229.903Z" fill="#AB9DF2"/>
<path id="Vector_2" d="M15.3006 17.746C22.6859 12.236 41.6458 17.7791 50.1032 18.6526C66.0618 20.3002 81.7141 21.6994 97.623 23.8231C126.307 27.6482 155.67 32.7731 183.617 36.4451C183.617 38.6267 182.682 40.8083 182.682 42.9899C158.783 42.9899 135.51 33.4934 111.379 29.9498C88.379 26.5718 65.8466 23.5498 42.8836 22.428C32.0831 21.8981 25.8404 18.4621 15.2965 17.7418L15.3006 17.746Z" fill="#F7AF39"/>
<path id="Vector_3" d="M241.611 96.765C241.598 95.105 242.323 84.0892 240.969 79.312C239.93 75.64 236.527 77.18 235.48 76.1948C235.48 73.0403 236.117 69.356 236.117 66.2015C235.298 66.2015 233.758 69.0662 232.942 69.0662C232.942 72.676 233.273 76.0664 233.319 79.4569C231.423 79.1795 229.051 80.6988 228.032 82.3919C228.057 77.6188 227.296 73.9138 229.171 69.4677C235.235 68.7516 239.64 60.083 234.341 55.3885C235.376 51.6007 233.936 48.587 230.135 47.6721C226.484 52.2796 221.603 65.15 225.913 70.1218C225.184 70.1632 224.174 80.3221 226.136 84.2258C226.136 84.2258 224.398 85.5671 222.87 87.2519C221.856 87.1153 222.891 103.062 223.512 105.802C223.512 105.802 229.63 106.58 229.904 106.58" fill="#F7AF39"/>
<path id="Vector_4" d="M228.032 108.286C227.333 115.183 227.097 149.828 228.024 155.673C228.794 160.529 230.363 165.273 231.373 170.021C231.365 169.744 231.497 169.115 231.539 168.647C231.986 163.406 233.592 152.61 233.12 147.423C232.557 141.213 231.261 113.523 231.593 107.296L228.032 108.286Z" fill="#F7AF39"/>
<path id="Vector_5" d="M187.008 99.9194C186.793 97.8827 185.269 96.1688 183.15 95.3616C176.005 98.7644 178.526 120.084 183.502 117.451C183.535 116.797 183.29 115.928 183.502 115.348C188.548 113.622 195.424 101.232 187.008 99.9194ZM184.553 103.778C190.175 103.964 185.34 108.46 183.853 110.091C183.783 107.872 184.317 105.926 184.553 103.778Z" fill="#F7AF39"/>
</g>
<g id="Layer_2">
<path id="Vector_6" d="M234.863 89.1272C233.662 90.1786 234.639 93.3704 236.494 91.8428C237.289 91.1887 237.223 87.6493 235.277 88.3489C235.049 88.6428 234.863 89.1272 234.863 89.1272Z" fill="black"/>
<path id="Vector_7" d="M232.243 167.364C232.243 179.994 228.037 179.514 228.037 192.144C223.913 198.54 194.749 190.79 188.063 189.337" stroke="black" stroke-miterlimit="10"/>
<path id="Vector_8" d="M182.595 91.8552C182.313 86.1879 183.651 76.8777 180.31 72.4068C176.245 66.9672 160.12 65.6466 153.774 63.9535C133.63 58.5843 113.395 53.5297 93.3841 47.672C70.5039 40.9739 35.8751 31.5436 14.3155 18.1682C-19.2949 -2.68352 47.6154 1.8536 60.85 3.29009C88.9007 6.33278 115.846 12.0497 144.253 15.5064C163.37 17.8329 182.404 20.8922 201.422 23.9059C208.149 24.9698 216.458 25.0401 222.887 27.3418C228.736 29.4365 230.14 31.0883 230.14 40.6593" stroke="black" stroke-miterlimit="10"/>
<path id="Vector_9" d="M2.91052 12.2527C2.91052 48.9016 1.38711 123.532 0.687495 131.245C0.0375596 138.394 0.368737 157.611 3.61427 164.789C12.6099 169.819 30.4313 180.909 41.4844 185.632C67.2417 196.64 94.7418 206.823 121.472 216.684C134.098 221.341 146.844 225.908 159.309 231.219C164.873 233.591 170.209 236.58 175.595 238.952C184.532 242.885 184.851 237.697 184.553 229.306C184.193 219.06 182.674 189.784 183.15 179.497C184.002 161.059 183.133 137.413 183.133 118.888" stroke="black" stroke-miterlimit="10"/>
<path id="Vector_10" d="M10.627 12.6044C10.5483 12.4016 10.4862 12.2029 10.4448 12.0125" stroke="black" stroke-miterlimit="10"/>
<path id="Vector_11" d="M10.5276 10.3772C13.0197 3.82406 42.5234 6.94955 47.7974 6.99508C62.5679 7.12341 78.1912 9.27193 92.3325 11.9296C120.305 17.1871 148.521 20.6644 176.841 24.5226C191.553 26.5263 208.158 27.437 221.773 32.4254" stroke="black" stroke-miterlimit="10"/>
<path id="Vector_12" d="M222.547 32.7192C222.742 32.7938 222.932 32.8683 223.127 32.9428" stroke="black" stroke-miterlimit="10"/>
<path id="Vector_13" d="M5.01758 15.8665C5.13349 16.0403 5.2494 16.2101 5.36531 16.3798" stroke="black" stroke-miterlimit="10"/>
<path id="Vector_14" d="M6.35059 17.7253C13.7607 27.2094 24.9089 29.1303 36.2228 33.7253C51.6722 40.0012 68.9141 46.7489 84.9265 50.516C93.2101 52.4658 103.121 53.8361 110.912 57.4914C121.294 62.3639 135.145 65.5887 146.352 67.9898C155.505 69.952 168.383 72.9823 172.618 73.9882" stroke="black" stroke-miterlimit="10"/>
<path id="Vector_15" d="M173.429 74.1785C173.823 74.2695 174.034 74.3234 174.034 74.3234" stroke="black" stroke-miterlimit="10"/>
<path id="Vector_16" d="M185.956 183.024C186.163 183.037 186.366 183.053 186.577 183.07" stroke="black" stroke-miterlimit="10"/>
<path id="Vector_17" d="M188.229 183.206C198.909 184.175 212.194 186.899 221.711 189.018" stroke="black" stroke-miterlimit="10"/>
<path id="Vector_18" d="M222.518 189.201C222.721 189.246 222.924 189.292 223.123 189.337" stroke="black" stroke-miterlimit="10"/>
<path id="Vector_19" d="M5.01758 159.179C7.78291 166.714 26.8918 170.853 33.5982 174.062C44.8334 179.435 55.6339 185.388 67.4155 189.511C93.8228 198.747 119.373 209.767 145.979 218.617C152.623 220.828 158.059 224.045 164.235 227.034C167.228 228.482 170.536 230.345 173.657 231.504C176.497 232.556 181.249 234.882 180.347 232.121" stroke="black" stroke-miterlimit="10"/>
<path id="Vector_20" d="M7.12058 108.687C7.19924 120.034 5.41916 132.71 7.1123 144.111C8.94206 156.418 10.3578 154.949 28.1214 163.584C33.8217 166.354 39.9485 168.44 45.6944 171.106" stroke="black" stroke-miterlimit="10"/>
<path id="Vector_21" d="M224.526 44.8652C223.657 51.4681 220.668 57.3672 220.32 64.504C219.943 72.2122 220.651 79.7423 221.02 87.2973C221.777 102.846 220.32 118.076 220.32 133.575C220.32 141.54 218.325 153.239 221.02 160.583C222.858 165.592 224.017 175.767 223.826 181.621" stroke="black" stroke-miterlimit="10"/>
<path id="Vector_22" d="M221.723 38.5522C222.34 44.4182 219.848 49.3321 218.217 54.3328C216.151 60.6666 216.081 65.2658 216.11 71.8645C216.168 84.3458 215.41 97.361 215.41 110.087V131.125C215.41 139.085 214.388 150.411 214.864 158.476C215.369 166.979 219.393 175.146 221.032 183.124C221.152 184.043 220.672 182.44 220.32 182.32" stroke="black" stroke-miterlimit="10"/>
<path id="Vector_23" d="M229.436 47.6719C226.393 50.3544 222.916 61.4447 225.06 66.9878" stroke="black" stroke-miterlimit="10"/>
<path id="Vector_24" d="M230.839 65.1457C233.178 64.384 234.345 59.7682 231.071 58.8906" stroke="black" stroke-miterlimit="10"/>
<path id="Vector_25" d="M231.543 52.5818C229.349 54.4198 228.492 57.3259 228.368 60.2982" stroke="black" stroke-miterlimit="10"/>
<path id="Vector_26" d="M230.839 68.7101C235.923 65.833 238.97 59.64 232.242 56.0881" stroke="black" stroke-miterlimit="10"/>
<path id="Vector_27" d="M234.346 53.2814C234.192 51.1867 233.277 49.5598 231.539 49.0754" stroke="black" stroke-miterlimit="10"/>
<path id="Vector_28" d="M230.839 60.8777C227.026 62.0078 225.445 67.4184 225.23 70.813C224.915 75.7351 224.377 77.3331 226.136 81.7625C227.689 82.6733 227.743 79.0552 227.68 78.1858L227.921 71.3926C227.776 69.687 227.908 68.2588 228.777 66.5243C229.365 65.3486 230.139 63.9162 231.539 63.5644" stroke="black" stroke-miterlimit="10"/>
<path id="Vector_29" d="M233.646 68.2422V80.0487" stroke="black" stroke-miterlimit="10"/>
<path id="Vector_30" d="M235.281 78.2935V66.1973" stroke="black" stroke-miterlimit="10"/>
<path id="Vector_31" d="M228.5 131.828C229.775 131.53 231.208 131.485 232.474 131.129" stroke="black" stroke-miterlimit="10"/>
<path id="Vector_32" d="M228.268 136.97C229.721 136.966 231.067 136.833 232.474 136.738" stroke="black" stroke-miterlimit="10"/>
<path id="Vector_33" d="M229.204 163.621C230.603 163.592 231.837 163.253 233.178 163.154" stroke="black" stroke-miterlimit="10"/>
<path id="Vector_34" d="M228.5 139.545C229.862 139.698 231.199 139.387 232.474 139.077" stroke="black" stroke-miterlimit="10"/>
<path id="Vector_35" d="M229.436 160.583C230.603 160.666 232.044 160.401 232.942 160.115" stroke="black" stroke-miterlimit="10"/>
<path id="Vector_36" d="M228.736 141.412C229.937 141.408 231.166 141.507 232.242 141.18" stroke="black" stroke-miterlimit="10"/>
<path id="Vector_37" d="M228.968 158.012C230.355 157.971 231.543 157.66 232.942 157.544" stroke="black" stroke-miterlimit="10"/>
<path id="Vector_38" d="M228.5 143.751C229.928 143.751 231.646 143.991 232.942 143.519" stroke="black" stroke-miterlimit="10"/>
<path id="Vector_39" d="M228.968 155.205C230.26 155.296 231.41 154.837 232.71 154.973" stroke="black" stroke-miterlimit="10"/>
<path id="Vector_40" d="M228.736 146.321C230.036 146.475 231.183 145.994 232.478 146.09" stroke="black" stroke-miterlimit="10"/>
<path id="Vector_41" d="M228.968 153.334C230.347 152.945 231.651 152.879 233.174 152.866" stroke="black" stroke-miterlimit="10"/>
<path id="Vector_42" d="M228.736 148.66C230.077 148.582 231.348 148.379 232.71 148.429" stroke="black" stroke-miterlimit="10"/>
<path id="Vector_43" d="M228.736 134.167C229.672 134.167 230.607 134.167 231.543 134.167" stroke="black" stroke-miterlimit="10"/>
<path id="Vector_44" d="M229.204 150.763C230.301 150.353 231.609 150.701 232.71 150.295" stroke="black" stroke-miterlimit="10"/>
<path id="Vector_45" d="M229.204 129.258C230.603 129.229 231.837 128.889 233.178 128.79" stroke="black" stroke-miterlimit="10"/>
<path id="Vector_46" d="M229.436 126.219C230.603 126.302 232.044 126.037 232.942 125.751" stroke="black" stroke-miterlimit="10"/>
<path id="Vector_47" d="M228.968 123.648C230.355 123.607 231.543 123.296 232.942 123.18" stroke="black" stroke-miterlimit="10"/>
<path id="Vector_48" d="M228.5 109.387C229.928 109.387 231.646 109.627 232.942 109.155" stroke="black" stroke-miterlimit="10"/>
<path id="Vector_49" d="M228.968 120.841C230.26 120.932 231.41 120.473 232.71 120.61" stroke="black" stroke-miterlimit="10"/>
<path id="Vector_50" d="M228.736 111.958C230.036 112.111 231.183 111.631 232.478 111.726" stroke="black" stroke-miterlimit="10"/>
<path id="Vector_51" d="M228.968 118.97C230.347 118.581 231.651 118.515 233.174 118.502" stroke="black" stroke-miterlimit="10"/>
<path id="Vector_52" d="M228.736 114.296C230.077 114.218 231.348 114.015 232.71 114.065" stroke="black" stroke-miterlimit="10"/>
<path id="Vector_53" d="M229.204 116.399C230.301 115.99 231.609 116.337 232.71 115.932" stroke="black" stroke-miterlimit="10"/>
<path id="Vector_54" d="M185.956 28.7368C183.94 33.1912 184.4 38.9164 184.089 43.8137C183.849 47.5477 183.617 51.3686 183.622 55.1523" stroke="black" stroke-miterlimit="10"/>
<path id="Vector_55" d="M214.243 60.2939C205.338 58.2571 195.3 58.2364 186.192 57.4292C173.003 56.2577 159.975 53.8525 146.824 52.6023C138.71 51.8323 130.873 49.2574 122.83 48.3881C117.436 47.8044 112.033 47.6346 106.722 46.6825C102.835 45.9829 98.5214 44.9397 94.5514 45.097" stroke="black" stroke-miterlimit="10"/>
<path id="Vector_56" d="M214.475 63.5684C209.607 63.0716 203.782 63.3531 198.574 62.8688C192.605 62.314 186.619 61.6103 180.612 61.0017C165.788 59.499 150.524 58.1867 135.928 55.1565C131.25 54.1836 126.303 53.099 121.435 53.2812" stroke="black" stroke-miterlimit="10"/>
<path id="Vector_57" d="M214.007 81.1003C208.398 80.0529 201.969 80.5125 196.248 80.173C192.456 79.9495 187.927 80.0364 184.317 78.9973" stroke="black" stroke-miterlimit="10"/>
<path id="Vector_58" d="M214.243 85.3062C208.907 85.3062 203.616 85.0951 198.355 84.6066C194.434 84.2423 188.382 84.7681 185.257 83.4392" stroke="black" stroke-miterlimit="10"/>
<path id="Vector_59" d="M214.007 104.009C208.708 103.33 203.434 102.904 198.098 102.374C194.281 101.993 195.858 103.301 192.265 102.109" stroke="black" stroke-miterlimit="10"/>
<path id="Vector_60" d="M214.007 107.516C204.332 107.611 201.869 106.108 192.265 106.112" stroke="black" stroke-miterlimit="10"/>
<path id="Vector_61" d="M214.007 127.155C204.204 126.72 194.298 125.317 184.553 125.283" stroke="black" stroke-miterlimit="10"/>
<path id="Vector_62" d="M214.243 131.36C208.605 131.344 203.182 130.421 197.527 130.425C193.445 130.429 188.088 130.723 184.321 129.489" stroke="black" stroke-miterlimit="10"/>
<path id="Vector_63" d="M190.514 29.0847C189.566 33.5846 188.25 37.2193 188.059 41.8847C187.877 46.368 188.059 50.8969 188.059 55.3843" stroke="black" stroke-miterlimit="10"/>
<path id="Vector_64" d="M180.343 35.2031C180.049 37.3475 179.502 39.2973 179.291 41.5162" stroke="black" stroke-miterlimit="10"/>
<path id="Vector_65" d="M171.931 34.5034C171.5 36.2959 170.627 37.8442 170.879 39.765" stroke="black" stroke-miterlimit="10"/>
<path id="Vector_66" d="M162.112 31.6968C161.13 33.7832 160.211 35.348 160.009 37.658" stroke="black" stroke-miterlimit="10"/>
<path id="Vector_67" d="M176.489 35.2031C175.835 36.6479 175.28 38.1879 175.085 39.7609" stroke="black" stroke-miterlimit="10"/>
<path id="Vector_68" d="M168.772 34.1516C168.118 35.1369 167.986 36.5982 168.073 38.0098" stroke="black" stroke-miterlimit="10"/>
<path id="Vector_69" d="M139.856 29.5317C139.202 30.517 139.07 31.9783 139.157 33.39" stroke="black" stroke-miterlimit="10"/>
<path id="Vector_70" d="M97.4533 24.3323C97.0228 26.1248 96.1493 27.673 96.4018 29.5939" stroke="black" stroke-miterlimit="10"/>
<path id="Vector_71" d="M102.011 25.032C101.357 26.4767 100.802 28.0167 100.608 29.5898" stroke="black" stroke-miterlimit="10"/>
<path id="Vector_72" d="M94.2948 23.9805C93.6407 24.9657 93.5082 26.427 93.5952 27.8387" stroke="black" stroke-miterlimit="10"/>
<path id="Vector_73" d="M157.902 32.3965C156.635 33.4231 155.898 35.2239 156.146 36.2547" stroke="black" stroke-miterlimit="10"/>
<path id="Vector_74" d="M164.566 33.7998C164.165 34.9713 163.813 36.1222 163.515 37.3061" stroke="black" stroke-miterlimit="10"/>
<path id="Vector_75" d="M43.5295 17.3652C43.0989 19.1577 42.2255 20.706 42.478 22.6268" stroke="black" stroke-miterlimit="10"/>
<path id="Vector_76" d="M126.498 27.8386C126.067 29.6311 125.194 31.1794 125.446 33.1002" stroke="black" stroke-miterlimit="10"/>
<path id="Vector_77" d="M48.0914 18.0647C47.4373 19.5095 46.8826 21.0494 46.688 22.6225" stroke="black" stroke-miterlimit="10"/>
<path id="Vector_78" d="M40.375 17.0132C39.7209 17.9984 39.5884 19.4598 39.6754 20.8714" stroke="black" stroke-miterlimit="10"/>
<path id="Vector_79" d="M45.4709 17.6467C44.8168 18.632 44.6844 20.0933 44.7713 21.5049" stroke="black" stroke-miterlimit="10"/>
<path id="Vector_80" d="M36.169 16.6655C35.7675 17.8371 35.4156 18.9879 35.1176 20.1719" stroke="black" stroke-miterlimit="10"/>
<path id="Vector_81" d="M178.418 35.729C178.016 36.9005 177.665 38.0514 177.366 39.2353" stroke="black" stroke-miterlimit="10"/>
<path id="Vector_82" d="M153.696 31.6968C153.277 33.0546 153.075 34.2717 152.644 35.555" stroke="black" stroke-miterlimit="10"/>
<path id="Vector_83" d="M151.001 31.6968C150.582 33.0546 150.38 34.2717 149.949 35.555" stroke="black" stroke-miterlimit="10"/>
<path id="Vector_84" d="M182.508 36.0808C182.09 37.4386 181.887 38.6557 181.457 39.939" stroke="black" stroke-miterlimit="10"/>
<path id="Vector_85" d="M145.631 30.4673C145.213 31.8251 145.01 33.0422 144.58 34.3255" stroke="black" stroke-miterlimit="10"/>
<path id="Vector_86" d="M149.138 29.5938C148.215 31.2082 147.407 33.3071 147.382 35.2031" stroke="black" stroke-miterlimit="10"/>
<path id="Vector_87" d="M142.825 28.8901C142.27 30.4632 142.104 32.2309 141.421 33.448" stroke="black" stroke-miterlimit="10"/>
<path id="Vector_88" d="M25.6417 16.4585C25.414 17.8867 24.7641 19.2321 24.5902 20.6644" stroke="black" stroke-miterlimit="10"/>
<path id="Vector_89" d="M23.3979 15.854C23.1702 17.2822 22.5203 18.6276 22.3464 20.06" stroke="black" stroke-miterlimit="10"/>
<path id="Vector_90" d="M137.563 28.8901C137.6 30.5377 137.397 31.9949 136.863 33.448" stroke="black" stroke-miterlimit="10"/>
<path id="Vector_91" d="M129.52 27.3127C128.538 29.3992 127.619 30.964 127.417 33.2739" stroke="black" stroke-miterlimit="10"/>
<path id="Vector_92" d="M124.486 28.0125C123.219 29.0391 122.482 30.8399 122.73 31.8707" stroke="black" stroke-miterlimit="10"/>
<path id="Vector_93" d="M131.974 29.4158C131.573 30.5873 131.221 31.7382 130.923 32.9221" stroke="black" stroke-miterlimit="10"/>
<path id="Vector_94" d="M68.3428 19.1204C67.7881 20.6935 67.6225 22.4611 66.9395 23.6782" stroke="black" stroke-miterlimit="10"/>
<path id="Vector_95" d="M63.0855 19.1204C63.1227 20.768 62.9199 22.2251 62.3859 23.6782" stroke="black" stroke-miterlimit="10"/>
<path id="Vector_96" d="M55.0378 17.5391C54.0567 19.6255 53.1377 21.1903 52.9348 23.5003" stroke="black" stroke-miterlimit="10"/>
<path id="Vector_97" d="M60.9907 18.3296C60.0096 20.416 59.0905 21.9808 58.8877 24.2908" stroke="black" stroke-miterlimit="10"/>
<path id="Vector_98" d="M50.8318 18.2427C49.5651 19.2693 48.8282 21.0701 49.0766 22.1009" stroke="black" stroke-miterlimit="10"/>
<path id="Vector_99" d="M91.5915 22.2292C90.6104 24.3157 89.6914 25.8805 89.4885 28.1904" stroke="black" stroke-miterlimit="10"/>
<path id="Vector_100" d="M82.0163 20.6975C81.0352 22.7839 80.1162 24.3487 79.9133 26.6587" stroke="black" stroke-miterlimit="10"/>
<path id="Vector_101" d="M87.3856 22.929C86.1188 23.9556 85.3819 25.7564 85.6303 26.7872" stroke="black" stroke-miterlimit="10"/>
<path id="Vector_102" d="M57.4927 19.646C57.0911 20.8175 56.7392 21.9684 56.4412 23.1523" stroke="black" stroke-miterlimit="10"/>
<path id="Vector_103" d="M121.103 27.3127C120.685 28.6706 120.483 29.8876 120.052 31.171" stroke="black" stroke-miterlimit="10"/>
<path id="Vector_104" d="M65.5403 20.1719C65.1221 21.5297 64.9193 22.7468 64.4888 24.0301" stroke="black" stroke-miterlimit="10"/>
<path id="Vector_105" d="M116.546 25.6238C115.623 27.2383 114.815 29.3371 114.791 31.2331" stroke="black" stroke-miterlimit="10"/>
<path id="Vector_106" d="M113.917 23.9805C112.994 25.595 112.187 27.6938 112.162 29.5898" stroke="black" stroke-miterlimit="10"/>
<path id="Vector_107" d="M110.233 24.5061C109.678 26.0792 109.512 27.8469 108.829 29.0639" stroke="black" stroke-miterlimit="10"/>
<path id="Vector_108" d="M104.975 24.5061C105.013 26.1537 104.81 27.6109 104.276 29.0639" stroke="black" stroke-miterlimit="10"/>
<path id="Vector_109" d="M134.769 28.832C134.806 30.4796 134.603 31.9368 134.069 33.3899" stroke="black" stroke-miterlimit="10"/>
<path id="Vector_110" d="M28.7961 17.1582C28.407 18.4664 27.8771 19.6834 27.7446 21.0164" stroke="black" stroke-miterlimit="10"/>
<path id="Vector_111" d="M20.8727 15.5808C21.0425 16.6861 20.9017 18.0025 20.5209 18.7353" stroke="black" stroke-miterlimit="10"/>
<path id="Vector_112" d="M32.4639 16.5537C32.5012 17.5348 32.3853 18.4538 32.1121 19.3604" stroke="black" stroke-miterlimit="10"/>
<path id="Vector_113" d="M75.5294 20.6106C75.3017 22.0388 74.6518 23.3842 74.4779 24.8165" stroke="black" stroke-miterlimit="10"/>
<path id="Vector_114" d="M78.688 21.3103C78.2988 22.6185 77.7689 23.8355 77.6365 25.1685" stroke="black" stroke-miterlimit="10"/>
<path id="Vector_115" d="M70.9716 21.3103C71.1414 22.4156 71.0006 23.732 70.6198 24.4648" stroke="black" stroke-miterlimit="10"/>
<path id="Vector_116" d="M83.5977 22.3618C83.635 23.3429 83.5191 24.2619 83.2458 25.1685" stroke="black" stroke-miterlimit="10"/>
<path id="Vector_117" d="M107.074 25.3838C107.111 26.3649 106.995 27.2839 106.722 28.1905" stroke="black" stroke-miterlimit="10"/>
<path id="Vector_118" d="M118.471 27.0271C118.508 28.0082 118.392 28.9272 118.119 29.8338" stroke="black" stroke-miterlimit="10"/>
<path id="Vector_119" d="M181.746 96.7649C177.511 99.7206 176.642 115.071 182.682 115.936" stroke="black" stroke-miterlimit="10"/>
<path id="Vector_120" d="M183.617 101.906C179.966 103.202 181.614 108.17 183.15 110.323C185.31 109.685 188.833 107.073 186.892 104.866" stroke="black" stroke-miterlimit="10"/>
<path id="Vector_121" d="M183.775 114.061C185.969 112.682 187.62 112.115 189.156 109.788C190.059 108.422 190.978 106.874 190.949 105.168C190.903 102.56 188.879 100.867 186.577 100.035C186.395 98.4952 185.294 94.8316 183.303 95.2042" stroke="black" stroke-miterlimit="10"/>
<path id="Vector_122" d="M232.4 78.8398C231.423 79.8375 230.479 80.5868 229.44 81.4893" stroke="black" stroke-miterlimit="10"/>
<path id="Vector_123" d="M224.919 85.0743C224.141 85.6621 223.657 86.7094 222.874 87.2518C223.959 88.6841 228.14 88.295 229.75 88.9697C233.845 87.2973 237.562 82.2344 240.973 79.3076C241.06 76.977 238.241 76.6375 236.767 76.1904" stroke="black" stroke-miterlimit="10"/>
<path id="Vector_124" d="M229.436 84.4491C228.289 83.9316 226.807 84.9997 227.73 86.0098C228.401 86.7425 230.438 86.6473 230.839 85.6952" stroke="black" stroke-miterlimit="10"/>
<path id="Vector_125" d="M222.891 88.9697C222.891 92.0207 223.048 94.9764 223.197 98.0025C223.292 99.9606 224.398 104.229 223.516 105.798C225.553 106.265 227.801 106.576 229.908 106.576C232.259 105.094 233.973 102.602 236.142 100.842C237.81 99.4928 239.234 97.7003 241.13 96.5992C240.986 91.764 241.13 86.817 241.13 81.9487" stroke="black" stroke-miterlimit="10"/>
<path id="Vector_126" d="M229.593 90.373C229.266 94.7611 229.904 99.4721 229.904 103.931" stroke="black" stroke-miterlimit="10"/>
<path id="Vector_127" d="M235.492 91.6191C235.881 92.8238 235.38 94.5625 235.765 95.7878C235.894 96.1977 236.477 96.1604 236.577 95.7423C236.962 94.1071 236.618 91.2466 236.312 90.104C236.208 90.5966 235.894 90.6711 235.649 90.9899C235.509 91.1762 235.724 91.5405 235.492 91.615V91.6191Z" fill="black"/>
</g>
</g>
<defs>
<clipPath id="clip0_6113_32662">
<rect width="241.586" height="240" fill="white" transform="translate(0.207275 0.5)"/>
</clipPath>
</defs>
</svg>
