<svg width="163" height="28" viewBox="0 0 163 28" fill="none" xmlns="http://www.w3.org/2000/svg">
<g clip-path="url(#clip0_535_251)">
<path d="M63.2646 22.5894L61.8304 17.5309H55.825L54.3907 22.5894H51.3076L56.8255 3.70581H60.9651L66.483 22.5894H63.2646ZM58.9361 6.76328H58.7192L56.3917 15.0425H61.2613L58.9338 6.76328H58.9361Z" fill="#F0F2DA"/>
<path d="M69.1348 8.62901H72.0826V11.0102H72.2459C72.661 10.1636 73.2114 9.49891 73.897 9.02082C74.5827 8.54272 75.4386 8.30484 76.4671 8.30484C78.1089 8.30484 79.415 8.9182 80.3898 10.1449C81.3647 11.3716 81.8497 13.1931 81.8497 15.6092C81.8497 18.0253 81.3623 19.8467 80.3898 21.0735C79.415 22.3002 78.1089 22.9135 76.4671 22.9135C75.4386 22.9135 74.5827 22.6733 73.897 22.1976C73.2114 21.7195 72.661 21.0571 72.2459 20.2082H72.0826V28H69.1348V8.62901ZM75.2497 20.5044C76.3668 20.5044 77.2297 20.1616 77.8337 19.4759C78.4378 18.7903 78.741 17.8807 78.741 16.7426V14.4711C78.741 13.3353 78.4378 12.4234 77.8337 11.7378C77.2297 11.0521 76.3691 10.7093 75.2497 10.7093C74.8159 10.7093 74.4101 10.7629 74.0323 10.8726C73.6545 10.9822 73.3187 11.1431 73.0318 11.36C72.7426 11.5769 72.5141 11.8427 72.3415 12.1576C72.1689 12.4724 72.085 12.8479 72.085 13.2794V17.932C72.085 18.3658 72.1712 18.739 72.3415 19.0538C72.5117 19.3686 72.7426 19.6345 73.0318 19.8514C73.321 20.0683 73.6545 20.2292 74.0323 20.3388C74.4101 20.4484 74.8159 20.5021 75.2497 20.5021V20.5044Z" fill="#F0F2DA"/>
<path d="M85.9614 20.1802H90.7237V11.0358H85.9614V8.62901H93.6716V20.1802H98.1353V22.587H85.9614V20.1802ZM92.2116 6.08462C91.4537 6.08462 90.9266 5.9307 90.6281 5.62518C90.3296 5.31967 90.1827 4.93952 90.1827 4.48942V3.92037C90.1827 3.47026 90.3319 3.09012 90.6281 2.7846C90.9266 2.47909 91.4443 2.32516 92.1836 2.32516C92.9229 2.32516 93.4687 2.47909 93.7672 2.7846C94.0657 3.09245 94.2126 3.47026 94.2126 3.92037V4.48942C94.2126 4.93952 94.0634 5.31967 93.7672 5.62518C93.4687 5.93303 92.9509 6.08462 92.2116 6.08462Z" fill="#F0F2DA"/>
<path d="M101.491 20.1802H106.118V4.97683H101.491V2.57004H109.066V20.1802H113.693V22.587H101.491V20.1802Z" fill="#F0F2DA"/>
<path d="M117.723 20.1802H122.35V4.97683H117.723V2.57004H125.298V20.1802H129.925V22.587H117.723V20.1802Z" fill="#F0F2DA"/>
<path d="M140.04 22.9135C139.011 22.9135 138.088 22.741 137.267 22.4005C136.446 22.0576 135.751 21.5702 135.184 20.9405C134.615 20.3085 134.179 19.5436 133.871 18.641C133.563 17.7385 133.412 16.7286 133.412 15.6115C133.412 14.4944 133.566 13.4846 133.871 12.582C134.177 11.6795 134.615 10.9145 135.184 10.2825C135.753 9.65051 136.446 9.16541 137.267 8.82259C138.088 8.47976 139.011 8.30951 140.04 8.30951C141.068 8.30951 141.992 8.48209 142.813 8.82259C143.634 9.16541 144.328 9.65284 144.895 10.2825C145.464 10.9145 145.9 11.6795 146.208 12.582C146.514 13.4846 146.668 14.4944 146.668 15.6115C146.668 16.7286 146.514 17.7408 146.208 18.641C145.9 19.5436 145.464 20.3085 144.895 20.9405C144.326 21.5725 143.634 22.06 142.813 22.4005C141.992 22.7433 141.068 22.9135 140.04 22.9135ZM140.04 20.586C141.122 20.586 141.982 20.2572 142.624 19.5995C143.263 18.9419 143.585 17.9623 143.585 16.6633V14.5527C143.585 13.2537 143.265 12.2765 142.624 11.6165C141.982 10.9589 141.122 10.63 140.04 10.63C138.958 10.63 138.097 10.9589 137.456 11.6165C136.814 12.2742 136.495 13.2537 136.495 14.5527V16.6633C136.495 17.9623 136.814 18.9395 137.456 19.5995C138.095 20.2572 138.958 20.586 140.04 20.586Z" fill="#F0F2DA"/>
<path d="M150.429 22.5894V8.62901H153.377V11.0102H153.512C153.657 10.6487 153.841 10.3035 154.067 9.96768C154.294 9.63418 154.569 9.34499 154.893 9.10244C155.217 8.8599 155.597 8.66633 156.029 8.52173C156.463 8.37714 156.966 8.30484 157.545 8.30484C158.951 8.30484 160.087 8.76428 160.954 9.68548C161.822 10.6067 162.253 11.9127 162.253 13.6082V22.5894H159.305V14.0396C159.305 11.8217 158.34 10.7116 156.411 10.7116C156.033 10.7116 155.663 10.7606 155.301 10.8609C154.94 10.9612 154.615 11.1081 154.326 11.3063C154.037 11.5046 153.809 11.7564 153.636 12.0643C153.463 12.3721 153.379 12.722 153.379 13.1184V22.587H150.432L150.429 22.5894Z" fill="#F0F2DA"/>
<path d="M0 27.986V0L18.6573 13.993L0 27.986Z" fill="#F0F2DA"/>
<path d="M37.3146 0V27.986L18.6572 13.993L37.3146 0Z" fill="#F0F2DA"/>
</g>
<defs>
<clipPath id="clip0_535_251">
<rect width="162.251" height="28" fill="white"/>
</clipPath>
</defs>
</svg>
