<svg width="83" height="16" viewBox="0 0 83 16" fill="none" xmlns="http://www.w3.org/2000/svg">
<path d="M12.6426 13.0938C12.594 12.5467 12.54 11.9141 12.4835 11.1948C12.4269 10.4754 12.3691 9.72312 12.3125 8.93798C12.256 8.15284 12.1994 7.36244 12.1429 6.56678C12.0876 5.77112 12.039 5.02806 12.0008 4.33367C11.7891 4.98203 11.5761 5.63434 11.3604 6.28928C11.1447 6.94422 10.9395 7.56629 10.7449 8.15415C10.5502 8.74202 10.3714 9.27465 10.207 9.75205C10.0426 10.2294 9.90845 10.6135 9.80587 10.9067C9.69803 11.104 9.58887 11.2921 9.47709 11.4696C9.37582 11.634 9.26009 11.7905 9.13384 11.9365C9.02862 12.0601 8.90632 12.1666 8.77086 12.2561C8.65644 12.3324 8.5223 12.3744 8.38421 12.3758C8.2277 12.381 8.07252 12.3416 7.93706 12.2613C7.81738 12.1837 7.73584 12.0588 7.71348 11.9181C7.70691 11.8878 7.70296 11.8576 7.70033 11.8273C7.6977 11.7971 7.70033 11.7668 7.70691 11.7366C7.49386 10.8331 7.28738 9.92302 7.09011 9.00242C6.89284 8.08314 6.7074 7.17832 6.5338 6.28797L6.4115 5.65802C6.37073 5.44759 6.3339 5.24112 6.30102 5.03727C6.15767 5.60936 5.99723 6.20512 5.81837 6.82192C5.63951 7.43872 5.44618 8.04763 5.23839 8.64865C5.0306 9.24967 4.80965 9.82833 4.57424 10.3846C4.35725 10.9041 4.11131 11.4104 3.83908 11.9023C3.61288 12.3139 3.34985 12.7045 3.05 13.0662C2.82774 13.349 2.54498 13.5791 2.22277 13.7382C2.01235 13.8342 1.79535 13.9118 1.57178 13.9723C1.40475 14.017 1.23379 14.0407 1.0615 14.0434C0.872123 14.0539 0.685373 14.0052 0.524926 13.9053C0.405248 13.8277 0.322394 13.7054 0.292146 13.566C0.264528 13.3937 0.301352 13.2161 0.396042 13.0701C0.509144 12.8873 0.680113 12.7466 0.881329 12.669C1.15093 12.5546 1.42185 12.3021 1.69277 11.9102C1.99788 11.4578 2.26354 10.9804 2.48843 10.4833C2.74883 9.92302 2.99871 9.29964 3.24069 8.61314C3.48268 7.92663 3.71151 7.22961 3.92719 6.52338C4.14288 5.81715 4.34146 5.12538 4.52032 4.44809C4.69918 3.77079 4.85831 3.15794 4.99377 2.61084C5.12923 2.06374 5.2397 1.60738 5.32387 1.24178C5.40804 0.876166 5.46065 0.648647 5.48169 0.559217C5.5172 0.384303 5.6211 0.229117 5.76971 0.130481C5.90648 0.0476275 6.06693 0.00159757 6.23001 0.00291271C6.41939 -0.0115538 6.60614 0.0555183 6.74291 0.188348C6.88626 0.382988 6.97569 0.611823 7.00462 0.851178C7.13351 1.2523 7.24924 1.62843 7.35314 1.9822C7.45703 2.33597 7.55698 2.69764 7.6543 3.06982C7.75162 3.44201 7.84763 3.84312 7.93969 4.27186C8.03306 4.70059 8.13301 5.1964 8.24217 5.75534C8.31976 6.15646 8.39736 6.59834 8.47627 7.081C8.55386 7.56497 8.65118 8.10549 8.76691 8.70257C9.26009 7.31641 9.69803 6.09333 10.0807 5.03333C10.4634 3.97464 10.8027 3.08692 11.0987 2.37148C11.3183 1.81123 11.5813 1.26939 11.8851 0.749913C12.1126 0.384303 12.3165 0.201499 12.494 0.201499H12.5611C12.5795 0.201499 12.5992 0.200184 12.6176 0.196238C12.6361 0.193608 12.6545 0.190978 12.6742 0.190978C12.8268 0.190978 12.9662 0.286983 13.0924 0.477678C13.2331 0.705198 13.3265 0.957705 13.3699 1.22205C13.4054 1.53374 13.4422 1.9217 13.4817 2.38595C13.5211 2.85019 13.5606 3.36047 13.6027 3.91677C13.6435 4.47308 13.6869 5.05963 13.7303 5.67643C13.7737 6.29323 13.8157 6.90609 13.8578 7.51368C13.8999 8.12127 13.942 8.71177 13.9867 9.28386C14.0314 9.85595 14.0761 10.3741 14.1222 10.8397C14.1261 10.9252 14.1353 11.0093 14.1524 11.0922C14.1695 11.1777 14.1866 11.2658 14.2037 11.3552C14.2353 11.5209 14.2708 11.6879 14.3102 11.8563C14.3497 12.0246 14.3852 12.1916 14.4168 12.3573C14.4536 12.548 14.4812 12.74 14.5009 12.9347C14.522 13.1109 14.5022 13.2911 14.4457 13.4594C14.3839 13.6225 14.2668 13.7567 14.1143 13.8408C13.8868 13.9526 13.6329 14.0039 13.3804 13.9881C13.2108 13.9881 13.0477 13.9184 12.932 13.7922C12.8044 13.662 12.7084 13.4279 12.6439 13.0912L12.6426 13.0938Z" fill="#53CBC8"/>
<path d="M64.421 9.74378C64.3737 9.94763 64.3119 10.1488 64.2369 10.3448C64.1488 10.5776 64.0489 10.8051 63.9358 11.0274C63.824 11.2496 63.6938 11.464 63.5491 11.6665C63.4255 11.8427 63.2808 12.0032 63.1164 12.1439C62.9981 12.2557 62.8455 12.3215 62.6837 12.3307C62.5233 12.3346 62.3642 12.2952 62.2234 12.2162C62.0959 12.1413 61.9841 12.044 61.8907 11.9295C61.7973 11.8151 61.7211 11.6889 61.6632 11.5521C61.608 11.4232 61.558 11.2904 61.5159 11.1562C61.4199 10.8564 61.3857 10.5394 61.416 10.2264C61.4423 9.93316 61.5277 9.64909 61.6698 9.39132C61.8039 9.14802 61.9946 8.94286 62.2261 8.7903C62.4628 8.63643 62.7403 8.55621 63.0217 8.56147C63.148 8.56541 63.2729 8.58251 63.3952 8.61407C63.5452 8.6509 63.6911 8.7035 63.8305 8.77189C63.9686 8.83896 64.0975 8.92445 64.2146 9.0244C64.3198 9.1112 64.3987 9.2243 64.4421 9.35318C64.4671 9.48338 64.4592 9.61753 64.4224 9.74378H64.421ZM54.4733 10.7735C54.4733 10.6525 54.4825 10.5039 54.4996 10.3251C54.518 10.137 54.5509 9.95026 54.5969 9.76745C54.6456 9.56886 54.7074 9.37291 54.7811 9.1809C54.8534 8.9902 54.9547 8.81135 55.0822 8.6509C55.2085 8.49571 55.3637 8.36683 55.5412 8.27345C55.7372 8.17482 55.9542 8.12484 56.1738 8.1301H56.2593C56.2895 8.1301 56.3185 8.13405 56.3487 8.13931C56.4355 8.15509 56.517 8.1906 56.5868 8.24452C56.6643 8.30107 56.7222 8.38129 56.7498 8.47335C56.784 8.60881 56.7722 8.75216 56.7143 8.87842C56.617 9.08095 56.4671 9.25323 56.2803 9.37949C56.229 9.41762 56.1422 9.49127 56.0199 9.59911C55.8976 9.70695 55.753 9.82795 55.5846 9.96209C55.4163 10.0962 55.2361 10.2356 55.0441 10.3816C54.8521 10.5276 54.6614 10.6578 54.4746 10.7722L54.4733 10.7735ZM49.7454 10.4158C49.698 10.7604 49.5771 11.0905 49.3903 11.3838C49.2101 11.6665 48.9655 11.9032 48.6775 12.0755C48.3776 12.2531 48.0344 12.3438 47.6872 12.3386C47.5215 12.3438 47.3571 12.3136 47.2019 12.2531C47.0783 12.2018 46.9665 12.1268 46.8705 12.0334C46.785 11.948 46.714 11.8506 46.6601 11.7428C46.6101 11.6428 46.568 11.5389 46.5351 11.4324C46.4207 11.08 46.3984 10.7038 46.4694 10.3395C46.5364 9.99234 46.6745 9.66224 46.8771 9.3716C47.0757 9.08621 47.3361 8.84948 47.6385 8.67983C47.945 8.50492 48.2908 8.41549 48.6433 8.41812C48.7853 8.41417 48.9261 8.44574 49.0536 8.50886C49.1628 8.56541 49.2614 8.64169 49.343 8.73244C49.4219 8.82055 49.4863 8.9205 49.535 9.02834C49.581 9.12698 49.6218 9.22956 49.6546 9.33346C49.7664 9.68328 49.798 10.0528 49.7454 10.4158ZM31.7253 10.6394C31.703 10.9379 31.6188 11.2286 31.4781 11.4929C31.3466 11.7375 31.1585 11.9466 30.9297 12.1031C30.6995 12.2596 30.4273 12.3412 30.1485 12.3372C29.9749 12.3412 29.8039 12.2991 29.6527 12.2136C29.5146 12.1334 29.3936 12.0282 29.2936 11.9032C29.195 11.7809 29.1135 11.6455 29.049 11.5021C28.9912 11.3732 28.9399 11.2404 28.8965 11.1063C28.7965 10.7998 28.761 10.4776 28.7899 10.1567C28.8149 9.86609 28.9004 9.58333 29.0398 9.32688C29.1713 9.08752 29.3594 8.88368 29.5895 8.73507C29.8263 8.58383 30.1011 8.50623 30.3826 8.51149C30.5562 8.50623 30.7285 8.54437 30.8836 8.62065C31.0178 8.69167 31.1362 8.78636 31.2348 8.90209C31.3308 9.01519 31.4084 9.14276 31.4676 9.27954C31.5241 9.40842 31.5728 9.54125 31.6149 9.67539C31.7148 9.98577 31.753 10.3132 31.7253 10.6394ZM82.9672 10.6197C82.9211 10.4632 82.8291 10.3238 82.7028 10.2185C82.6055 10.1278 82.4779 10.0739 82.3451 10.066C82.2951 10.066 82.2465 10.0752 82.2017 10.0949C82.157 10.1133 82.1202 10.1475 82.0978 10.1909C81.9966 10.3566 81.8559 10.5618 81.6757 10.8064C81.4903 11.0563 81.2864 11.293 81.0668 11.5126C80.8472 11.7336 80.6025 11.9282 80.3369 12.09C80.1001 12.2412 79.8253 12.3241 79.5438 12.328C79.4229 12.3307 79.3019 12.3122 79.1874 12.2715C79.0783 12.2202 79.0007 12.1216 78.9757 12.0045C78.927 11.8454 78.9205 11.6757 78.956 11.5126C78.9902 11.3377 79.0415 11.1668 79.1112 11.0024C79.1769 10.8419 79.2532 10.6867 79.3374 10.5355C79.4189 10.3895 79.482 10.2685 79.5294 10.1725C79.6793 9.87398 79.7871 9.55571 79.849 9.22824C79.9147 8.86527 79.8884 8.49045 79.7714 8.14062C79.6477 7.71057 79.361 7.34628 78.9718 7.12402C78.7916 7.02012 78.5956 6.94516 78.3918 6.90045C78.1879 6.85573 77.9788 6.83337 77.7697 6.83337C77.5159 6.82811 77.2634 6.86362 77.0201 6.93858C76.8189 7.00303 76.6282 7.09509 76.4533 7.21476C76.2928 7.32524 76.1455 7.45544 76.0166 7.60142C75.8943 7.73951 75.7799 7.88417 75.676 8.03541C75.6037 7.8342 75.4985 7.64745 75.3643 7.48174C75.1302 7.19504 74.8107 6.99119 74.4529 6.90045C74.2807 6.85573 74.1044 6.83337 73.9269 6.83337C73.6152 6.82548 73.3035 6.87809 73.0115 6.98593C72.7735 7.07799 72.5512 7.2095 72.3553 7.37258C72.1764 7.52514 72.0133 7.69611 71.8713 7.88286C71.7319 8.06698 71.6017 8.23926 71.4794 8.39839C71.4952 8.21559 71.4768 8.03015 71.4242 7.85392C71.3676 7.65008 71.2466 7.47122 71.0783 7.34365C70.9415 7.23449 70.7732 7.17268 70.5983 7.16742C70.4128 7.16742 70.2353 7.23975 70.1025 7.36732C69.9433 7.53171 69.8499 7.74871 69.8407 7.97755C69.8144 8.1998 69.7802 8.46941 69.7355 8.78373C69.6908 9.09805 69.6435 9.43341 69.5935 9.78981C69.579 9.89108 69.5646 9.99366 69.5501 10.0962C69.2779 10.5026 69.0135 10.8643 68.7571 11.1825C68.6466 11.3167 68.5295 11.4482 68.4086 11.5784C68.2941 11.702 68.1731 11.8178 68.0456 11.9269C67.9377 12.019 67.8207 12.1005 67.6971 12.1702C67.6024 12.2254 67.4958 12.257 67.3867 12.261C67.2368 12.2623 67.096 12.1939 67.004 12.0742C66.8935 11.9335 66.8107 11.773 66.7607 11.6021C66.7094 11.4298 66.6765 11.2522 66.662 11.0721C66.6423 10.8656 66.6305 10.6447 66.6265 10.4092C66.6226 10.1738 66.6265 9.93316 66.6344 9.68854C66.6436 9.44393 66.6542 9.20852 66.666 8.98231C66.6778 8.75611 66.6883 8.55095 66.6976 8.36683C66.7068 8.18271 66.7081 8.03015 66.7015 7.90916C66.6976 7.87365 66.6897 7.83814 66.6778 7.80395C66.6081 7.62114 66.4792 7.46596 66.3109 7.36469C66.1189 7.23186 65.8901 7.16216 65.6573 7.16479C65.5692 7.16742 65.4837 7.18452 65.4021 7.2174C65.3114 7.25027 65.2233 7.29104 65.1391 7.33707C65.0405 7.38836 64.9458 7.44228 64.8564 7.49884C64.6841 7.3739 64.5026 7.26211 64.3132 7.16479C64.1172 7.07273 63.916 6.99645 63.7082 6.93596C63.4597 6.86362 63.2006 6.82811 62.9415 6.83074C62.4654 6.81759 61.9933 6.9136 61.5606 7.11218C61.1976 7.2871 60.8754 7.53697 60.6177 7.84735C60.3678 8.15246 60.1745 8.49966 60.0469 8.87316C59.9167 9.24797 59.8299 9.63725 59.7904 10.0331C59.7615 10.3159 59.7523 10.6013 59.7628 10.8866C59.6616 10.959 59.5458 11.0392 59.4169 11.126C59.2091 11.2667 58.975 11.414 58.712 11.5692C58.449 11.7244 58.1754 11.869 57.8887 12.0032C57.602 12.1373 57.3048 12.2465 56.9997 12.332C56.7077 12.4161 56.4053 12.4595 56.1015 12.4609C55.8568 12.4674 55.6135 12.4135 55.3939 12.303C55.2072 12.2097 55.0546 12.0571 54.9626 11.869C55.6109 11.6113 56.2343 11.293 56.8248 10.9195C57.2312 10.6657 57.5981 10.354 57.9137 9.99366C58.1386 9.74115 58.2925 9.43341 58.3596 9.10199C58.4095 8.82187 58.3911 8.53385 58.307 8.26162C58.186 7.83946 57.9335 7.46859 57.5849 7.20293C57.2049 6.93596 56.7472 6.80181 56.283 6.82154C55.824 6.81496 55.3676 6.88861 54.9349 7.04117C54.5601 7.17531 54.2103 7.37258 53.9012 7.62246C53.6119 7.85918 53.3647 8.14062 53.1661 8.45757C52.9754 8.75874 52.8255 9.08489 52.7202 9.42552C52.6216 9.74509 52.569 10.0778 52.5624 10.4132C52.5585 10.6078 52.5729 10.8038 52.6058 10.9958C52.5914 10.9997 52.5782 11.005 52.5637 11.0089C52.2915 11.0865 52.0101 11.1247 51.7273 11.1234C51.6445 11.1234 51.5629 11.1155 51.4814 11.0997C51.3985 11.08 51.3249 11.0352 51.2696 10.9708C51.342 10.7564 51.3893 10.5329 51.4104 10.308C51.4367 10.0634 51.4485 9.81874 51.4472 9.57281C51.4472 9.35713 51.4353 9.14276 51.413 8.92839C51.4025 8.79951 51.3814 8.67194 51.3512 8.547C51.2696 8.27871 51.1381 8.02752 50.9619 7.80789C50.6397 7.40546 50.2083 7.10166 49.7204 6.93464C49.5152 6.86231 49.3009 6.82417 49.0839 6.82022C48.8182 6.81891 48.5539 6.85573 48.2987 6.92938C48.062 7.0004 47.8319 7.09509 47.6162 7.21608C47.4084 7.33181 47.2111 7.46596 47.027 7.6172C46.8508 7.76186 46.6824 7.91573 46.5233 8.08013C46.7087 7.17005 46.8665 6.24945 46.9941 5.31833C47.1217 4.38721 47.2795 3.46924 47.4676 2.56574C47.5057 2.43028 47.532 2.29088 47.5478 2.15016C47.5649 2.01075 47.5544 1.87003 47.5136 1.73457C47.4584 1.56492 47.3505 1.41763 47.2059 1.31504C47.0073 1.18748 46.7719 1.12829 46.5364 1.14276C46.4273 1.14276 46.3181 1.15986 46.2142 1.19537C46.1182 1.22825 46.0288 1.27691 45.9486 1.33872C45.8749 1.39658 45.8118 1.46497 45.7605 1.54388C45.7132 1.61621 45.6816 1.69775 45.6685 1.78192L44.8215 7.9736C44.7965 8.13931 44.7794 8.27477 44.7676 8.37866C44.7557 8.48256 44.7465 8.57593 44.74 8.65484C44.7334 8.73507 44.7268 8.81135 44.7216 8.88368C44.7163 8.95601 44.7097 9.04281 44.7018 9.14145C44.6953 9.24008 44.6847 9.35976 44.6703 9.49916C44.6571 9.63857 44.6387 9.81348 44.615 10.0239C44.5979 10.2041 44.5887 10.3869 44.5887 10.5736C44.4033 10.7551 44.1994 10.9353 43.9746 11.1168C43.705 11.3338 43.4222 11.5363 43.1289 11.7231C42.8409 11.9072 42.5384 12.0676 42.2241 12.2005C42.1741 12.2491 42.1136 12.2846 42.0452 12.3004C41.9966 12.3096 41.9466 12.3149 41.8966 12.3149C41.8348 12.3175 41.773 12.2978 41.7257 12.2583C41.6836 12.2228 41.6533 12.1768 41.6362 12.1242C41.5942 12.0098 41.5981 11.8822 41.6494 11.7717C41.677 11.6573 41.7191 11.5126 41.7756 11.3377C41.8322 11.1628 41.894 10.9708 41.9624 10.7604C42.0295 10.55 42.0952 10.3264 42.157 10.0883C42.2188 9.84768 42.2675 9.60437 42.3004 9.35844C42.3346 9.11251 42.3477 8.86264 42.3398 8.61407C42.3333 8.37077 42.2925 8.1301 42.2202 7.89864C42.1334 7.55802 41.9203 7.26211 41.6231 7.07273C41.3443 6.90965 41.026 6.82548 40.7025 6.82943C40.3961 6.82943 40.0909 6.8794 39.7977 6.97278C39.5004 7.06615 39.2124 7.18846 38.9402 7.3397C38.6864 7.47911 38.4496 7.64876 38.2353 7.84603C38.0591 7.9999 37.9131 8.18665 37.8052 8.39445C37.8223 8.29318 37.825 8.1906 37.8144 8.08933C37.8052 7.99859 37.7868 7.90916 37.7592 7.82236C37.7053 7.6264 37.5869 7.45281 37.4238 7.3305C37.291 7.22792 37.1292 7.16874 36.9609 7.16347C36.7755 7.16347 36.5966 7.23581 36.4612 7.36338C36.2968 7.52777 36.1968 7.74345 36.1758 7.9736C36.1613 8.07224 36.1442 8.18139 36.1245 8.29844C36.0929 8.30765 36.0653 8.32737 36.0469 8.35499C35.9943 8.451 35.9272 8.56673 35.8457 8.7035C35.7641 8.84028 35.6708 8.98494 35.5669 9.1375C35.4616 9.29006 35.3485 9.44261 35.2236 9.59517C35.1052 9.74115 34.9764 9.87924 34.837 10.0055C34.7133 10.1199 34.5766 10.2185 34.4293 10.3014C34.3056 10.3737 34.1649 10.4132 34.0216 10.4158C33.9256 10.4158 33.8296 10.4 33.7388 10.3685C33.6389 10.333 33.5468 10.2777 33.4692 10.2067C33.4876 9.95026 33.4837 9.6938 33.4574 9.43867C33.4363 9.21772 33.3929 8.9981 33.3298 8.78504C33.2272 8.43916 33.0484 8.1209 32.8051 7.85524C32.5815 7.61194 32.3185 7.40809 32.0291 7.24896C31.7569 7.10035 31.4636 6.99119 31.1598 6.92412C30.8955 6.86362 30.6246 6.83206 30.3523 6.82811C29.8578 6.81496 29.3673 6.90834 28.9122 7.10035C28.5335 7.26606 28.1929 7.50936 27.9154 7.81578C27.6537 8.10906 27.4472 8.44968 27.3091 8.81792C27.171 9.1809 27.075 9.55834 27.0224 9.94368C26.9724 10.3093 26.9619 10.6788 26.9908 11.0458C27.0119 11.3561 27.0658 11.6639 27.1539 11.9611C27.2578 12.3122 27.434 12.6371 27.6721 12.9159C27.8838 13.1631 28.1337 13.3775 28.4099 13.5511C28.6519 13.7037 28.9149 13.8207 29.1911 13.8996C29.4028 13.9628 29.6224 13.9983 29.8434 14.0048C30.2747 14.0101 30.7048 13.9509 31.1191 13.8286C31.4794 13.7194 31.82 13.5537 32.1291 13.3367C32.4184 13.1316 32.6696 12.8764 32.8708 12.5832C33.076 12.2833 33.2364 11.9558 33.3482 11.61C33.5205 11.7152 33.7059 11.798 33.8979 11.8585C34.0623 11.9085 34.232 11.9335 34.403 11.9348C34.6384 11.9361 34.8698 11.8664 35.0658 11.7349C35.2683 11.5981 35.4511 11.4351 35.6103 11.2483C35.6142 11.2444 35.6168 11.2404 35.6195 11.2365C35.5826 11.4732 35.5498 11.7007 35.5235 11.9164C35.4827 12.2347 35.4564 12.5148 35.4432 12.7568C35.4248 12.9317 35.4353 13.1092 35.4735 13.2815C35.5366 13.484 35.6589 13.6642 35.8259 13.797C35.9916 13.9351 36.2008 14.0101 36.4164 14.0075C36.5992 14.0219 36.7768 13.9457 36.8912 13.8023C37.0004 13.6471 37.0766 13.4722 37.1161 13.2868C37.1687 13.0658 37.2082 12.8436 37.2358 12.6187C37.2634 12.3912 37.3094 12.1663 37.3739 11.9466C37.4804 11.635 37.604 11.2825 37.7474 10.888C37.8881 10.4987 38.0643 10.1239 38.2747 9.76745C38.4694 9.42946 38.7219 9.12698 39.0204 8.87579C39.3137 8.63249 39.6846 8.5036 40.066 8.51281C40.1672 8.51018 40.2645 8.54569 40.3408 8.61276C40.4145 8.6772 40.4684 8.76268 40.4973 8.85606C40.5315 8.99415 40.5341 9.1375 40.5052 9.27559C40.4763 9.44787 40.4342 9.64251 40.379 9.86214C40.3237 10.0818 40.2606 10.3146 40.1909 10.5592C40.1212 10.8038 40.0607 11.051 40.0068 11.2983C39.9555 11.5376 39.92 11.7796 39.9002 12.0229C39.8805 12.2399 39.8963 12.4595 39.9463 12.6713C39.9555 12.7226 39.966 12.7686 39.9752 12.8094C39.9844 12.8501 39.9963 12.8935 40.0107 12.9383C40.0949 13.2407 40.2606 13.513 40.4907 13.7247C40.7222 13.918 41.0168 14.018 41.318 14.0061C41.4403 14.0061 41.5626 13.993 41.6823 13.968C41.8243 13.9391 41.9637 13.9009 42.0992 13.8536C42.4858 13.7352 42.8606 13.584 43.221 13.3999C43.5156 13.246 43.7983 13.0711 44.0679 12.8751C44.3244 12.6871 44.5703 12.4845 44.8031 12.2688L44.8557 12.2202C44.9359 12.4398 45.0372 12.6502 45.1569 12.8501C45.3081 13.1026 45.4988 13.3275 45.7237 13.5182C45.9578 13.7142 46.2261 13.8681 46.5141 13.972C46.8468 14.0877 47.1966 14.1442 47.5491 14.139C48.1883 14.1561 48.8195 13.9996 49.3758 13.6853C49.9269 13.3394 50.3688 12.8449 50.6502 12.2583C50.8107 12.3767 50.9908 12.4674 51.1815 12.5253C51.3722 12.5832 51.5708 12.6121 51.7707 12.6108C52.0758 12.6108 52.3809 12.5779 52.6782 12.5108C52.8491 12.4714 53.0175 12.4227 53.1819 12.3649C53.3831 12.6726 53.6251 12.9501 53.9012 13.1921C54.1814 13.438 54.4983 13.6366 54.8402 13.7839C55.1835 13.9299 55.5517 14.0048 55.9239 14.0035C56.3632 14.0035 56.7998 13.9443 57.2233 13.8273C57.6297 13.7155 58.0255 13.5669 58.4056 13.3841C58.7594 13.2144 59.0987 13.0185 59.4235 12.7975C59.6537 12.641 59.8601 12.4898 60.0429 12.3451C60.1376 12.5779 60.2678 12.7936 60.4309 12.9843C60.6269 13.2144 60.857 13.4143 61.1122 13.5761C61.3384 13.7194 61.583 13.8312 61.8394 13.9049C62.0367 13.9654 62.2419 13.9983 62.447 14.0048C62.7574 14.0088 63.0638 13.9312 63.3361 13.7813C63.607 13.63 63.8529 13.4367 64.0633 13.2079C64.2816 12.9724 64.4723 12.7134 64.6315 12.4346C64.7853 12.1676 64.9234 11.8927 65.0457 11.61C65.0378 11.7323 65.0444 11.8559 65.0655 11.9769C65.0878 12.111 65.1194 12.2439 65.1602 12.3727C65.2259 12.5805 65.314 12.7804 65.4232 12.9685C65.5323 13.1579 65.6652 13.3328 65.819 13.488C65.969 13.6392 66.1426 13.7642 66.3319 13.8602C66.524 13.9562 66.7344 14.0048 66.9487 14.0035C67.2039 14.0022 67.4564 13.9417 67.6852 13.8273C67.939 13.7037 68.1771 13.5511 68.3967 13.3736C68.6308 13.1868 68.8504 12.9803 69.053 12.7581C69.1266 12.6765 69.199 12.595 69.2687 12.5148C69.2647 12.5911 69.2621 12.6647 69.2594 12.7344C69.2463 12.9133 69.2608 13.0934 69.3028 13.2684C69.3686 13.4761 69.4962 13.659 69.6671 13.7931C69.8394 13.9364 70.0564 14.014 70.28 14.0127C70.4602 14.0272 70.6338 13.9457 70.7377 13.7984C70.8402 13.6366 70.9113 13.4564 70.9481 13.2684C70.9967 13.0422 71.0283 12.812 71.0428 12.5819C71.0586 12.3504 71.0914 12.1202 71.1427 11.8953C71.2059 11.6915 71.2756 11.4666 71.3505 11.2181C71.4255 10.9695 71.511 10.7196 71.607 10.4684C71.703 10.2185 71.8148 9.97393 71.941 9.73852C72.0607 9.51231 72.208 9.30321 72.379 9.11383C72.5394 8.9376 72.7275 8.78899 72.9379 8.67457C73.1536 8.56147 73.3956 8.5036 73.6389 8.50755C73.7414 8.50492 73.8401 8.54174 73.9177 8.6075C73.9953 8.67457 74.0531 8.76269 74.0834 8.86001C74.1123 8.95075 74.1228 9.04676 74.1136 9.14145C74.1031 9.24008 74.0821 9.3374 74.0518 9.43209C73.9427 9.79507 73.8177 10.1488 73.6796 10.496C73.5402 10.8432 73.4179 11.1852 73.314 11.5218C73.2128 11.8427 73.1417 12.1715 73.1023 12.5043C73.0642 12.8186 73.0944 13.1368 73.1904 13.4393C73.2246 13.5261 73.2772 13.6037 73.343 13.6682C73.414 13.7392 73.4942 13.7997 73.581 13.8496C73.6691 13.9009 73.7638 13.9404 73.8611 13.9693C73.9453 13.9956 74.0334 14.0101 74.1228 14.0127C74.303 14.0272 74.4766 13.9457 74.5805 13.7984C74.6831 13.6366 74.7541 13.4564 74.7909 13.2684C74.8383 13.0422 74.8712 12.812 74.8856 12.5819C74.9014 12.3504 74.9343 12.1202 74.9856 11.8953C75.0487 11.6915 75.1184 11.4666 75.1934 11.2181C75.2683 10.9695 75.3538 10.7196 75.4498 10.4684C75.5458 10.2185 75.6576 9.97393 75.7839 9.73852C75.9035 9.51231 76.0508 9.30321 76.2218 9.11383C76.3822 8.9376 76.5703 8.78899 76.7807 8.67457C76.9964 8.56147 77.2384 8.5036 77.4817 8.50755C77.5843 8.50492 77.6829 8.54174 77.7605 8.6075C77.8381 8.67457 77.896 8.76269 77.9262 8.86001C77.9552 8.95075 77.9657 9.04676 77.9565 9.14145C77.9459 9.24008 77.9249 9.3374 77.8947 9.43209C77.821 9.68197 77.725 9.92527 77.6066 10.1567C77.4843 10.4014 77.3739 10.6512 77.2779 10.9064C77.1792 11.1654 77.1135 11.4364 77.0819 11.7125C77.0517 12.015 77.0845 12.3215 77.1819 12.6095C77.2976 13.0448 77.5698 13.4222 77.9473 13.6682C78.3221 13.8957 78.7534 14.0114 79.1914 14.0022C79.5438 14.0035 79.8937 13.9325 80.2172 13.7918C80.5473 13.6471 80.8577 13.4591 81.1391 13.2342C81.4416 12.9935 81.7217 12.7252 81.9755 12.4332C82.2399 12.1308 82.4924 11.8151 82.7317 11.4837C82.8567 11.3614 82.9435 11.2062 82.9816 11.0352C83.0106 10.8958 83.0053 10.7525 82.9645 10.6157" fill="#53CBC8"/>
<path d="M21.7079 6.72168C19.8312 6.72168 18.3096 8.24461 18.3109 10.1213V10.1332C18.3161 10.2213 18.3898 10.291 18.4779 10.291H24.9392C25.0286 10.291 25.101 10.2213 25.1062 10.1332V10.1213C25.1062 8.24461 23.5859 6.72168 21.7079 6.72168Z" fill="#53CBC8"/>
<path d="M16.0607 13.9184C16.0607 14.0328 15.9686 14.1249 15.8542 14.1249C15.7398 14.1249 15.6477 14.0328 15.6477 13.9184C15.6477 13.804 15.7398 13.7119 15.8542 13.7119C15.9686 13.7119 16.0607 13.804 16.0607 13.9184Z" fill="#E1147B"/>
<path d="M24.713 12.7728H17.7809C17.6678 12.7728 17.577 12.8649 17.577 12.9766C17.577 13.0108 17.5849 13.0437 17.602 13.0727L17.606 13.0792C17.6415 13.145 17.7099 13.1858 17.7848 13.1858H24.7103C24.7853 13.1858 24.8537 13.145 24.8892 13.0792L24.8932 13.0727C24.9471 12.974 24.9089 12.8504 24.8103 12.7965C24.7814 12.7807 24.7472 12.7728 24.7143 12.7715L24.713 12.7728Z" fill="#E1147B"/>
<path d="M25.6349 10.8975H17.7809C17.6678 10.8975 17.577 10.9895 17.577 11.1026C17.577 11.1066 17.577 11.1105 17.577 11.1131V11.1197C17.5836 11.2276 17.673 11.3117 17.7809 11.3117H25.6349C25.7427 11.3117 25.8322 11.2276 25.8387 11.1197V11.1131C25.8453 11 25.7585 10.904 25.6467 10.8975C25.6428 10.8975 25.6402 10.8975 25.6362 10.8975H25.6349Z" fill="#E1147B"/>
<path d="M22.6772 15.5873H19.1381C19.025 15.5873 18.9343 15.6793 18.9343 15.7911C18.9343 15.8687 18.9777 15.9384 19.0474 15.9726L19.0605 15.9792C19.0881 15.9936 19.1197 16.0002 19.1513 16.0002H22.6653C22.6969 16.0002 22.7284 15.9936 22.7561 15.9792L22.7692 15.9726C22.8705 15.9226 22.9112 15.8003 22.86 15.699C22.8258 15.6307 22.7547 15.5859 22.6772 15.5859V15.5873Z" fill="#E1147B"/>
<path d="M24.8405 14.6498H21.3002C21.1871 14.6498 21.0963 14.7418 21.0963 14.8536C21.0963 14.9312 21.1397 15.0009 21.2094 15.0351L21.2226 15.0417C21.2502 15.0561 21.2818 15.0627 21.3133 15.0627H24.8274C24.859 15.0627 24.8905 15.0561 24.9181 15.0417L24.9313 15.0351C25.0326 14.9851 25.0733 14.8628 25.022 14.7615C24.9878 14.6932 24.9168 14.6498 24.8405 14.6484V14.6498Z" fill="#E1147B"/>
<path d="M20.014 14.0604L20.0074 14.0539C19.9311 13.971 19.9364 13.8421 20.0193 13.7658C20.0574 13.7316 20.1061 13.7119 20.1573 13.7119H25.9019C26.015 13.7119 26.1057 13.804 26.1057 13.9158C26.1057 13.9671 26.086 14.0157 26.0518 14.0539L26.0452 14.0604C26.0071 14.1012 25.9532 14.1249 25.8953 14.1249H20.1626C20.1061 14.1249 20.0521 14.1012 20.0127 14.0604H20.014Z" fill="#E1147B"/>
<path d="M16.592 13.7103H19.3354C19.4485 13.7103 19.5392 13.8024 19.5392 13.9141C19.5392 13.9917 19.4958 14.0614 19.4261 14.0956L19.413 14.1022C19.3854 14.1167 19.3538 14.1233 19.3222 14.1233H16.6051C16.5736 14.1233 16.542 14.1167 16.5144 14.1022L16.5012 14.0956C16.4 14.0457 16.3592 13.9234 16.4105 13.8221C16.4447 13.7537 16.5157 13.709 16.592 13.709V13.7103Z" fill="#E1147B"/>
<path d="M17.2482 11.1049C17.2482 11.2193 17.1562 11.3114 17.0418 11.3114C16.9274 11.3114 16.8353 11.2193 16.8353 11.1049C16.8353 10.9905 16.9274 10.8984 17.0418 10.8984C17.1562 10.8984 17.2482 10.9905 17.2482 11.1049Z" fill="#E1147B"/>
<path d="M22.1235 12.098V12.0914C22.1537 11.9823 22.0893 11.8718 21.9814 11.8415C21.9643 11.8363 21.9459 11.835 21.9275 11.835H16.183C16.0712 11.835 15.9791 11.9257 15.9791 12.0375C15.9791 12.0559 15.9818 12.073 15.9857 12.0914C15.9857 12.094 15.9857 12.0954 15.987 12.098C16.0107 12.1874 16.0922 12.2492 16.1843 12.2492H21.9262C22.0183 12.2492 22.0998 12.1874 22.1235 12.098Z" fill="#E1147B"/>
<path d="M15.6517 12.0414C15.6517 12.1559 15.5596 12.2479 15.4452 12.2479C15.3308 12.2479 15.2387 12.1559 15.2387 12.0414C15.2387 11.927 15.3308 11.835 15.4452 11.835C15.5596 11.835 15.6517 11.927 15.6517 12.0414Z" fill="#E1147B"/>
<path d="M17.2482 12.9809C17.2482 13.0953 17.1562 13.1874 17.0418 13.1874C16.9274 13.1874 16.8353 13.0953 16.8353 12.9809C16.8353 12.8665 16.9274 12.7744 17.0418 12.7744C17.1562 12.7744 17.2482 12.8665 17.2482 12.9809Z" fill="#E1147B"/>
<path d="M20.7689 14.8559C20.7689 14.9703 20.6768 15.0624 20.5624 15.0624C20.448 15.0624 20.3559 14.9703 20.3559 14.8559C20.3559 14.7415 20.448 14.6494 20.5624 14.6494C20.6768 14.6494 20.7689 14.7415 20.7689 14.8559Z" fill="#E1147B"/>
<path d="M18.6055 15.7934C18.6055 15.9078 18.5134 15.9999 18.399 15.9999C18.2846 15.9999 18.1925 15.9078 18.1925 15.7934C18.1925 15.679 18.2846 15.5869 18.399 15.5869C18.5134 15.5869 18.6055 15.679 18.6055 15.7934Z" fill="#E1147B"/>
</svg>
