<svg width="20" height="21" viewBox="0 0 20 21" fill="none" xmlns="http://www.w3.org/2000/svg">
<g id="cbw 1" clip-path="url(#clip0_6168_20797)">
<path id="Vector" d="M18 20.5H2C0.895431 20.5 0 19.6046 0 18.5V2.5C0 1.39543 0.895431 0.5 2 0.5H18C19.1046 0.5 20 1.39543 20 2.5V18.5C20 19.6046 19.1046 20.5 18 20.5Z" fill="#0052FF"/>
<path id="Vector_2" fill-rule="evenodd" clip-rule="evenodd" d="M2.96875 10.5C2.96875 6.61674 6.11674 3.46875 10 3.46875C13.8833 3.46875 17.0312 6.61674 17.0312 10.5C17.0312 14.3833 13.8833 17.5312 10 17.5312C6.11674 17.5312 2.96875 14.3833 2.96875 10.5ZM8.20312 12.7656C7.94424 12.7656 7.73438 12.5558 7.73438 12.2969V8.70312C7.73438 8.44424 7.94424 8.23438 8.20312 8.23438H11.7969C12.0558 8.23438 12.2656 8.44424 12.2656 8.70312V12.2969C12.2656 12.5558 12.0558 12.7656 11.7969 12.7656H8.20312Z" fill="white"/>
</g>
<defs>
<clipPath id="clip0_6168_20797">
<rect width="20" height="20" fill="white" transform="matrix(1 0 0 -1 0 20.5)"/>
</clipPath>
</defs>
</svg>
