<svg width="20" height="19" viewBox="0 0 20 19" fill="none" xmlns="http://www.w3.org/2000/svg">
<g id="metamask 1" clip-path="url(#clip0_6168_2765)">
<g id="Group">
<path id="Vector" fill-rule="evenodd" clip-rule="evenodd" d="M5.73108 16.8442L8.33136 17.5341V16.6319L8.54363 16.4197H10.0295V17.481V18.2239H8.43749L6.474 17.3749L5.73108 16.8442Z" fill="#CDBDB2"/>
<path id="Vector_2" fill-rule="evenodd" clip-rule="evenodd" d="M14.2217 16.8442L11.6745 17.5341V16.6319L11.4622 16.4197H9.9764V17.481V18.2239H11.5684L13.5318 17.3749L14.2217 16.8442Z" fill="#CDBDB2"/>
<path id="Vector_3" fill-rule="evenodd" clip-rule="evenodd" d="M8.54369 14.8809L8.33142 16.632L8.5967 16.4197H11.3561L11.6745 16.632L11.4623 14.8809L11.0377 14.6155L8.9151 14.6686L8.54369 14.8809Z" fill="#393939"/>
<path id="Vector_4" fill-rule="evenodd" clip-rule="evenodd" d="M7.11084 3.04712L8.38442 6.01882L8.9682 14.6686H11.0377L11.6745 6.01882L12.842 3.04712H7.11084Z" fill="#F89C35"/>
<path id="Vector_5" fill-rule="evenodd" clip-rule="evenodd" d="M1.53895 9.57416L0.0531006 13.8725L3.76772 13.6602H6.15565V11.8029L6.04952 7.98218L5.51886 8.40671L1.53895 9.57416Z" fill="#F89D35"/>
<path id="Vector_6" fill-rule="evenodd" clip-rule="evenodd" d="M4.35144 10.0518L8.70286 10.1579L8.22531 12.3867L6.15569 11.856L4.35144 10.0518Z" fill="#D87C30"/>
<path id="Vector_7" fill-rule="evenodd" clip-rule="evenodd" d="M4.35144 10.105L6.15569 11.8031V13.5012L4.35144 10.105Z" fill="#EA8D3A"/>
<path id="Vector_8" fill-rule="evenodd" clip-rule="evenodd" d="M6.15564 11.856L8.27828 12.3866L8.96819 14.6685L8.49055 14.9338L6.15564 13.5541V11.856Z" fill="#F89D35"/>
<path id="Vector_9" fill-rule="evenodd" clip-rule="evenodd" d="M6.15561 13.5542L5.73108 16.8443L8.54363 14.8809L6.15561 13.5542Z" fill="#EB8F35"/>
<path id="Vector_10" fill-rule="evenodd" clip-rule="evenodd" d="M8.70278 10.158L8.96816 14.6686L8.17212 12.3602L8.70278 10.158Z" fill="#EA8E3A"/>
<path id="Vector_11" fill-rule="evenodd" clip-rule="evenodd" d="M3.7146 13.6073L6.15564 13.5542L5.73111 16.8443L3.7146 13.6073Z" fill="#D87C30"/>
<path id="Vector_12" fill-rule="evenodd" clip-rule="evenodd" d="M1.22055 18.277L5.73112 16.8442L3.71461 13.6072L0.0531006 13.8725L1.22055 18.277Z" fill="#EB8F35"/>
<path id="Vector_13" fill-rule="evenodd" clip-rule="evenodd" d="M8.38446 6.0188L6.10267 7.92918L4.35144 10.0518L8.70286 10.2111L8.38446 6.0188Z" fill="#E8821E"/>
<path id="Vector_14" fill-rule="evenodd" clip-rule="evenodd" d="M5.73108 16.8443L8.54363 14.8809L8.33136 16.579V17.5342L6.42099 17.1627L5.73108 16.8443Z" fill="#DFCEC3"/>
<path id="Vector_15" fill-rule="evenodd" clip-rule="evenodd" d="M14.2217 16.8443L11.4622 14.8809L11.6745 16.579V17.5342L13.5849 17.1627L14.2217 16.8443Z" fill="#DFCEC3"/>
<path id="Vector_16" fill-rule="evenodd" clip-rule="evenodd" d="M7.53537 11.113L8.11914 12.3336L6.04952 11.8029L7.53537 11.113Z" fill="#393939"/>
<path id="Vector_17" fill-rule="evenodd" clip-rule="evenodd" d="M1.16748 0.552979L8.38446 6.01873L7.16399 3.04703L1.16748 0.552979Z" fill="#E88F35"/>
<path id="Vector_18" fill-rule="evenodd" clip-rule="evenodd" d="M1.16747 0.552979L0.21228 3.47161L0.742941 6.65557L0.371478 6.86784L0.902139 7.34543L0.47761 7.71689L1.06134 8.24755L0.689875 8.56595L1.53893 9.62727L5.51888 8.40675C7.46464 6.85015 8.41983 6.05416 8.38445 6.01878C8.34907 5.9834 5.94341 4.16147 1.16747 0.552979Z" fill="#8E5A30"/>
<g id="Group_2">
<path id="Vector_19" fill-rule="evenodd" clip-rule="evenodd" d="M18.4138 9.57416L19.8997 13.8725L16.185 13.6602H13.7971V11.8029L13.9032 7.98218L14.4339 8.40671L18.4138 9.57416Z" fill="#F89D35"/>
<path id="Vector_20" fill-rule="evenodd" clip-rule="evenodd" d="M15.6013 10.0518L11.2499 10.1579L11.7275 12.3867L13.7971 11.856L15.6013 10.0518Z" fill="#D87C30"/>
<path id="Vector_21" fill-rule="evenodd" clip-rule="evenodd" d="M15.6013 10.105L13.7971 11.8031V13.5012L15.6013 10.105Z" fill="#EA8D3A"/>
<path id="Vector_22" fill-rule="evenodd" clip-rule="evenodd" d="M13.7971 11.856L11.6745 12.3866L10.9846 14.6685L11.4622 14.9338L13.7971 13.5541V11.856Z" fill="#F89D35"/>
<path id="Vector_23" fill-rule="evenodd" clip-rule="evenodd" d="M13.7972 13.5542L14.2217 16.8443L11.4622 14.9339L13.7972 13.5542Z" fill="#EB8F35"/>
<path id="Vector_24" fill-rule="evenodd" clip-rule="evenodd" d="M11.25 10.158L10.9846 14.6686L11.7806 12.3602L11.25 10.158Z" fill="#EA8E3A"/>
<path id="Vector_25" fill-rule="evenodd" clip-rule="evenodd" d="M16.2382 13.6073L13.7971 13.5542L14.2216 16.8443L16.2382 13.6073Z" fill="#D87C30"/>
<path id="Vector_26" fill-rule="evenodd" clip-rule="evenodd" d="M18.7322 18.277L14.2216 16.8442L16.2381 13.6072L19.8997 13.8725L18.7322 18.277Z" fill="#EB8F35"/>
<path id="Vector_27" fill-rule="evenodd" clip-rule="evenodd" d="M11.5683 6.0188L13.8501 7.92918L15.6013 10.0518L11.2499 10.2111L11.5683 6.0188Z" fill="#E8821E"/>
<path id="Vector_28" fill-rule="evenodd" clip-rule="evenodd" d="M12.4174 11.113L11.8336 12.3336L13.9032 11.8029L12.4174 11.113Z" fill="#393939"/>
<path id="Vector_29" fill-rule="evenodd" clip-rule="evenodd" d="M18.7853 0.552979L11.5683 6.01873L12.7888 3.04703L18.7853 0.552979Z" fill="#E88F35"/>
<path id="Vector_30" fill-rule="evenodd" clip-rule="evenodd" d="M18.7853 0.552979L19.7405 3.47161L19.2098 6.65557L19.5813 6.86784L19.0506 7.34543L19.4751 7.71689L18.8914 8.24755L19.2629 8.56595L18.4138 9.62727L14.4339 8.40675C12.4881 6.85015 11.5329 6.05416 11.5683 6.01878C11.6037 5.9834 14.0093 4.16147 18.7853 0.552979Z" fill="#8E5A30"/>
</g>
</g>
</g>
<defs>
<clipPath id="clip0_6168_2765">
<rect width="20" height="17.8302" fill="white" transform="translate(0 0.5)"/>
</clipPath>
</defs>
</svg>
