<svg width="22" height="23" viewBox="0 0 22 23" fill="none" xmlns="http://www.w3.org/2000/svg">
<g id="Group">
<path id="Vector" fill-rule="evenodd" clip-rule="evenodd" d="M10.9999 0.5C17.0215 0.5 21.9017 5.42422 21.9017 11.5C21.9017 17.5758 17.0215 22.5 10.9999 22.5C4.9784 22.5 0.0981445 17.5758 0.0981445 11.5C0.0981445 5.42422 4.9784 0.5 10.9999 0.5Z" fill="url(#paint0_radial_6168_5697)"/>
<path id="Vector_2" d="M7.0268 8.99502C9.21993 6.83369 12.78 6.83369 14.9732 8.99502L15.2372 9.25713C15.3479 9.36455 15.3479 9.54072 15.2372 9.64814L14.3344 10.5376C14.279 10.5935 14.1896 10.5935 14.1342 10.5376L13.7723 10.181C12.2392 8.67275 9.76076 8.67275 8.22769 10.181L7.84017 10.5634C7.78481 10.6192 7.69538 10.6192 7.64002 10.5634L6.73722 9.67393C6.62649 9.5665 6.62649 9.39033 6.73722 9.28291L7.0268 8.99502ZM16.8427 10.8341L17.6475 11.6247C17.7582 11.7321 17.7582 11.9083 17.6475 12.0157L14.0235 15.5864C13.9128 15.6938 13.7339 15.6938 13.6275 15.5864L11.0553 13.0513C11.0298 13.0255 10.983 13.0255 10.9574 13.0513L8.38526 15.5864C8.27454 15.6938 8.09568 15.6938 7.98922 15.5864L4.35245 12.0157C4.24173 11.9083 4.24173 11.7321 4.35245 11.6247L5.15731 10.8341C5.26803 10.7267 5.44689 10.7267 5.55335 10.8341L8.12549 13.3692C8.15104 13.395 8.19788 13.395 8.22344 13.3692L10.7956 10.8341C10.9063 10.7267 11.0852 10.7267 11.1916 10.8341L13.7638 13.3692C13.7893 13.395 13.8362 13.395 13.8617 13.3692L16.4338 10.8341C16.5531 10.7267 16.7319 10.7267 16.8427 10.8341Z" fill="white"/>
</g>
<defs>
<radialGradient id="paint0_radial_6168_5697" cx="0" cy="0" r="1" gradientUnits="userSpaceOnUse" gradientTransform="translate(0.0982121 11.5003) scale(21.8036 22)">
<stop stop-color="#5D9DF6"/>
<stop offset="1" stop-color="#006FFF"/>
</radialGradient>
</defs>
</svg>
