<svg width="320" height="240" viewBox="0 0 320 240" fill="none" xmlns="http://www.w3.org/2000/svg">
<path d="M86.2351 117.72C82.8001 115.775 79.8901 121.415 80.9851 124.2C82.3601 127.695 88.8851 127.13 89.9751 123.54C90.9201 120.445 89.4551 119.12 86.2351 117.72Z" fill="white"/>
<path d="M104.24 119.915C101.88 119.175 98.0599 119.14 96.4449 121.345C94.9949 123.32 95.5599 126.565 97.2149 128.26C98.5799 129.665 101.46 128.89 103.365 129.36C103.945 126.24 104.92 123.03 104.245 119.915H104.24Z" fill="white"/>
<path d="M85.7951 121.235C83.9551 120.77 83.8401 122.795 84.7401 123.84C86.1251 123.915 86.8051 122.66 85.7951 121.675C85.6701 121.555 85.8751 121.39 85.7951 121.235Z" fill="#141822"/>
<path d="M101.385 123.21C100.9 123.22 100.49 123.41 100.105 123.685C99.8152 124.395 99.8602 124.995 100.285 125.625C101.37 127.225 102.68 123.185 101.385 123.21Z" fill="#141822"/>
<path d="M274.44 106.725C274.705 100.85 275.78 92.305 273.945 86.735C270.27 88.215 266.15 88.185 262.125 88.625C257.195 89.165 251.97 91.07 246.995 91.46C240.755 91.95 234.53 93.9 228.32 94.77C215.89 96.515 203.685 98.63 191.23 100.445C183.71 101.54 176.31 103.74 168.85 105.53C159.825 107.695 150.245 107.455 141.555 110.85C125.98 106.045 107.92 103.97 91.45 100.46C83.43 98.75 75.845 96.195 67.815 94.67C60.145 93.21 52.12 93.105 44.625 91.465C43.805 99.24 46.835 110.57 47.075 118.395C47.545 133.695 47.115 148.58 47.46 163.81C52.48 165.1 58.09 165.25 63.395 166.755C73.325 169.575 82.9 173.68 92.875 176.455C108.295 180.745 123.855 184.585 139.665 187.45C147.205 186.385 155.415 185.125 163.055 182.96C173.14 180.1 183.265 177.23 192.99 173.27C202.45 169.415 213.795 170.265 223.875 167.715C232.815 165.45 241.445 163.355 250.27 160.72C257.075 158.685 267.21 158.275 273.475 155.3C274.345 153.385 274.08 149.58 273.95 147.085C273.585 140.02 273.175 132.85 273.515 125.725C273.815 119.45 274.16 113.04 274.445 106.725H274.44ZM103.25 130.71C94.125 131.9 80.495 126.765 72.99 122.67V114.16C82.4 117.325 95.015 118.385 105.145 118.415C105.145 121.88 103.255 127.24 103.255 130.71H103.25Z" fill="#A99CCC"/>
<path d="M45.0901 95.245C47.7651 118.145 46.9801 142.51 46.9801 165.695C65.3401 171.29 85.0151 173.69 103.72 178.58C116.025 181.795 128.92 184.98 140.6 188.39C140.6 165.985 141.075 143.625 141.075 121.25C141.075 118.86 140.345 115.47 141.075 113.21" stroke="#141822" stroke-miterlimit="10"/>
<path d="M262.19 89.625C266.365 88.765 271.6 86.665 273.94 86.735C273.305 88.775 273.94 90.875 273.94 93.155C273.94 112.465 275.36 136.095 275.36 155.5C267.58 159.56 251.185 162.86 242.26 165.225C223.56 170.175 204.075 171.83 185.52 177.64C172.61 181.685 155.365 182.205 144.855 186.975" stroke="#141822" stroke-miterlimit="10"/>
<path d="M102.46 117.31C100.935 117.42 98.8401 116.625 97.1701 116.445C94.9351 116.2 92.6851 115.95 90.4851 115.735C86.7451 115.37 82.9901 114.935 79.3851 113.915C77.6101 113.415 75.6901 113.07 73.9351 112.74C71.7301 113.37 72.4501 120.835 72.5151 122.67C75.1751 124.825 79.1051 125.035 82.4851 125.63C87.7751 126.565 92.9201 127.6 98.2401 128.185C99.9701 128.375 101.76 128.56 103.405 128.975C105.57 126.735 104.98 123.56 104.98 120.62" stroke="#141822" stroke-miterlimit="10"/>
<path d="M42.8149 95.6649C49.3949 95.6649 55.8549 98.2649 62.0449 99.8799C72.7449 102.675 83.7699 105.18 94.8199 107.16C104.895 108.965 115.02 110.995 125.06 112.355C130.775 113.13 136.73 114.895 142.345 114.94C151.13 115.01 160.475 112.635 169.05 110.91C180.295 108.645 191.275 105.345 202.49 103C213.985 100.595 225.455 99.9299 236.855 96.8399C250.55 93.1249 264.81 91.5099 278.305 88.8749C277.26 85.4899 277.49 80.6099 277.85 77.0249C274.805 78.3599 268.645 75.9999 265.175 75.5599C255.595 74.3449 246.035 73.4499 236.455 72.3949C221.115 70.7149 205.675 68.0799 190.435 65.8099C180.56 64.3349 170.82 63.3599 161.12 61.7649C152.485 60.3449 143.275 65.1499 135.015 67.3299C125.645 69.7999 115.39 69.8049 105.775 71.6649C96.3099 73.4999 87.5149 74.97 77.7499 75.3C65.4649 75.715 53.5099 77.3949 42.0549 80.0099C42.2849 84.9149 43.8699 90.915 42.8249 95.66L42.8149 95.6649Z" fill="#81D1DF"/>
<path d="M51.555 77.98C66.925 77.99 82.915 74.875 98.18 72.535C114.545 70.025 131.295 68.46 147.52 65.855C152.84 65 160.015 61.1049 165.315 62.2949C171.605 63.7099 178.385 63.2799 184.845 63.9199C195.45 64.9699 205.955 66.83 216.525 68.3C231.55 70.395 246.7 71.9799 261.48 74.1649C266.49 74.9049 272.975 77.0199 277.6 78.3099C269.76 77.7349 260.02 79.91 252.185 80.76C239.33 82.155 226.43 83.1549 213.605 84.6099C199.605 86.1999 185.555 89.32 171.595 91.66C164.575 92.835 157.425 93.6049 150.57 95.5899C147.02 96.6199 142.765 100.265 139.325 99.05C121.105 92.625 99.335 93.375 80.295 89.19C67.855 86.455 53.035 84.8149 42.155 81.4149" stroke="#141822" stroke-miterlimit="10"/>
<path d="M42.1851 84.72C42.2351 88.345 42.2801 91.97 42.3301 95.595C55.4201 99.34 68.8151 101.595 81.9001 104.95C95.8051 108.515 110.91 111.055 124.87 113.315C130.43 114.215 135.545 115.005 140.96 116.045C139.7 113.345 140.59 106.935 141.27 103.745" stroke="#141822" stroke-miterlimit="10"/>
<path d="M144.725 115.05C153.175 111.64 163.11 110.93 171.935 107.93C180.795 104.92 190.81 104.665 200.02 102.95C217.5 99.695 235.275 96 252.75 93.305C260.46 92.115 268.975 88.32 276.78 88.72C277.41 86.22 277.22 83.12 277.62 80.67" stroke="#141822" stroke-miterlimit="10"/>
</svg>
