<svg width="320" height="240" viewBox="0 0 320 240" fill="none" xmlns="http://www.w3.org/2000/svg">
<path d="M43.1999 90.165C49.7749 89.885 56.3399 92.205 62.5899 93.555C73.3949 95.89 84.5249 97.92 95.6449 99.425C105.79 100.8 115.995 102.395 126.075 103.325C131.815 103.855 137.845 105.365 143.455 105.17C152.235 104.865 161.47 102.09 169.96 100C181.095 97.26 191.925 93.495 203.03 90.67C214.41 87.775 225.845 86.625 237.1 83.05C250.62 78.755 264.805 76.535 278.17 73.325C276.985 69.99 277 65.105 277.21 61.505C274.225 62.97 267.97 60.875 264.485 60.585C254.86 59.78 245.275 59.29 235.655 58.65C220.26 57.625 204.715 55.655 189.395 54.035C179.465 52.985 169.695 52.425 159.935 51.245C151.25 50.195 142.25 55.385 134.09 57.915C124.835 60.785 114.59 61.225 105.06 63.495C95.6799 65.73 86.9549 67.58 77.2149 68.325C64.9599 69.265 53.0849 71.455 41.7549 74.555C42.1899 79.445 44.0349 85.37 43.1949 90.155L43.1999 90.165Z" fill="#81D1DF"/>
<path d="M51.1749 72.12C66.5349 71.475 82.3699 67.675 97.5249 64.685C113.77 61.48 130.44 59.2 146.535 55.905C151.815 54.825 158.815 50.625 164.16 51.59C170.505 52.735 177.26 52.015 183.74 52.38C194.38 52.98 204.955 54.385 215.575 55.405C230.675 56.855 245.88 57.795 260.74 59.345C265.775 59.87 272.345 61.71 277.025 62.8C269.17 62.56 259.53 65.15 251.74 66.335C238.955 68.275 226.11 69.825 213.355 71.83C199.44 74.015 185.535 77.735 171.685 80.67C164.725 82.145 157.61 83.215 150.845 85.495C147.34 86.675 143.25 90.495 139.755 89.43C121.28 83.785 99.5599 85.465 80.3599 82.1C67.8149 79.9 52.9349 78.89 41.9199 75.965" stroke="#141822" stroke-miterlimit="10"/>
<path d="M42.1001 79.255C42.3051 82.875 42.5051 86.495 42.7101 90.115C55.9501 93.295 69.4301 94.98 82.6401 97.775C96.6851 100.745 111.885 102.635 125.925 104.3C131.515 104.96 136.665 105.535 142.115 106.34C140.74 103.695 141.355 97.25 141.9 94.04" stroke="#141822" stroke-miterlimit="10"/>
<path d="M145.84 105.18C154.135 101.415 164.035 100.275 172.725 96.905C181.445 93.52 191.44 92.835 200.57 90.73C217.895 86.73 235.495 82.285 252.84 78.845C260.495 77.325 268.835 73.17 276.65 73.24C277.175 70.715 276.85 67.625 277.145 65.16" stroke="#141822" stroke-miterlimit="10"/>
<path d="M274.435 106.725C274.7 100.85 275.775 92.305 273.94 86.735C270.265 88.215 266.145 88.185 262.12 88.625C257.19 89.165 251.965 91.07 246.99 91.46C240.75 91.95 234.525 93.9 228.315 94.77C215.885 96.515 203.68 98.63 191.225 100.445C183.705 101.54 176.305 103.74 168.845 105.53C159.82 107.695 150.24 107.455 141.55 110.85C125.975 106.045 107.915 103.97 91.4451 100.46C83.4251 98.75 75.8401 96.195 67.8101 94.67C60.1401 93.21 52.1151 93.105 44.6201 91.465C43.8001 99.24 46.8301 110.57 47.0701 118.395C47.5401 133.695 47.1101 148.58 47.4551 163.81C52.4751 165.1 58.0851 165.25 63.3901 166.755C73.3201 169.575 82.8951 173.68 92.8701 176.455C108.29 180.745 123.85 184.585 139.66 187.45C147.2 186.385 155.41 185.125 163.05 182.96C173.135 180.1 183.26 177.23 192.985 173.27C202.445 169.415 213.79 170.265 223.87 167.715C232.81 165.45 241.44 163.355 250.265 160.72C257.07 158.685 267.205 158.275 273.47 155.3C274.34 153.385 274.075 149.58 273.945 147.085C273.58 140.02 273.17 132.85 273.51 125.725C273.81 119.45 274.155 113.04 274.44 106.725H274.435ZM103.245 130.71C94.1201 131.9 80.4901 126.765 72.9851 122.67V114.16C82.3951 117.325 95.0101 118.385 105.14 118.415C105.14 121.88 103.25 127.24 103.25 130.71H103.245Z" fill="#A99CCC"/>
<path d="M229.965 92.885C232.745 91.605 232.34 87.865 234.74 85.88C236.1 84.755 236.26 85.145 238.145 84.235C238.905 83.865 241.71 82.33 243 81.535C242.81 82.695 245.855 80.81 245.855 81.7C257.14 84.235 258.705 93.115 256.92 104.66C256.385 108.11 254.165 106.97 253.185 106.745C253.185 107.185 249.405 108.42 248.905 106.195C248.465 104.22 246.335 102.32 246.6 100.705C246.76 99.73 245.17 99.245 245.28 98.07C245.56 95.08 244.98 97.305 244.175 94.4C242.3 93.815 244.67 94.285 244.015 92.505C238.095 92.18 236.58 91.87 229.965 92.89V92.885Z" fill="#F6AF37"/>
<path d="M45.0901 95.245C47.7651 118.145 46.9801 142.51 46.9801 165.695C65.3401 171.29 85.0151 173.69 103.72 178.58C116.025 181.795 128.92 184.98 140.6 188.39C140.6 165.985 141.075 143.625 141.075 121.25C141.075 118.86 140.345 115.47 141.075 113.21" stroke="#141822" stroke-miterlimit="10"/>
<path d="M262.19 89.625C266.365 88.765 271.6 86.665 273.94 86.735C273.305 88.775 273.94 90.875 273.94 93.155C273.94 112.465 275.36 136.095 275.36 155.5C267.58 159.56 251.185 162.86 242.26 165.225C223.56 170.175 204.075 171.83 185.52 177.64C172.61 181.685 155.365 182.205 144.855 186.975" stroke="#141822" stroke-miterlimit="10"/>
<path d="M143.44 111.325C175.92 106.155 208.665 97.19 241.34 92.99C242.05 92.9 242.885 92.76 243.82 92.58" stroke="#141822" stroke-miterlimit="10"/>
<path d="M251.945 82.575C257.8 82.71 262.955 83.885 268.735 84.03" stroke="#F3E7D3" stroke-miterlimit="10"/>
<path d="M140.13 110.85C132.36 109.26 124.89 107.525 117.435 105.65" stroke="#141822" stroke-miterlimit="10"/>
<path d="M248.88 84.845C251.59 83.925 252.75 84.095 255.35 85.1" stroke="#141822" stroke-miterlimit="10"/>
<path d="M235.835 89.395C234.945 90.635 235.755 90.455 235.285 92.25" stroke="#141822" stroke-miterlimit="10"/>
<path d="M249.7 95.455C249.45 96.635 249.72 98.065 249.665 99.295" stroke="#141822" stroke-miterlimit="10"/>
<path d="M237.595 87.635C238.455 86.3 240.98 86.795 242.18 85.765" stroke="#141822" stroke-miterlimit="10"/>
<path d="M252.845 96.83C252.195 98.335 251.98 100.205 252.085 101.765" stroke="#141822" stroke-miterlimit="10"/>
<path d="M247.23 101.4C247.15 102.93 247.035 104.55 247.78 105.95" stroke="#141822" stroke-miterlimit="10"/>
<path d="M247.145 97.19C246.435 98.065 245.245 99.12 244.63 100.06" stroke="#141822" stroke-miterlimit="10"/>
<path d="M240.56 89.175C240.165 89.9 241.07 91.185 240.605 91.86" stroke="#141822" stroke-miterlimit="10"/>
<path d="M247.475 86.54C248.13 87.595 250.1 87.92 250.22 89.175" stroke="#141822" stroke-miterlimit="10"/>
<path d="M255.24 99.615C254.53 101.6 254.01 103.635 253.415 105.655" stroke="#141822" stroke-miterlimit="10"/>
<path d="M257.13 99.955C257.03 100.89 256.83 102.55 257.66 103.155" stroke="#141822" stroke-miterlimit="10"/>
<path d="M253.01 86.215C252.045 85.965 251.1 86.425 250.14 86.37" stroke="#141822" stroke-miterlimit="10"/>
<path d="M247.145 88.625C245.87 88.465 244.195 89.775 242.975 90.16" stroke="#141822" stroke-miterlimit="10"/>
<path d="M248.905 91.15C249.36 92.34 249.395 93.515 250.275 94.455" stroke="#141822" stroke-miterlimit="10"/>
<path d="M238.685 90.365C238.285 91.07 237.735 91.985 237.44 92.64" stroke="#141822" stroke-miterlimit="10"/>
<path d="M241.185 83.785C240.27 83.995 239.545 84.815 238.63 84.96" stroke="#141822" stroke-miterlimit="10"/>
<path d="M235.18 87.635C233.165 88.79 232.75 90.305 232.205 92.285" stroke="#141822" stroke-miterlimit="10"/>
<path d="M255.6 87.305C255.685 88.415 256.915 89.565 256.915 90.69" stroke="#141822" stroke-miterlimit="10"/>
<path d="M244.95 86.65C244.29 87.045 242.915 87.96 242.01 87.855" stroke="#141822" stroke-miterlimit="10"/>
<path d="M245.665 82.95C245.12 83.98 244.42 85.005 243.525 85.77" stroke="#141822" stroke-miterlimit="10"/>
<path d="M245.2 91.465C245.965 92.385 245.64 94.11 246.815 94.445" stroke="#141822" stroke-miterlimit="10"/>
<path d="M102.46 117.31C100.935 117.42 98.8401 116.625 97.1701 116.445C94.9351 116.2 92.6851 115.95 90.4851 115.735C86.7451 115.37 82.9901 114.935 79.3851 113.915C77.6101 113.415 75.6901 113.07 73.9351 112.74C71.7301 113.37 72.4501 120.835 72.5151 122.67C75.1751 124.825 79.1051 125.035 82.4851 125.63C87.7751 126.565 92.9201 127.6 98.2401 128.185C99.9701 128.375 101.76 128.56 103.405 128.975C105.57 126.735 104.98 123.56 104.98 120.62" stroke="#141822" stroke-miterlimit="10"/>
<path d="M252.195 88.405C252.35 89.215 253.63 90.425 254.28 90.93" stroke="#141822" stroke-miterlimit="10"/>
<path d="M251.975 92.595C252.695 93.37 253.01 94.285 254.035 94.735" stroke="#141822" stroke-miterlimit="10"/>
<path d="M257 92.345C257.39 92.58 258.04 92.855 258.35 93.18C258.73 93.575 258.745 94.075 258.975 94.57" stroke="#141822" stroke-miterlimit="10"/>
<path d="M246.785 82.465C247.485 81.965 248.305 81.615 249.09 81.475" stroke="#141822" stroke-miterlimit="10"/>
<path d="M242.835 83.675C242.83 82.905 242.315 82.325 241.55 81.93" stroke="#141822" stroke-miterlimit="10"/>
<path d="M250.2 103.555C250.24 104.65 250.475 105.955 250.86 106.96" stroke="#141822" stroke-miterlimit="10"/>
<path d="M255.93 94.995C256.665 95.32 257.495 96.885 258.325 96.97" stroke="#141822" stroke-miterlimit="10"/>
<path d="M245.37 101.36C245.055 101.59 244.665 101.71 244.27 101.69" stroke="#141822" stroke-miterlimit="10"/>
</svg>
