<svg width="320" height="240" viewBox="0 0 320 240" fill="none" xmlns="http://www.w3.org/2000/svg">
<path d="M274.52 106.725C274.785 100.85 275.86 92.305 274.025 86.735C270.35 88.215 266.23 88.185 262.205 88.625C257.275 89.165 252.05 91.07 247.075 91.46C240.835 91.95 234.61 93.9 228.4 94.77C215.97 96.515 203.765 98.63 191.31 100.445C183.79 101.54 176.39 103.74 168.93 105.53C159.905 107.695 150.325 107.455 141.635 110.85C126.06 106.045 108 103.97 91.5301 100.46C83.5101 98.75 75.9251 96.195 67.8951 94.67C60.2251 93.21 52.2001 93.105 44.7051 91.465C43.8851 99.24 46.9151 110.57 47.1551 118.395C47.6251 133.695 47.1951 148.58 47.5401 163.81C52.5601 165.1 58.1701 165.25 63.4751 166.755C73.4051 169.575 82.9801 173.68 92.9551 176.455C108.375 180.745 123.935 184.585 139.745 187.45C147.285 186.385 155.495 185.125 163.135 182.96C173.22 180.1 183.345 177.23 193.07 173.27C202.53 169.415 213.875 170.265 223.955 167.715C232.895 165.45 241.525 163.355 250.35 160.72C257.155 158.685 267.29 158.275 273.555 155.3C274.425 153.385 274.16 149.58 274.03 147.085C273.665 140.02 273.255 132.85 273.595 125.725C273.895 119.45 274.24 113.04 274.525 106.725H274.52ZM103.33 130.71C94.2051 131.9 80.5751 126.765 73.0701 122.67V114.16C82.4801 117.325 95.0951 118.385 105.225 118.415C105.225 121.88 103.335 127.24 103.335 130.71H103.33Z" fill="#A99CCC"/>
<path d="M230.05 92.885C232.83 91.605 232.67 87.09 235.07 85.105C236.43 83.98 236.92 82.945 238.805 82.03C239.565 81.66 243.665 81.51 244.955 80.71C244.765 81.87 246.71 82.895 246.71 83.785C256.81 78.515 258.84 106.625 257.055 118.17C256.52 121.62 256.755 126.465 257.91 129.465C257.095 129.61 256.15 136.415 255.055 138.47C253.57 137.245 253.07 138.915 252.09 138.69C251.83 138.585 248.74 134.71 248.465 134.735C248.56 131.78 246.56 128.275 246.6 125.505C244.02 124.19 244.52 118.335 245.68 116.2C244.025 114.425 244.43 111.815 243.93 109.59C246.155 107.725 245.34 107.62 245.605 106C245.765 105.025 245.135 102.835 245.245 101.66C245.525 98.67 245.07 97.305 244.265 94.4C242.39 93.815 244.76 94.285 244.105 92.505C238.185 92.18 236.67 91.87 230.055 92.89L230.05 92.885Z" fill="#F6AF37"/>
<path d="M262.27 89.625C266.445 88.765 271.68 86.665 274.02 86.735C273.385 88.775 274.02 90.875 274.02 93.155C274.02 112.465 275.44 136.095 275.44 155.5C267.66 159.56 251.265 162.86 242.34 165.225C223.64 170.175 204.155 171.83 185.6 177.64C172.69 181.685 155.445 182.205 144.935 186.975" stroke="#141822" stroke-miterlimit="10"/>
<path d="M143.52 111.325C176 106.155 208.745 97.19 241.42 92.99C242.13 92.9 242.965 92.76 243.9 92.58" stroke="#141822" stroke-miterlimit="10"/>
<path d="M251.325 82.61C257.18 82.745 263.035 83.885 268.82 84.03" stroke="#F3E7D3" stroke-miterlimit="10"/>
<path d="M140.21 110.85C132.44 109.26 124.97 107.525 117.515 105.65" stroke="#141822" stroke-miterlimit="10"/>
<path d="M248.965 84.845C251.675 83.925 255.35 84.785 257.95 85.79" stroke="#141822" stroke-miterlimit="10"/>
<path d="M239.415 86.105C237.905 87.485 236.43 89.305 235.63 91.305" stroke="#141822" stroke-miterlimit="10"/>
<path d="M248 118.12L246.995 126.095" stroke="#141822" stroke-miterlimit="10"/>
<path d="M250.66 126.28C250.41 127.46 250.68 128.89 250.625 130.12" stroke="#141822" stroke-miterlimit="10"/>
<path d="M253.545 121.395C253.365 122.82 252.325 125.68 253.325 126.925" stroke="#141822" stroke-miterlimit="10"/>
<path d="M255.95 117.405C256.6 118.53 256.345 119.935 256.59 121.14" stroke="#141822" stroke-miterlimit="10"/>
<path d="M241.16 87.76C242.02 86.425 243.59 85.48 244.785 84.45" stroke="#141822" stroke-miterlimit="10"/>
<path d="M256.035 123.69C256.645 124.235 257.355 124.835 257.87 125.51" stroke="#141822" stroke-miterlimit="10"/>
<path d="M255.65 124.835C255.485 125.72 255.24 126.57 255.16 127.475" stroke="#141822" stroke-miterlimit="10"/>
<path d="M253.48 129.635C252.925 130.885 252.805 132.475 252.99 133.81" stroke="#141822" stroke-miterlimit="10"/>
<path d="M255.32 88.84C255.32 90.15 255.56 91.69 255.16 92.94" stroke="#141822" stroke-miterlimit="10"/>
<path d="M250.17 132.8C250.09 134.33 249.975 135.95 250.72 137.35" stroke="#141822" stroke-miterlimit="10"/>
<path d="M248.71 128.93C248.07 129.855 247.395 130.795 246.855 131.78" stroke="#141822" stroke-miterlimit="10"/>
<path d="M251.49 90.63C251.925 91.825 252.63 92.99 252.75 94.255" stroke="#141822" stroke-miterlimit="10"/>
<path d="M241.95 89.65C241.555 90.375 241.155 91.18 240.69 91.855" stroke="#141822" stroke-miterlimit="10"/>
<path d="M247.94 87.13C248.595 88.185 249.87 89.03 249.99 90.28" stroke="#141822" stroke-miterlimit="10"/>
<path d="M256.205 130.44C255.495 132.425 254.975 134.46 254.38 136.48" stroke="#141822" stroke-miterlimit="10"/>
<path d="M258.09 130.78C257.99 131.715 257.79 133.375 258.62 133.98" stroke="#141822" stroke-miterlimit="10"/>
<path d="M247.96 92.68C248.43 94.105 248.12 95.905 248.12 97.41" stroke="#141822" stroke-miterlimit="10"/>
<path d="M253.095 86.215C252.13 85.965 251.185 86.425 250.225 86.37" stroke="#141822" stroke-miterlimit="10"/>
<path d="M250.37 95.195C250.395 96.4 251.13 97.43 251 98.66" stroke="#141822" stroke-miterlimit="10"/>
<path d="M247.53 89.93C246.255 89.77 244.905 89.91 243.685 90.295" stroke="#141822" stroke-miterlimit="10"/>
<path d="M249.965 122.69C249.34 123.795 249.21 124.95 249.045 126.23" stroke="#141822" stroke-miterlimit="10"/>
<path d="M245.645 101.205C244.41 102.42 244.045 104.445 244.19 106.035" stroke="#141822" stroke-miterlimit="10"/>
<path d="M257.42 92.75C258.43 93.7 258.91 94.945 259.4 96.215" stroke="#141822" stroke-miterlimit="10"/>
<path d="M239.39 89.975C238.79 90.805 237.985 91.88 237.525 92.635" stroke="#141822" stroke-miterlimit="10"/>
<path d="M243.865 83.21C242.49 83.495 241.405 84.65 240.035 84.845" stroke="#141822" stroke-miterlimit="10"/>
<path d="M256.515 95.665C256.455 97.105 256.995 98.705 256.515 100.08" stroke="#141822" stroke-miterlimit="10"/>
<path d="M234.965 88.585C232.805 89.425 232.845 90.205 232.01 92.09" stroke="#141822" stroke-miterlimit="10"/>
<path d="M258.41 98.66C258.495 99.77 258.565 100.85 258.57 101.97" stroke="#141822" stroke-miterlimit="10"/>
<path d="M245.655 86.435C245.27 87.05 244.605 87.585 243.915 87.825" stroke="#141822" stroke-miterlimit="10"/>
<path d="M254.01 97.5C253.985 98.66 254.19 99.81 254.17 100.965" stroke="#141822" stroke-miterlimit="10"/>
<path d="M256.36 101.815C256.91 103.335 259.025 108.02 257.465 109.225" stroke="#141822" stroke-miterlimit="10"/>
<path d="M247.945 82.62C247.4 83.65 246.7 84.675 245.805 85.44" stroke="#141822" stroke-miterlimit="10"/>
<path d="M250.845 100.68C251.1 102.015 251.76 103.39 252.735 104.305" stroke="#141822" stroke-miterlimit="10"/>
<path d="M245.8 98.505C246.565 99.425 246.985 101.48 248.165 101.815" stroke="#141822" stroke-miterlimit="10"/>
<path d="M250.91 115.82C251.43 117.005 251.635 118.465 252.355 119.495" stroke="#141822" stroke-miterlimit="10"/>
<path d="M253.45 117.09C253.695 118.2 253.96 119.6 254.775 120.435" stroke="#141822" stroke-miterlimit="10"/>
<path d="M249.36 118.01C249.485 119.115 249.55 120.275 249.575 121.375" stroke="#141822" stroke-miterlimit="10"/>
<path d="M102.54 117.31C101.015 117.42 98.9199 116.625 97.2499 116.445C95.0149 116.2 92.7649 115.95 90.5649 115.735C86.8249 115.37 83.0699 114.935 79.4649 113.915C77.6899 113.415 75.7699 113.07 74.0149 112.74C71.8099 113.37 72.5299 120.835 72.5949 122.67C75.2549 124.825 79.1849 125.035 82.5649 125.63C87.8549 126.565 92.9999 127.6 98.3199 128.185C100.05 128.375 101.84 128.56 103.485 128.975C105.65 126.735 105.06 123.56 105.06 120.62" stroke="#141822" stroke-miterlimit="10"/>
<path d="M247.1 104.805C247.105 106.59 247.38 108.005 247.76 109.635" stroke="#141822" stroke-miterlimit="10"/>
<path d="M250.17 106.12C250.76 107.725 251.03 109.8 252.365 110.95" stroke="#141822" stroke-miterlimit="10"/>
<path d="M254.625 108.795C254.875 109.905 254.825 111.26 255.505 112.09" stroke="#141822" stroke-miterlimit="10"/>
<path d="M253.465 113.21C254.195 114.52 255.525 115.145 256.54 116.065" stroke="#141822" stroke-miterlimit="10"/>
<path d="M255.225 104.365C255.31 105.335 255.49 106.225 255.445 107.22" stroke="#141822" stroke-miterlimit="10"/>
<path d="M245.48 109.195C245.1 110.085 244.89 111.155 244.6 112.05" stroke="#141822" stroke-miterlimit="10"/>
<path d="M249.21 110.51C248.915 111.98 248.525 113.175 247.015 113.805" stroke="#141822" stroke-miterlimit="10"/>
<path d="M250.03 112.43C249.77 113.905 249.405 115.26 248.71 116.6" stroke="#141822" stroke-miterlimit="10"/>
<path d="M245.155 117.975C244.785 118.97 243.94 119.615 243.3 120.4" stroke="#141822" stroke-miterlimit="10"/>
<path d="M245.92 116C245.72 116.325 245.41 116.485 245.04 116.44" stroke="#141822" stroke-miterlimit="10"/>
<path d="M45.1699 95.245C47.8449 118.145 47.0599 142.51 47.0599 165.695C65.4199 171.29 85.0949 173.69 103.8 178.58C116.105 181.795 129 184.98 140.68 188.39C140.68 165.985 141.155 143.625 141.155 121.25C141.155 118.86 140.425 115.47 141.155 113.21" stroke="#141822" stroke-miterlimit="10"/>
<path d="M43.4751 91.495C50.0401 91.085 56.6551 93.275 62.9301 94.5C73.7801 96.62 84.9451 98.425 96.0951 99.71C106.265 100.88 116.5 102.275 126.6 103C132.35 103.415 138.41 104.805 144.015 104.5C152.79 104.02 161.965 101.06 170.415 98.805C181.495 95.84 192.25 91.86 203.29 88.815C214.61 85.695 226.02 84.315 237.2 80.515C250.635 75.95 264.77 73.445 278.07 69.97C276.815 66.66 276.74 61.775 276.875 58.17C273.92 59.695 267.625 57.725 264.135 57.505C254.495 56.89 244.9 56.595 235.275 56.15C219.86 55.435 204.285 53.775 188.93 52.46C178.98 51.61 169.2 51.245 159.42 50.26C150.715 49.385 141.825 54.755 133.715 57.45C124.52 60.505 114.285 61.15 104.805 63.61C95.4751 66.03 86.7851 68.055 77.0651 68.995C64.8301 70.18 53.0051 72.605 41.7351 75.935C42.2701 80.815 44.2301 86.7 43.4851 91.505L43.4751 91.495Z" fill="#81D1DF"/>
<path d="M51.085 73.29C66.425 72.34 82.185 68.225 97.275 64.93C113.45 61.4 130.07 58.79 146.1 55.17C151.355 53.985 158.275 49.645 163.635 50.505C170 51.525 176.74 50.665 183.225 50.9C193.875 51.285 204.475 52.48 215.115 53.285C230.24 54.435 245.46 55.065 260.35 56.32C265.395 56.745 272 58.45 276.7 59.45C268.84 59.365 259.255 62.15 251.49 63.49C238.75 65.685 225.935 67.49 213.225 69.75C199.355 72.215 185.525 76.21 171.74 79.42C164.81 81.035 157.72 82.25 151 84.66C147.52 85.91 143.505 89.815 139.99 88.815C121.405 83.54 99.72 85.655 80.46 82.67C67.87 80.72 52.98 80.01 41.905 77.305" stroke="#141822" stroke-miterlimit="10"/>
<path d="M42.1599 80.61L42.9849 91.455C56.2849 94.37 69.7949 95.785 83.0599 98.315C97.1599 101.005 112.4 102.59 126.47 103.97C132.075 104.52 137.23 104.99 142.7 105.685C141.275 103.07 141.76 96.615 142.24 93.39" stroke="#141822" stroke-miterlimit="10"/>
<path d="M146.4 104.455C154.62 100.525 164.49 99.19 173.115 95.64C181.765 92.08 191.745 91.2 200.83 88.91C218.07 84.565 235.58 79.765 252.855 75.98C260.475 74.31 268.735 69.99 276.55 69.9C277.025 67.365 276.64 64.28 276.885 61.815" stroke="#141822" stroke-miterlimit="10"/>
<path d="M237.045 85.1C236.31 85.56 235.435 85.935 234.63 86.2" stroke="#141822" stroke-miterlimit="10"/>
</svg>
