<svg width="320" height="240" viewBox="0 0 320 240" fill="none" xmlns="http://www.w3.org/2000/svg">
<path d="M274.44 106.725C274.705 100.85 275.78 92.305 273.945 86.735C270.27 88.215 266.15 88.185 262.125 88.625C257.195 89.165 251.97 91.07 246.995 91.46C240.755 91.95 234.53 93.9 228.32 94.77C215.89 96.515 203.685 98.63 191.23 100.445C183.71 101.54 176.31 103.74 168.85 105.53C159.825 107.695 150.245 107.455 141.555 110.85C125.98 106.045 107.92 103.97 91.45 100.46C83.43 98.75 75.845 96.195 67.815 94.67C60.145 93.21 52.12 93.105 44.625 91.465C43.805 99.24 46.835 110.57 47.075 118.395C47.545 133.695 47.115 148.58 47.46 163.81C52.48 165.1 58.09 165.25 63.395 166.755C73.325 169.575 82.9 173.68 92.875 176.455C108.295 180.745 123.855 184.585 139.665 187.45C147.205 186.385 155.415 185.125 163.055 182.96C173.14 180.1 183.265 177.23 192.99 173.27C202.45 169.415 213.795 170.265 223.875 167.715C232.815 165.45 241.445 163.355 250.27 160.72C257.075 158.685 267.21 158.275 273.475 155.3C274.345 153.385 274.08 149.58 273.95 147.085C273.585 140.02 273.175 132.85 273.515 125.725C273.815 119.45 274.16 113.04 274.445 106.725H274.44ZM103.25 130.71C94.125 131.9 80.495 126.765 72.99 122.67V114.16C82.4 117.325 95.015 118.385 105.145 118.415C105.145 121.88 103.255 127.24 103.255 130.71H103.25Z" fill="#A99CCC"/>
<path d="M229.97 92.885C232.75 91.605 232.345 87.865 234.745 85.88C236.105 84.755 236.265 85.145 238.15 84.235C238.91 83.865 241.715 82.33 243.005 81.535C242.815 82.695 245.86 80.81 245.86 81.7C252.135 83.11 255.935 86.36 256.765 91.18C257.165 93.51 251.29 94.77 251.405 93.595C251.685 90.605 247.845 96.09 247.04 93.185C245.165 92.6 244.68 94.29 244.025 92.505C238.105 92.18 236.59 91.87 229.975 92.89L229.97 92.885Z" fill="#F6AF37"/>
<path d="M45.0901 95.245C47.7651 118.145 46.9801 142.51 46.9801 165.695C65.3401 171.29 85.0151 173.69 103.72 178.58C116.025 181.795 128.92 184.98 140.6 188.39C140.6 165.985 141.075 143.625 141.075 121.25C141.075 118.86 140.345 115.47 141.075 113.21" stroke="#141822" stroke-miterlimit="10"/>
<path d="M262.19 89.625C266.365 88.765 271.6 86.665 273.94 86.735C273.305 88.775 273.94 90.875 273.94 93.155C273.94 112.465 275.36 136.095 275.36 155.5C267.58 159.56 251.185 162.86 242.26 165.225C223.56 170.175 204.075 171.83 185.52 177.64C172.61 181.685 155.365 182.205 144.855 186.975" stroke="#141822" stroke-miterlimit="10"/>
<path d="M143.44 111.325C175.92 106.155 208.665 97.19 241.34 92.99C242.05 92.9 242.885 92.76 243.82 92.58" stroke="#141822" stroke-miterlimit="10"/>
<path d="M251.95 82.575C257.805 82.71 262.96 83.885 268.74 84.03" stroke="#F3E7D3" stroke-miterlimit="10"/>
<path d="M140.13 110.85C132.36 109.26 124.89 107.525 117.435 105.65" stroke="#141822" stroke-miterlimit="10"/>
<path d="M246.28 86.085C248.37 84.13 249.495 83.8 252.28 83.645" stroke="#141822" stroke-miterlimit="10"/>
<path d="M235.84 89.395C234.95 90.635 235.76 90.455 235.29 92.25" stroke="#141822" stroke-miterlimit="10"/>
<path d="M237.595 87.635C238.455 86.3 240.98 86.795 242.18 85.765" stroke="#141822" stroke-miterlimit="10"/>
<path d="M240.56 89.175C240.165 89.9 241.07 91.185 240.605 91.86" stroke="#141822" stroke-miterlimit="10"/>
<path d="M250.55 88.305C249.745 87.725 248.695 87.81 247.82 87.405" stroke="#141822" stroke-miterlimit="10"/>
<path d="M247.15 88.625C245.875 88.465 244.2 89.7751 242.98 90.1601" stroke="#141822" stroke-miterlimit="10"/>
<path d="M248.165 89.665C248.62 90.855 248.655 92.03 249.535 92.97" stroke="#141822" stroke-miterlimit="10"/>
<path d="M238.69 90.365C238.29 91.07 237.74 91.985 237.445 92.64" stroke="#141822" stroke-miterlimit="10"/>
<path d="M241.19 83.785C240.275 83.995 239.55 84.815 238.635 84.96" stroke="#141822" stroke-miterlimit="10"/>
<path d="M235.18 87.635C233.165 88.79 232.75 90.305 232.205 92.285" stroke="#141822" stroke-miterlimit="10"/>
<path d="M251.215 85.08C252.075 85.79 253.75 85.71 254.56 86.49" stroke="#141822" stroke-miterlimit="10"/>
<path d="M244.955 86.65C244.295 87.045 242.92 87.96 242.015 87.855" stroke="#141822" stroke-miterlimit="10"/>
<path d="M245.67 82.95C245.125 83.98 244.425 85.005 243.53 85.77" stroke="#141822" stroke-miterlimit="10"/>
<path d="M245.63 90.48C246.125 91.57 245.35 93.145 246.395 93.785" stroke="#141822" stroke-miterlimit="10"/>
<path d="M102.46 117.31C100.935 117.42 98.8401 116.625 97.1701 116.445C94.9351 116.2 92.6851 115.95 90.4851 115.735C86.7451 115.37 82.9901 114.935 79.3851 113.915C77.6101 113.415 75.6901 113.07 73.9351 112.74C71.7301 113.37 72.4501 120.835 72.5151 122.67C75.1751 124.825 79.1051 125.035 82.4851 125.63C87.7751 126.565 92.9201 127.6 98.2401 128.185C99.9701 128.375 101.76 128.56 103.405 128.975C105.57 126.735 104.98 123.56 104.98 120.62" stroke="#141822" stroke-miterlimit="10"/>
<path d="M252.2 88.405C252.355 89.215 253.635 90.425 254.285 90.93" stroke="#141822" stroke-miterlimit="10"/>
<path d="M250.46 90.7C250.85 90.935 251.5 91.21 251.81 91.535C252.19 91.93 252.205 92.43 252.435 92.925" stroke="#141822" stroke-miterlimit="10"/>
<path d="M246.79 82.465C247.49 81.965 248.31 81.615 249.095 81.475" stroke="#141822" stroke-miterlimit="10"/>
<path d="M242.835 83.6751C242.83 82.9051 242.315 82.3251 241.55 81.9301" stroke="#141822" stroke-miterlimit="10"/>
<path d="M43.205 90.165C49.78 89.885 56.345 92.205 62.595 93.555C73.4 95.89 84.53 97.92 95.65 99.425C105.795 100.8 116 102.395 126.08 103.325C131.82 103.855 137.85 105.365 143.46 105.17C152.24 104.865 161.475 102.09 169.965 100C181.1 97.26 191.93 93.495 203.035 90.67C214.415 87.775 225.85 86.625 237.105 83.0501C250.625 78.7551 264.81 76.535 278.175 73.325C276.99 69.99 277.005 65.105 277.215 61.505C274.23 62.97 267.975 60.875 264.49 60.585C254.865 59.78 245.28 59.29 235.66 58.65C220.265 57.625 204.72 55.655 189.4 54.035C179.47 52.985 169.7 52.425 159.94 51.245C151.255 50.195 142.255 55.385 134.095 57.915C124.84 60.785 114.595 61.225 105.065 63.495C95.685 65.73 86.96 67.58 77.22 68.325C64.965 69.265 53.09 71.455 41.76 74.555C42.195 79.445 44.04 85.37 43.2 90.155L43.205 90.165Z" fill="#81D1DF"/>
<path d="M51.1749 72.12C66.5349 71.475 82.3699 67.675 97.5249 64.685C113.77 61.48 130.44 59.2 146.535 55.905C151.815 54.825 158.815 50.625 164.16 51.59C170.505 52.735 177.26 52.015 183.74 52.38C194.38 52.98 204.955 54.385 215.575 55.405C230.675 56.855 245.88 57.795 260.74 59.345C265.775 59.87 272.345 61.71 277.025 62.8C269.17 62.56 259.53 65.15 251.74 66.335C238.955 68.275 226.11 69.825 213.355 71.83C199.44 74.015 185.535 77.735 171.685 80.67C164.725 82.145 157.61 83.215 150.845 85.495C147.34 86.675 143.25 90.495 139.755 89.43C121.28 83.785 99.5599 85.465 80.3599 82.1C67.8149 79.9 52.9349 78.89 41.9199 75.965" stroke="#141822" stroke-miterlimit="10"/>
<path d="M42.105 79.255C42.31 82.875 42.51 86.495 42.715 90.115C55.955 93.295 69.435 94.98 82.645 97.775C96.69 100.745 111.89 102.635 125.93 104.3C131.52 104.96 136.67 105.535 142.12 106.34C140.745 103.695 141.36 97.25 141.905 94.04" stroke="#141822" stroke-miterlimit="10"/>
<path d="M145.845 105.18C154.14 101.415 164.04 100.275 172.73 96.905C181.45 93.52 191.445 92.835 200.575 90.73C217.9 86.73 235.5 82.285 252.845 78.845C260.5 77.325 268.84 73.17 276.655 73.24C277.18 70.715 276.855 67.625 277.15 65.16" stroke="#141822" stroke-miterlimit="10"/>
</svg>
