<svg width="320" height="240" viewBox="0 0 320 240" fill="none" xmlns="http://www.w3.org/2000/svg">
<path d="M43.69 92.81C50.25 92.325 56.89 94.44 63.18 95.59C74.055 97.585 85.24 99.265 96.405 100.425C106.59 101.48 116.835 102.755 126.945 103.37C132.7 103.72 138.775 105.04 144.375 104.67C153.14 104.09 162.285 101.03 170.705 98.675C181.75 95.585 192.46 91.485 203.465 88.315C214.75 85.065 226.14 83.555 237.28 79.63C250.66 74.915 264.765 72.25 278.025 68.625C276.735 65.325 276.6 60.445 276.695 56.84C273.755 58.395 267.44 56.5 263.945 56.32C254.3 55.815 244.7 55.63 235.07 55.29C219.65 54.75 204.055 53.265 188.69 52.125C178.735 51.385 168.95 51.13 159.155 50.26C150.44 49.485 141.61 54.955 133.53 57.74C124.37 60.895 114.14 61.66 104.69 64.23C95.385 66.76 86.725 68.88 77.01 69.93C64.79 71.25 52.99 73.81 41.76 77.265C42.35 82.14 44.38 88.005 43.685 92.815L43.69 92.81Z" fill="#81D1DF"/>
<path d="M51.0951 74.525C66.4251 73.4 82.1351 69.105 97.1901 65.645C113.325 61.935 129.915 59.135 145.9 55.335C151.145 54.09 158.01 49.675 163.38 50.47C169.755 51.42 176.485 50.485 182.975 50.645C193.63 50.91 204.24 51.985 214.89 52.67C230.025 53.645 245.255 54.11 260.155 55.195C265.205 55.565 271.83 57.195 276.54 58.14C268.68 58.145 259.125 61.035 251.375 62.465C238.66 64.805 225.87 66.755 213.185 69.16C199.345 71.78 185.56 75.935 171.81 79.3C164.9 80.99 157.825 82.285 151.13 84.775C147.665 86.065 143.695 90.01 140.17 89.055C121.525 83.995 99.8701 86.35 80.5751 83.585C67.9651 81.78 53.0651 81.235 41.9651 78.655" stroke="#141822" stroke-miterlimit="10"/>
<path d="M42.25 81.945C42.565 85.555 42.88 89.17 43.195 92.78C56.525 95.545 70.05 96.805 83.345 99.185C97.475 101.715 112.73 103.13 126.815 104.35C132.425 104.835 137.585 105.245 143.06 105.885C141.605 103.285 142.02 96.825 142.46 93.595" stroke="#141822" stroke-miterlimit="10"/>
<path d="M146.755 104.605C154.93 100.58 164.785 99.135 173.365 95.49C181.975 91.835 191.945 90.835 201.005 88.445C218.195 83.905 235.65 78.91 252.88 74.925C260.48 73.17 268.69 68.755 276.505 68.575C276.95 66.035 276.53 62.955 276.745 60.485" stroke="#141822" stroke-miterlimit="10"/>
<path d="M274.52 106.725C274.785 100.85 275.86 92.305 274.025 86.735C270.35 88.215 266.23 88.185 262.205 88.625C257.275 89.165 252.05 91.07 247.075 91.46C240.835 91.95 234.61 93.9 228.4 94.77C215.97 96.515 203.765 98.63 191.31 100.445C183.79 101.54 176.39 103.74 168.93 105.53C159.905 107.695 150.325 107.455 141.635 110.85C126.06 106.045 108 103.97 91.5301 100.46C83.5101 98.75 75.9251 96.195 67.8951 94.67C60.2251 93.21 52.2001 93.105 44.7051 91.465C43.8851 99.24 46.9151 110.57 47.1551 118.395C47.6251 133.695 47.1951 148.58 47.5401 163.81C52.5601 165.1 58.1701 165.25 63.4751 166.755C73.4051 169.575 82.9801 173.68 92.9551 176.455C108.375 180.745 123.935 184.585 139.745 187.45C147.285 186.385 155.495 185.125 163.135 182.96C173.22 180.1 183.345 177.23 193.07 173.27C202.53 169.415 213.875 170.265 223.955 167.715C232.895 165.45 241.525 163.355 250.35 160.72C257.155 158.685 267.29 158.275 273.555 155.3C274.425 153.385 274.16 149.58 274.03 147.085C273.665 140.02 273.255 132.85 273.595 125.725C273.895 119.45 274.24 113.04 274.525 106.725H274.52ZM103.33 130.71C94.2051 131.9 80.5751 126.765 73.0701 122.67V114.16C82.4801 117.325 95.0951 118.385 105.225 118.415C105.225 121.88 103.335 127.24 103.335 130.71H103.33Z" fill="#A99CCC"/>
<path d="M230.05 92.885C232.83 91.605 233.655 87.69 236.055 85.705C237.415 84.58 236.37 83.765 238.25 82.85C239.01 82.48 241.79 82.33 243.08 81.53C242.89 82.69 245.935 80.805 245.935 81.695C258.175 79.115 258.84 106.62 257.05 118.165C256.515 121.615 256.75 123.31 257.9 126.275C256.395 129.785 255.595 130.72 255.43 131.05C254.615 131.195 253.115 130.45 252.135 130.225C251.875 130.12 248.595 130.8 248.595 130.8C246.17 129.385 246.555 128.265 246.595 125.495C244.015 124.18 244.515 118.325 245.675 116.19C244.02 114.415 244.425 111.805 243.925 109.58C246.15 107.715 245.335 107.61 245.6 105.99C245.76 105.015 245.13 102.825 245.24 101.65C245.52 98.66 245.065 97.295 244.26 94.39C242.385 93.805 244.755 94.275 244.1 92.495C238.18 92.17 236.665 91.86 230.05 92.88V92.885Z" fill="#F6AF37"/>
<path d="M45.1699 95.245C47.8449 118.145 47.0599 142.51 47.0599 165.695C65.4199 171.29 85.0949 173.69 103.8 178.58C116.105 181.795 129 184.98 140.68 188.39C140.68 165.985 141.155 143.625 141.155 121.25C141.155 118.86 140.425 115.47 141.155 113.21" stroke="#141822" stroke-miterlimit="10"/>
<path d="M262.27 89.625C266.445 88.765 271.68 86.665 274.02 86.735C273.385 88.775 274.02 90.875 274.02 93.155C274.02 112.465 275.44 136.095 275.44 155.5C267.66 159.56 251.265 162.86 242.34 165.225C223.64 170.175 204.155 171.83 185.6 177.64C172.69 181.685 155.445 182.205 144.935 186.975" stroke="#141822" stroke-miterlimit="10"/>
<path d="M143.52 111.325C176 106.155 208.745 97.19 241.42 92.99C242.13 92.9 242.965 92.76 243.9 92.58" stroke="#141822" stroke-miterlimit="10"/>
<path d="M252.03 82.575C257.885 82.71 263.04 83.885 268.82 84.03" stroke="#F3E7D3" stroke-miterlimit="10"/>
<path d="M140.21 110.85C132.44 109.26 124.97 107.525 117.515 105.65" stroke="#141822" stroke-miterlimit="10"/>
<path d="M248.965 84.845C251.675 83.925 252.835 84.095 255.435 85.1" stroke="#141822" stroke-miterlimit="10"/>
<path d="M237.865 86.64C236.975 87.88 236.105 89.515 235.635 91.31" stroke="#141822" stroke-miterlimit="10"/>
<path d="M247.2 111.37C246.745 113.6 246.29 115.835 245.835 118.065" stroke="#141822" stroke-miterlimit="10"/>
<path d="M250.66 119.115C250.41 120.295 250.68 121.725 250.625 122.955" stroke="#141822" stroke-miterlimit="10"/>
<path d="M253.215 114.395C253.035 115.82 251.995 118.68 252.995 119.925" stroke="#141822" stroke-miterlimit="10"/>
<path d="M255.6 110.37C256.7 111.055 257.14 112.415 257.93 113.36" stroke="#141822" stroke-miterlimit="10"/>
<path d="M238.635 89.08C239.495 87.745 241.065 86.8 242.26 85.77" stroke="#141822" stroke-miterlimit="10"/>
<path d="M256.035 116.53C256.645 117.075 257.355 117.675 257.87 118.35" stroke="#141822" stroke-miterlimit="10"/>
<path d="M255.65 117.67C255.485 118.555 255.24 119.405 255.16 120.31" stroke="#141822" stroke-miterlimit="10"/>
<path d="M253.48 122.47C252.925 123.72 252.805 125.31 252.99 126.645" stroke="#141822" stroke-miterlimit="10"/>
<path d="M248.19 125.06C248.11 126.59 247.995 128.21 248.74 129.61" stroke="#141822" stroke-miterlimit="10"/>
<path d="M247.66 121.015C246.95 121.89 246.21 122.78 245.595 123.72" stroke="#141822" stroke-miterlimit="10"/>
<path d="M241.95 89.65C241.555 90.375 241.155 91.18 240.69 91.855" stroke="#141822" stroke-miterlimit="10"/>
<path d="M247.94 87.13C248.595 88.185 249.87 89.03 249.99 90.28" stroke="#141822" stroke-miterlimit="10"/>
<path d="M256.205 123.275C255.495 125.26 254.975 127.295 254.38 129.315" stroke="#141822" stroke-miterlimit="10"/>
<path d="M258.09 123.615C257.99 124.55 257.79 126.21 258.62 126.815" stroke="#141822" stroke-miterlimit="10"/>
<path d="M253.095 86.215C252.13 85.965 251.185 86.425 250.225 86.37" stroke="#141822" stroke-miterlimit="10"/>
<path d="M247.53 89.93C246.255 89.77 244.905 89.91 243.685 90.295" stroke="#141822" stroke-miterlimit="10"/>
<path d="M249.965 115.525C249.34 116.63 249.21 117.785 249.045 119.065" stroke="#141822" stroke-miterlimit="10"/>
<path d="M245.645 94.04C244.41 95.255 244.045 97.28 244.19 98.87" stroke="#141822" stroke-miterlimit="10"/>
<path d="M238.77 90.365C238.37 91.07 237.82 91.985 237.525 92.64" stroke="#141822" stroke-miterlimit="10"/>
<path d="M241.27 83.785C240.355 83.995 239.63 84.815 238.715 84.96" stroke="#141822" stroke-miterlimit="10"/>
<path d="M234.69 88.385C232.675 89.54 232.83 90.305 232.29 92.285" stroke="#141822" stroke-miterlimit="10"/>
<path d="M256.845 87.38C256.93 88.49 257 89.57 257.005 90.69" stroke="#141822" stroke-miterlimit="10"/>
<path d="M244.625 87.375C243.965 87.77 243 87.955 242.09 87.85" stroke="#141822" stroke-miterlimit="10"/>
<path d="M256.36 94.65C256.91 96.17 259.025 100.855 257.465 102.06" stroke="#141822" stroke-miterlimit="10"/>
<path d="M245.75 82.95C245.205 83.98 244.505 85.005 243.61 85.77" stroke="#141822" stroke-miterlimit="10"/>
<path d="M250.845 93.52C251.1 94.855 251.76 96.23 252.735 97.145" stroke="#141822" stroke-miterlimit="10"/>
<path d="M245.8 91.34C246.565 92.26 246.985 94.315 248.165 94.65" stroke="#141822" stroke-miterlimit="10"/>
<path d="M250.91 108.655C251.43 109.84 251.635 111.3 252.355 112.33" stroke="#141822" stroke-miterlimit="10"/>
<path d="M253.53 109.105C253.775 110.215 254.04 111.615 254.855 112.45" stroke="#141822" stroke-miterlimit="10"/>
<path d="M249.36 110.845C249.485 111.95 249.55 113.11 249.575 114.21" stroke="#141822" stroke-miterlimit="10"/>
<path d="M102.54 117.31C101.015 117.42 98.9199 116.625 97.2499 116.445C95.0149 116.2 92.7649 115.95 90.5649 115.735C86.8249 115.37 83.0699 114.935 79.4649 113.915C77.6899 113.415 75.7699 113.07 74.0149 112.74C71.8099 113.37 72.5299 120.835 72.5949 122.67C75.2549 124.825 79.1849 125.035 82.5649 125.63C87.8549 126.565 92.9999 127.6 98.3199 128.185C100.05 128.375 101.84 128.56 103.485 128.975C105.65 126.735 105.06 123.56 105.06 120.62" stroke="#141822" stroke-miterlimit="10"/>
<path d="M247.1 97.64C247.105 99.425 247.38 100.84 247.76 102.47" stroke="#141822" stroke-miterlimit="10"/>
<path d="M250.17 98.955C250.76 100.56 251.03 102.635 252.365 103.785" stroke="#141822" stroke-miterlimit="10"/>
<path d="M255.04 101.465C255.29 102.575 255.24 103.93 255.92 104.76" stroke="#141822" stroke-miterlimit="10"/>
<path d="M253.385 105.055C254.115 106.365 255.445 106.99 256.46 107.91" stroke="#141822" stroke-miterlimit="10"/>
<path d="M255.225 97.2C255.31 98.17 255.49 99.06 255.445 100.055" stroke="#141822" stroke-miterlimit="10"/>
<path d="M245.48 102.03C245.1 102.92 244.89 103.99 244.6 104.885" stroke="#141822" stroke-miterlimit="10"/>
<path d="M248.8 103.265C248.505 104.735 248.115 105.93 246.605 106.56" stroke="#141822" stroke-miterlimit="10"/>
<path d="M250.03 105.265C249.77 106.74 249.405 108.095 248.71 109.435" stroke="#141822" stroke-miterlimit="10"/>
<path d="M245.155 110.815C244.785 111.81 243.94 112.455 243.3 113.24" stroke="#141822" stroke-miterlimit="10"/>
<path d="M245.92 108.84C245.72 109.165 245.41 109.325 245.04 109.28" stroke="#141822" stroke-miterlimit="10"/>
<path d="M253.46 89.545C253.615 90.355 253.795 91.76 254.45 92.265" stroke="#141822" stroke-miterlimit="10"/>
<path d="M252.06 92.595C252.78 93.37 253.095 94.285 254.12 94.735" stroke="#141822" stroke-miterlimit="10"/>
<path d="M257.08 92.345C257.47 92.58 258.12 92.855 258.43 93.18C258.81 93.575 258.825 94.075 259.055 94.57" stroke="#141822" stroke-miterlimit="10"/>
<path d="M246.87 82.465C247.57 81.965 248.39 81.615 249.175 81.475" stroke="#141822" stroke-miterlimit="10"/>
<path d="M242.915 83.675C242.91 82.905 242.805 81.765 242.035 81.37" stroke="#141822" stroke-miterlimit="10"/>
</svg>
