<svg width="320" height="240" viewBox="0 0 320 240" fill="none" xmlns="http://www.w3.org/2000/svg">
<path d="M43.4999 90.255C50.0699 89.915 56.6599 92.175 62.9249 93.465C73.7549 95.7 84.8999 97.625 96.0349 99.03C106.195 100.31 116.41 101.81 126.5 102.645C132.245 103.12 138.29 104.575 143.895 104.33C152.675 103.945 161.88 101.085 170.35 98.915C181.46 96.07 192.255 92.205 203.33 89.275C214.685 86.275 226.105 85.015 237.33 81.335C250.81 76.915 264.97 74.56 278.31 71.225C277.095 67.9 277.065 63.015 277.24 59.415C274.27 60.905 267.995 58.87 264.505 58.615C254.87 57.9 245.28 57.5 235.66 56.95C220.255 56.07 204.695 54.245 189.36 52.77C179.42 51.815 169.645 51.345 159.875 50.255C151.18 49.285 142.23 54.56 134.095 57.17C124.865 60.125 114.625 60.665 105.12 63.02C95.7649 65.345 87.0549 67.27 77.3199 68.11C65.0749 69.165 53.2199 71.465 41.9199 74.67C42.4049 79.555 44.2999 85.465 43.5049 90.26L43.4999 90.255Z" fill="#81D1DF"/>
<path d="M51.305 72.135C66.655 71.345 82.46 67.4 97.58 64.27C113.79 60.915 130.44 58.48 146.505 55.03C151.775 53.9 158.74 49.635 164.09 50.55C170.445 51.64 177.19 50.85 183.675 51.155C194.32 51.655 204.905 52.96 215.54 53.88C230.65 55.19 245.865 55.985 260.74 57.4C265.78 57.88 272.365 59.655 277.055 60.705C269.2 60.54 259.58 63.22 251.805 64.475C239.04 66.535 226.21 68.205 213.475 70.325C199.58 72.64 185.71 76.49 171.89 79.55C164.94 81.09 157.84 82.23 151.095 84.565C147.6 85.775 143.545 89.64 140.045 88.605C121.515 83.135 99.815 85.015 80.58 81.83C68.015 79.745 53.13 78.88 42.085 76.05" stroke="#141822" stroke-miterlimit="10"/>
<path d="M42.3 79.355C42.535 82.97 42.775 86.59 43.01 90.205C56.28 93.265 69.7701 94.82 83.0101 97.49C97.0801 100.33 112.3 102.08 126.355 103.61C131.955 104.22 137.105 104.745 142.565 105.5C141.165 102.865 141.725 96.42 142.235 93.2" stroke="#141822" stroke-miterlimit="10"/>
<path d="M146.275 104.31C154.535 100.465 164.42 99.235 173.08 95.785C181.77 92.32 191.76 91.54 200.865 89.35C218.15 85.19 235.71 80.575 253.025 76.975C260.665 75.385 268.97 71.155 276.785 71.145C277.285 68.615 276.935 65.525 277.205 63.06" stroke="#141822" stroke-miterlimit="10"/>
<path d="M274.625 106.725C274.89 100.85 275.965 92.305 274.13 86.735C270.455 88.215 266.335 88.185 262.31 88.625C257.38 89.165 252.155 91.07 247.18 91.46C240.94 91.95 234.715 93.9 228.505 94.77C216.075 96.515 203.87 98.63 191.415 100.445C183.895 101.54 176.495 103.74 169.035 105.53C160.01 107.695 150.43 107.455 141.74 110.85C126.165 106.045 108.105 103.97 91.635 100.46C83.615 98.75 76.03 96.195 68 94.67C60.33 93.21 52.305 93.105 44.81 91.465C43.99 99.24 47.02 110.57 47.26 118.395C47.73 133.695 47.3 148.58 47.645 163.81C52.665 165.1 58.275 165.25 63.58 166.755C73.51 169.575 83.085 173.68 93.06 176.455C108.48 180.745 124.04 184.585 139.85 187.45C147.39 186.385 155.6 185.125 163.24 182.96C173.325 180.1 183.45 177.23 193.175 173.27C202.635 169.415 213.98 170.265 224.06 167.715C233 165.45 241.63 163.355 250.455 160.72C257.26 158.685 267.395 158.275 273.66 155.3C274.53 153.385 274.265 149.58 274.135 147.085C273.77 140.02 273.36 132.85 273.7 125.725C274 119.45 274.345 113.04 274.63 106.725H274.625ZM103.435 130.71C94.31 131.9 80.68 126.765 73.1751 122.67V114.16C82.5851 117.325 95.2 118.385 105.33 118.415C105.33 121.88 103.44 127.24 103.44 130.71H103.435Z" fill="#A99CCC"/>
<path d="M230.155 92.885C232.935 91.605 233.76 87.69 236.16 85.705C237.52 84.58 236.475 83.765 238.355 82.85C239.115 82.48 241.895 82.33 243.185 81.53C242.995 82.69 246.04 80.805 246.04 81.695C258.28 79.115 258.945 106.62 257.155 118.165C256.62 121.615 255.655 118.38 255.49 118.71C254.675 118.855 252.845 119.43 251.865 119.205C251.605 119.1 247.71 119.335 247.75 116.57C245.17 115.255 246.44 112.205 245.94 109.98C248.165 108.115 245.44 107.615 245.7 106C245.86 105.025 245.23 102.835 245.34 101.66C245.62 98.67 245.165 97.305 244.36 94.4C242.485 93.815 244.855 94.285 244.2 92.505C238.28 92.18 236.765 91.87 230.15 92.89L230.155 92.885Z" fill="#F6AF37"/>
<path d="M45.2749 95.245C47.9499 118.145 47.1649 142.51 47.1649 165.695C65.5249 171.29 85.1999 173.69 103.905 178.58C116.21 181.795 129.105 184.98 140.785 188.39C140.785 165.985 141.26 143.625 141.26 121.25C141.26 118.86 140.53 115.47 141.26 113.21" stroke="#141822" stroke-miterlimit="10"/>
<path d="M262.375 89.625C266.55 88.765 271.785 86.665 274.125 86.735C273.49 88.775 274.125 90.875 274.125 93.155C274.125 112.465 275.545 136.095 275.545 155.5C267.765 159.56 251.37 162.86 242.445 165.225C223.745 170.175 204.26 171.83 185.705 177.64C172.795 181.685 155.55 182.205 145.04 186.975" stroke="#141822" stroke-miterlimit="10"/>
<path d="M143.625 111.325C176.105 106.155 208.85 97.19 241.525 92.99C242.235 92.9 243.07 92.76 244.005 92.58" stroke="#141822" stroke-miterlimit="10"/>
<path d="M252.135 82.575C257.99 82.71 263.145 83.885 268.925 84.03" stroke="#F3E7D3" stroke-miterlimit="10"/>
<path d="M140.315 110.85C132.545 109.26 125.075 107.525 117.62 105.65" stroke="#141822" stroke-miterlimit="10"/>
<path d="M249.065 84.845C251.775 83.925 252.935 84.095 255.535 85.1" stroke="#141822" stroke-miterlimit="10"/>
<path d="M237.97 86.64C237.08 87.88 236.21 89.515 235.74 91.31" stroke="#141822" stroke-miterlimit="10"/>
<path d="M247.305 100.665C246.85 102.895 246.395 105.13 245.94 107.36" stroke="#141822" stroke-miterlimit="10"/>
<path d="M250.765 108.41C250.515 109.59 250.785 111.02 250.73 112.25" stroke="#141822" stroke-miterlimit="10"/>
<path d="M253.415 102.905C253.21 104.535 252.12 107.815 253.1 109.22" stroke="#141822" stroke-miterlimit="10"/>
<path d="M256.035 97.685C257.34 98.71 257.965 100.56 258.935 101.9" stroke="#141822" stroke-miterlimit="10"/>
<path d="M238.74 89.08C239.6 87.745 241.17 86.8 242.365 85.77" stroke="#141822" stroke-miterlimit="10"/>
<path d="M256.305 104.01C256.915 104.555 257.625 105.155 258.14 105.83" stroke="#141822" stroke-miterlimit="10"/>
<path d="M255.48 106.945C255.5 107.845 255.435 108.725 255.54 109.63" stroke="#141822" stroke-miterlimit="10"/>
<path d="M253.585 111.765C253.03 113.015 252.91 114.605 253.095 115.94" stroke="#141822" stroke-miterlimit="10"/>
<path d="M248.295 114.355C248.215 115.885 248.1 117.505 248.845 118.905" stroke="#141822" stroke-miterlimit="10"/>
<path d="M247.765 110.31C247.055 111.185 246.315 112.075 245.7 113.015" stroke="#141822" stroke-miterlimit="10"/>
<path d="M242.055 89.65C241.66 90.375 241.26 91.18 240.795 91.855" stroke="#141822" stroke-miterlimit="10"/>
<path d="M248.045 87.13C248.7 88.185 249.975 89.03 250.095 90.28" stroke="#141822" stroke-miterlimit="10"/>
<path d="M256.305 112.57C255.595 114.555 255.075 116.59 254.48 118.61" stroke="#141822" stroke-miterlimit="10"/>
<path d="M258.195 112.91C258.095 113.845 257.895 115.505 258.725 116.11" stroke="#141822" stroke-miterlimit="10"/>
<path d="M253.195 86.215C252.23 85.965 251.285 86.425 250.325 86.37" stroke="#141822" stroke-miterlimit="10"/>
<path d="M247.635 89.93C246.36 89.77 245.01 89.91 243.79 90.295" stroke="#141822" stroke-miterlimit="10"/>
<path d="M250.07 104.82C249.445 105.925 249.315 107.08 249.15 108.36" stroke="#141822" stroke-miterlimit="10"/>
<path d="M238.875 90.365C238.475 91.07 237.925 91.985 237.63 92.64" stroke="#141822" stroke-miterlimit="10"/>
<path d="M241.375 83.785C240.46 83.995 239.735 84.815 238.82 84.96" stroke="#141822" stroke-miterlimit="10"/>
<path d="M234.79 88.385C232.775 89.54 232.93 90.305 232.39 92.285" stroke="#141822" stroke-miterlimit="10"/>
<path d="M256.95 87.38C257.035 88.49 257.105 89.57 257.11 90.69" stroke="#141822" stroke-miterlimit="10"/>
<path d="M244.73 87.375C244.07 87.77 243.105 87.955 242.195 87.85" stroke="#141822" stroke-miterlimit="10"/>
<path d="M245.855 82.95C245.31 83.98 244.61 85.005 243.715 85.77" stroke="#141822" stroke-miterlimit="10"/>
<path d="M245.39 91.465C246.155 92.385 246.575 94.44 247.755 94.775" stroke="#141822" stroke-miterlimit="10"/>
<path d="M250.62 95.865C250.895 97.13 250.81 98.6 251.31 99.755" stroke="#141822" stroke-miterlimit="10"/>
<path d="M253.635 98.4C253.88 99.51 254.145 100.91 254.96 101.745" stroke="#141822" stroke-miterlimit="10"/>
<path d="M249.465 100.14C249.59 101.245 249.655 102.405 249.68 103.505" stroke="#141822" stroke-miterlimit="10"/>
<path d="M102.645 117.31C101.12 117.42 99.0249 116.625 97.3549 116.445C95.1199 116.2 92.8699 115.95 90.6699 115.735C86.9299 115.37 83.1749 114.935 79.5699 113.915C77.7949 113.415 75.8749 113.07 74.1199 112.74C71.9149 113.37 72.6349 120.835 72.6999 122.67C75.3599 124.825 79.2899 125.035 82.6699 125.63C87.9599 126.565 93.1049 127.6 98.4249 128.185C100.155 128.375 101.945 128.56 103.59 128.975C105.755 126.735 105.165 123.56 105.165 120.62" stroke="#141822" stroke-miterlimit="10"/>
<path d="M245.26 100.105C244.855 101.37 243.99 102.22 243.32 103.225" stroke="#141822" stroke-miterlimit="10"/>
<path d="M247.545 96.68C246.615 97.26 245.2 97.55 243.495 97.465" stroke="#141822" stroke-miterlimit="10"/>
<path d="M253.56 89.545C253.715 90.355 253.895 91.76 254.55 92.265" stroke="#141822" stroke-miterlimit="10"/>
<path d="M252.16 92.595C252.88 93.37 253.195 94.285 254.22 94.735" stroke="#141822" stroke-miterlimit="10"/>
<path d="M257.185 92.345C257.575 92.58 258.225 92.855 258.535 93.18C258.915 93.575 258.93 94.075 259.16 94.57" stroke="#141822" stroke-miterlimit="10"/>
<path d="M246.975 82.465C247.675 81.965 248.495 81.615 249.28 81.475" stroke="#141822" stroke-miterlimit="10"/>
<path d="M243.02 83.675C243.015 82.905 242.91 81.765 242.14 81.37" stroke="#141822" stroke-miterlimit="10"/>
<path d="M248.63 92.575C249.095 93.15 249.38 93.8 250.055 94.22" stroke="#141822" stroke-miterlimit="10"/>
<path d="M251.265 116.515C251.305 117.61 251.54 118.915 251.925 119.92" stroke="#141822" stroke-miterlimit="10"/>
<path d="M257.195 109.045C257.93 109.37 258.56 109.835 259.39 109.925" stroke="#141822" stroke-miterlimit="10"/>
<path d="M246.435 114.315C246.12 114.545 245.73 114.665 245.335 114.645" stroke="#141822" stroke-miterlimit="10"/>
</svg>
