<svg width="320" height="240" viewBox="0 0 320 240" fill="none" xmlns="http://www.w3.org/2000/svg">
<path d="M274.44 106.725C274.705 100.85 275.78 92.305 273.945 86.735C270.27 88.215 266.15 88.185 262.125 88.625C257.195 89.165 251.97 91.07 246.995 91.46C240.755 91.95 234.53 93.9 228.32 94.77C215.89 96.515 203.685 98.63 191.23 100.445C183.71 101.54 176.31 103.74 168.85 105.53C159.825 107.695 150.245 107.455 141.555 110.85C125.98 106.045 107.92 103.97 91.45 100.46C83.43 98.75 75.845 96.195 67.815 94.67C60.145 93.21 52.12 93.105 44.625 91.465C43.805 99.24 46.835 110.57 47.075 118.395C47.545 133.695 47.115 148.58 47.46 163.81C52.48 165.1 58.09 165.25 63.395 166.755C73.325 169.575 82.9 173.68 92.875 176.455C108.295 180.745 123.855 184.585 139.665 187.45C147.205 186.385 155.415 185.125 163.055 182.96C173.14 180.1 183.265 177.23 192.99 173.27C202.45 169.415 213.795 170.265 223.875 167.715C232.815 165.45 241.445 163.355 250.27 160.72C257.075 158.685 267.21 158.275 273.475 155.3C274.345 153.385 274.08 149.58 273.95 147.085C273.585 140.02 273.175 132.85 273.515 125.725C273.815 119.45 274.16 113.04 274.445 106.725H274.44ZM103.25 130.71C94.125 131.9 80.495 126.765 72.99 122.67V114.16C82.4 117.325 95.015 118.385 105.145 118.415C105.145 121.88 103.255 127.24 103.255 130.71H103.25Z" fill="#A99CCC"/>
<path d="M45.0901 95.245C47.7651 118.145 46.9801 142.51 46.9801 165.695C65.3401 171.29 85.0151 173.69 103.72 178.58C116.025 181.795 128.92 184.98 140.6 188.39C140.6 165.985 141.075 143.625 141.075 121.25C141.075 118.86 140.345 115.47 141.075 113.21" stroke="#141822" stroke-miterlimit="10"/>
<path d="M262.19 89.625C266.365 88.765 271.6 86.665 273.94 86.735C273.305 88.775 273.94 90.875 273.94 93.155C273.94 112.465 275.36 136.095 275.36 155.5C267.58 159.56 251.185 162.86 242.26 165.225C223.56 170.175 204.075 171.83 185.52 177.64C172.61 181.685 155.365 182.205 144.855 186.975" stroke="#141822" stroke-miterlimit="10"/>
<path d="M143.44 111.325C175.92 106.155 208.665 97.19 241.34 92.99C242.05 92.9 242.885 92.76 243.82 92.58" stroke="#141822" stroke-miterlimit="10"/>
<path d="M140.13 110.85C132.36 109.26 124.89 107.525 117.435 105.65" stroke="#141822" stroke-miterlimit="10"/>
<path d="M102.46 117.31C100.935 117.42 98.8401 116.625 97.1701 116.445C94.9351 116.2 92.6851 115.95 90.4851 115.735C86.7451 115.37 82.9901 114.935 79.3851 113.915C77.6101 113.415 75.6901 113.07 73.9351 112.74C71.7301 113.37 72.4501 120.835 72.5151 122.67C75.1751 124.825 79.1051 125.035 82.4851 125.63C87.7751 126.565 92.9201 127.6 98.2401 128.185C99.9701 128.375 101.76 128.56 103.405 128.975C105.57 126.735 104.98 123.56 104.98 120.62" stroke="#141822" stroke-miterlimit="10"/>
<path d="M42.955 92.235C49.535 92.12 56.04 94.605 62.255 96.11C73 98.715 84.07 101.025 95.15 102.81C105.26 104.435 115.415 106.29 125.475 107.47C131.2 108.145 137.19 109.805 142.805 109.75C151.59 109.665 160.895 107.125 169.435 105.25C180.635 102.79 191.56 99.295 202.73 96.75C214.18 94.14 225.64 93.275 236.98 89.985C250.605 86.03 264.84 84.165 278.28 81.29C277.18 77.925 277.32 73.04 277.615 69.45C274.595 70.84 268.395 68.59 264.915 68.21C255.315 67.165 245.74 66.435 236.145 65.555C220.78 64.145 205.29 61.785 190.015 59.785C180.115 58.485 170.36 57.68 160.63 56.26C151.975 54.995 142.85 59.96 134.625 62.285C125.3 64.92 115.045 65.105 105.465 67.135C96.035 69.135 87.265 70.765 77.51 71.265C65.235 71.895 53.31 73.79 41.905 76.605C42.22 81.505 43.915 87.475 42.95 92.24L42.955 92.235Z" fill="#81D1DF"/>
<path d="M51.3749 74.395C66.7449 74.135 82.6749 70.735 97.8949 68.125C114.215 65.33 130.935 63.47 147.11 60.575C152.415 59.625 159.52 55.605 164.835 56.705C171.15 58.01 177.92 57.455 184.39 57.985C195.015 58.85 205.55 60.52 216.14 61.805C231.195 63.635 246.375 64.955 261.19 66.875C266.21 67.525 272.73 69.53 277.38 70.735C269.535 70.3 259.83 72.645 252.015 73.635C239.185 75.255 226.31 76.48 213.505 78.165C199.54 80 185.545 83.37 171.625 85.955C164.63 87.255 157.49 88.15 150.67 90.255C147.135 91.345 142.95 95.065 139.485 93.91C121.155 87.805 99.3999 88.94 80.2899 85.09C67.7999 82.575 52.9549 81.195 42.0149 77.99" stroke="#141822" stroke-miterlimit="10"/>
<path d="M42.125 81.3051C42.235 84.9301 42.35 88.5501 42.46 92.1751C55.615 95.6851 69.045 97.7051 82.19 100.83C96.155 104.15 111.305 106.425 125.3 108.435C130.875 109.235 136.005 109.94 141.435 110.88C140.13 108.2 140.905 101.775 141.53 98.5801" stroke="#141822" stroke-miterlimit="10"/>
<path d="M145.185 109.82C153.57 106.26 163.495 105.375 172.27 102.22C181.075 99.055 191.085 98.62 200.26 96.745C217.68 93.18 235.385 89.175 252.815 86.17C260.505 84.845 268.95 80.9 276.76 81.165C277.345 78.65 277.1 75.555 277.455 73.1" stroke="#141822" stroke-miterlimit="10"/>
</svg>
