<svg width="320" height="240" viewBox="0 0 320 240" fill="none" xmlns="http://www.w3.org/2000/svg">
<g clip-path="url(#clip0_2048_1270)">
<path d="M155.895 93.9251C155.18 93.8651 154.42 93.915 153.715 93.96C155.1 95.8 153.865 96.37 153.47 98.31C153.155 99.865 153.395 102.555 154.105 103.97C152.975 104.805 153.72 107.905 154.175 109.055C156.365 107.6 159.09 107.96 161.585 107.525C163.71 107.155 165.545 106.36 167.73 106.415C167.425 105.615 167.05 104.25 167.31 103.365C167.535 102.585 168.635 102.11 168.81 101.395C169.095 100.19 168.02 99.28 167.56 97.92C169.46 96.16 168.21 92.8801 169.41 90.635C170.085 89.3701 170.765 85.595 169.89 84.505C169.495 84.01 165.465 82.175 165.29 83.225C165.84 79.93 165.33 75.21 163.685 72.18C162.395 69.81 157.52 68.1 154.735 69.96C150.095 73.06 158.71 73.89 159.775 74.89C162.02 77.01 160.08 81.24 157.84 82.525C154.54 84.415 150.81 82.0051 147.225 82.2851C146.34 87.0401 152.2 88.445 154.99 89.765C154.81 91.165 155.955 91.825 156.045 93.31" fill="#F6AF37"/>
<path d="M181.32 74.5601C182.89 82.3451 181.815 91.5901 181.815 99.7601" stroke="#F3E7D3" stroke-miterlimit="10"/>
<path d="M274.52 106.725C274.785 100.85 275.86 92.305 274.025 86.735C270.35 88.215 266.23 88.185 262.205 88.625C257.275 89.165 252.05 91.07 247.075 91.46C240.835 91.95 234.61 93.9 228.4 94.77C215.97 96.515 203.765 98.63 191.31 100.445C183.79 101.54 176.39 103.74 168.93 105.53C159.905 107.695 150.325 107.455 141.635 110.85C126.06 106.045 108 103.97 91.5298 100.46C83.5098 98.75 75.9248 96.195 67.8948 94.67C60.2248 93.21 52.1998 93.105 44.7048 91.465C43.8848 99.24 46.9148 110.57 47.1548 118.395C47.6248 133.695 47.1948 148.58 47.5398 163.81C52.5598 165.1 58.1698 165.25 63.4748 166.755C73.4048 169.575 82.9798 173.68 92.9548 176.455C108.375 180.745 123.935 184.585 139.745 187.45C147.285 186.385 155.495 185.125 163.135 182.96C173.22 180.1 183.345 177.23 193.07 173.27C202.53 169.415 213.875 170.265 223.955 167.715C232.895 165.45 241.525 163.355 250.35 160.72C257.155 158.685 267.29 158.275 273.555 155.3C274.425 153.385 274.16 149.58 274.03 147.085C273.665 140.02 273.255 132.85 273.595 125.725C273.895 119.45 274.24 113.04 274.525 106.725H274.52ZM103.33 130.71C94.2048 131.9 80.5748 126.765 73.0698 122.67V114.16C82.4798 117.325 95.0948 118.385 105.225 118.415C105.225 121.88 103.335 127.24 103.335 130.71H103.33Z" fill="#A99CCC"/>
<path d="M230.05 92.885C232.83 91.605 235.355 88.855 237.755 86.87C239.115 85.745 238.825 84.78 240.705 83.87C241.465 83.5 243.45 83.925 244.74 83.125C244.55 84.285 245.265 85.21 245.265 86.1C263.7 75.24 258.84 106.63 257.055 118.17C256.52 121.62 255.64 126.385 259.1 129.505C257.595 133.015 257.945 134.505 259.1 137.505C258.285 137.65 261.86 140.02 261.145 140.2C261.62 140.74 257.895 141.39 258.6 142.005C257.525 144.16 256.695 144.955 255.6 147.005C254.115 145.78 251.45 145.78 251.6 143.505C250.235 143.47 252.08 142.23 251.1 142.005C250.84 141.9 248.375 141.48 248.1 141.505C248.195 138.55 246.865 137.27 247.6 134.505C245.175 133.09 246.56 128.27 246.6 125.505C244.02 124.19 244.52 118.335 245.68 116.2C244.025 114.425 244.43 111.815 243.93 109.59C246.155 107.725 245.34 107.62 245.605 106C245.765 105.025 245.135 102.835 245.245 101.66C245.525 98.67 245.07 97.305 244.265 94.4C242.39 93.815 244.76 94.285 244.105 92.505C238.185 92.18 236.67 91.87 230.055 92.89L230.05 92.885Z" fill="#F6AF37"/>
<path d="M45.1699 95.245C47.8449 118.145 47.0599 142.51 47.0599 165.695C65.4199 171.29 85.0949 173.69 103.8 178.58C116.105 181.795 129 184.98 140.68 188.39C140.68 165.985 141.155 143.625 141.155 121.25C141.155 118.86 140.425 115.47 141.155 113.21" stroke="#141822" stroke-miterlimit="10"/>
<path d="M262.27 89.625C266.445 88.765 271.68 86.665 274.02 86.735C273.385 88.775 274.02 90.875 274.02 93.155C274.02 112.465 275.44 136.095 275.44 155.5C267.66 159.56 251.265 162.86 242.34 165.225C223.64 170.175 204.155 171.83 185.6 177.64C172.69 181.685 155.445 182.205 144.935 186.975" stroke="#141822" stroke-miterlimit="10"/>
<path d="M143.52 111.325C176 106.155 208.745 97.19 241.42 92.99C242.13 92.9 242.965 92.76 243.9 92.58" stroke="#141822" stroke-miterlimit="10"/>
<path d="M140.21 110.85C132.44 109.26 124.97 107.525 117.515 105.65" stroke="#141822" stroke-miterlimit="10"/>
<path d="M248.965 84.845C251.675 83.925 255.35 84.785 257.95 85.79" stroke="#141822" stroke-miterlimit="10"/>
<path d="M239.415 86.105C237.905 87.485 236.43 89.305 235.63 91.305" stroke="#141822" stroke-miterlimit="10"/>
<path d="M248 126.525L246.995 134.5" stroke="#141822" stroke-miterlimit="10"/>
<path d="M256.18 87.6801C257 88.3101 257.99 88.8001 258.78 89.4701C259.57 90.1401 259.71 90.8651 260.28 91.6201" stroke="#141822" stroke-miterlimit="10"/>
<path d="M250.625 135.31C250.635 136.515 251.21 137.855 251.425 139.065" stroke="#141822" stroke-miterlimit="10"/>
<path d="M253.545 129.8C253.365 131.225 252.325 134.085 253.325 135.33" stroke="#141822" stroke-miterlimit="10"/>
<path d="M255.95 125.815C256.6 126.94 256.345 128.345 256.59 129.55" stroke="#141822" stroke-miterlimit="10"/>
<path d="M241.16 87.76C242.02 86.425 243.59 85.48 244.785 84.45" stroke="#141822" stroke-miterlimit="10"/>
<path d="M256.035 132.1C256.645 132.645 257.355 133.245 257.87 133.92" stroke="#141822" stroke-miterlimit="10"/>
<path d="M255.65 133.24C255.485 134.125 255.24 134.975 255.16 135.88" stroke="#141822" stroke-miterlimit="10"/>
<path d="M254.105 137.97C253.83 139.31 254.065 140.89 254.53 142.155" stroke="#141822" stroke-miterlimit="10"/>
<path d="M256.2 93.985C256.605 95.31 257.015 96.705 257.145 98.085" stroke="#141822" stroke-miterlimit="10"/>
<path d="M255.1 99.66C255.1 100.97 255.34 102.51 254.94 103.76" stroke="#141822" stroke-miterlimit="10"/>
<path d="M251.56 141.78C251.815 143.295 252.05 144.895 253.08 146.1" stroke="#141822" stroke-miterlimit="10"/>
<path d="M249.295 138.32C248.87 139.36 248.415 140.43 248.1 141.505" stroke="#141822" stroke-miterlimit="10"/>
<path d="M251.16 100.135C251.595 101.33 252.3 102.495 252.42 103.76" stroke="#141822" stroke-miterlimit="10"/>
<path d="M241.95 89.65C241.555 90.375 241.155 91.18 240.69 91.855" stroke="#141822" stroke-miterlimit="10"/>
<path d="M247.94 87.13C248.595 88.185 249.87 89.03 249.99 90.28" stroke="#141822" stroke-miterlimit="10"/>
<path d="M249.265 94.9301C249.305 96.3701 249.185 97.8651 248.635 99.1851" stroke="#141822" stroke-miterlimit="10"/>
<path d="M256.94 138.17C256.675 140.265 256.615 142.365 256.465 144.465" stroke="#141822" stroke-miterlimit="10"/>
<path d="M258.855 138.09C258.96 139.025 259.125 140.69 260.065 141.1" stroke="#141822" stroke-miterlimit="10"/>
<path d="M247.85 102.18C248.32 103.605 248.01 105.405 248.01 106.91" stroke="#141822" stroke-miterlimit="10"/>
<path d="M251.475 97.295C251.805 97.845 252.265 98.345 252.58 98.87" stroke="#141822" stroke-miterlimit="10"/>
<path d="M246.43 97.455C246.62 99.27 246.27 101.555 245.8 103.285" stroke="#141822" stroke-miterlimit="10"/>
<path d="M253.095 86.215C252.13 85.965 251.185 86.425 250.225 86.37" stroke="#141822" stroke-miterlimit="10"/>
<path d="M250.37 103.6C250.395 104.805 251.13 105.835 251 107.065" stroke="#141822" stroke-miterlimit="10"/>
<path d="M247.53 89.93C246.255 89.77 244.905 89.9099 243.685 90.2949" stroke="#141822" stroke-miterlimit="10"/>
<path d="M249.965 131.095C249.34 132.2 249.21 133.355 249.045 134.635" stroke="#141822" stroke-miterlimit="10"/>
<path d="M244.855 109.43C244.07 110.975 244.37 113.01 245.015 114.475" stroke="#141822" stroke-miterlimit="10"/>
<path d="M258.095 100.92C258.705 102.165 258.72 103.5 258.725 104.86" stroke="#141822" stroke-miterlimit="10"/>
<path d="M239.39 89.975C238.79 90.805 237.985 91.88 237.525 92.635" stroke="#141822" stroke-miterlimit="10"/>
<path d="M243.865 83.21C242.49 83.495 241.405 84.65 240.035 84.845" stroke="#141822" stroke-miterlimit="10"/>
<path d="M256.515 104.075C256.455 105.515 256.995 107.115 256.515 108.49" stroke="#141822" stroke-miterlimit="10"/>
<path d="M234.965 88.585C232.805 89.425 232.845 90.205 232.01 92.09" stroke="#141822" stroke-miterlimit="10"/>
<path d="M258.41 107.07C258.495 108.18 258.565 109.26 258.57 110.38" stroke="#141822" stroke-miterlimit="10"/>
<path d="M245.655 86.4351C245.27 87.0501 244.605 87.5851 243.915 87.8251" stroke="#141822" stroke-miterlimit="10"/>
<path d="M253.68 107.225C253.655 108.385 253.86 109.535 253.84 110.69" stroke="#141822" stroke-miterlimit="10"/>
<path d="M256.36 110.22C256.91 111.74 259.025 116.425 257.465 117.63" stroke="#141822" stroke-miterlimit="10"/>
<path d="M247.945 82.62C247.4 83.65 246.7 84.675 245.805 85.44" stroke="#141822" stroke-miterlimit="10"/>
<path d="M250.845 109.745C251.1 111.08 251.76 112.455 252.735 113.37" stroke="#141822" stroke-miterlimit="10"/>
<path d="M245.8 106.91C246.565 107.83 246.985 109.885 248.165 110.22" stroke="#141822" stroke-miterlimit="10"/>
<path d="M250.91 124.225C251.43 125.41 251.635 126.87 252.355 127.9" stroke="#141822" stroke-miterlimit="10"/>
<path d="M253.45 125.5C253.695 126.61 253.96 128.01 254.775 128.845" stroke="#141822" stroke-miterlimit="10"/>
<path d="M249.36 126.415C249.485 127.52 249.55 128.68 249.575 129.78" stroke="#141822" stroke-miterlimit="10"/>
<path d="M102.54 117.31C101.015 117.42 98.9202 116.625 97.2502 116.445C95.0152 116.2 92.7652 115.95 90.5652 115.735C86.8252 115.37 83.0702 114.935 79.4652 113.915C77.6902 113.415 75.7702 113.07 74.0152 112.74C71.8102 113.37 72.5302 120.835 72.5952 122.67C75.2552 124.825 79.1852 125.035 82.5652 125.63C87.8552 126.565 93.0002 127.6 98.3202 128.185C100.05 128.375 101.84 128.56 103.485 128.975C105.65 126.735 105.06 123.56 105.06 120.62" stroke="#141822" stroke-miterlimit="10"/>
<path d="M247.1 113.21C247.105 114.995 247.38 116.41 247.76 118.04" stroke="#141822" stroke-miterlimit="10"/>
<path d="M250.17 114.525C250.76 116.13 251.03 118.205 252.365 119.355" stroke="#141822" stroke-miterlimit="10"/>
<path d="M253.86 117.2C254.11 118.31 254.06 119.665 254.74 120.495" stroke="#141822" stroke-miterlimit="10"/>
<path d="M253.465 121.615C254.195 122.925 255.525 123.55 256.54 124.47" stroke="#141822" stroke-miterlimit="10"/>
<path d="M255.445 113.43C255.53 114.4 255.71 115.29 255.665 116.285" stroke="#141822" stroke-miterlimit="10"/>
<path d="M253.385 88.835C253.315 90.905 253.56 92.545 253.165 94.545" stroke="#141822" stroke-miterlimit="10"/>
<path d="M256.24 90.59C256.79 91.665 257.455 92.695 257.56 93.885" stroke="#141822" stroke-miterlimit="10"/>
<path d="M249.87 92.13C248.51 92.77 247.675 93.815 246.575 94.765" stroke="#141822" stroke-miterlimit="10"/>
<path d="M245.48 117.6C245.1 118.49 244.89 119.56 244.6 120.455" stroke="#141822" stroke-miterlimit="10"/>
<path d="M249.21 118.92C248.915 120.39 248.525 121.585 247.015 122.215" stroke="#141822" stroke-miterlimit="10"/>
<path d="M250.03 120.835C249.77 122.31 249.405 123.665 248.71 125.005" stroke="#141822" stroke-miterlimit="10"/>
<path d="M245.155 126.385C244.785 127.38 243.94 128.025 243.3 128.81" stroke="#141822" stroke-miterlimit="10"/>
<path d="M245.92 124.41C245.72 124.735 245.41 124.895 245.04 124.85" stroke="#141822" stroke-miterlimit="10"/>
<path d="M156.85 94.175C155.925 93.71 154.905 93.31 153.995 92.855" stroke="#141822" stroke-miterlimit="10"/>
<path d="M165.415 99.4449C166.575 99.9749 167.88 100.165 169.15 100.105" stroke="#141822" stroke-miterlimit="10"/>
<path d="M157.29 97.25C156.96 97.17 156.655 97.24 156.41 97.47" stroke="#141822" stroke-miterlimit="10"/>
<path d="M157.29 100.105C156.08 100.695 154.9 101.48 153.555 101.86" stroke="#141822" stroke-miterlimit="10"/>
<path d="M158.605 102.74C158.19 103.08 157.76 103.37 157.285 103.62" stroke="#141822" stroke-miterlimit="10"/>
<path d="M162.78 101.42C163.54 102.395 163.915 103.57 164.755 104.495" stroke="#141822" stroke-miterlimit="10"/>
<path d="M160.36 98.785C160.465 98.555 160.62 98.325 160.8 98.125" stroke="#141822" stroke-miterlimit="10"/>
<path d="M159.265 95.71V94.175" stroke="#141822" stroke-miterlimit="10"/>
<path d="M155.31 95.49H152.895" stroke="#141822" stroke-miterlimit="10"/>
<path d="M154.435 98.565C154.07 98.465 153.705 98.39 153.335 98.345" stroke="#141822" stroke-miterlimit="10"/>
<path d="M160.36 101.86C160.45 102.2 160.375 102.505 160.14 102.74" stroke="#141822" stroke-miterlimit="10"/>
<path d="M157.07 107.13C157.03 107.405 156.875 107.635 156.63 107.79" stroke="#141822" stroke-miterlimit="10"/>
<path d="M160.8 104.715C160.62 106.24 160.59 107.13 160.59 107.13" stroke="#141822" stroke-miterlimit="10"/>
<path d="M155.09 105.375C154.975 106.1 154.825 106.85 154.65 107.57" stroke="#141822" stroke-miterlimit="10"/>
<path d="M162.12 105.375C162.24 107.25 162.34 107.02 162.34 107.02" stroke="#141822" stroke-miterlimit="10"/>
<path d="M165.195 102.52C165.58 102.76 165.955 103.135 166.295 103.62" stroke="#141822" stroke-miterlimit="10"/>
<path d="M161.24 100.545C161.795 99.91 162.645 99.39 163.435 99.01" stroke="#141822" stroke-miterlimit="10"/>
<path d="M155.97 102.52C155.45 103.55 153.955 104.17 152.895 104.495" stroke="#141822" stroke-miterlimit="10"/>
<path d="M156.3 87.515C154.725 87.965 152.16 88.28 150.37 88.175" stroke="#141822" stroke-miterlimit="10"/>
<path d="M152.025 86.35C151.29 86.54 150.56 86.75 149.8 86.845" stroke="#141822" stroke-miterlimit="10"/>
<path d="M150.215 85.03C149.61 85.085 149.015 85.11 148.405 85.11" stroke="#141822" stroke-miterlimit="10"/>
<path d="M149.31 83.795C148.73 83.805 148.165 83.695 147.58 83.715" stroke="#141822" stroke-miterlimit="10"/>
<path d="M152.765 84.3749C151.87 83.6499 150.865 82.9399 149.885 82.3149" stroke="#141822" stroke-miterlimit="10"/>
<path d="M148.98 82.645C148.31 82.325 147.88 81.6 147.25 81.325" stroke="#141822" stroke-miterlimit="10"/>
<path d="M154.165 84.1251C153.845 83.6101 153.21 83.1101 153.01 82.5601" stroke="#141822" stroke-miterlimit="10"/>
<path d="M156.475 85.775C155.57 85.805 155.01 85.875 154.17 86.105" stroke="#141822" stroke-miterlimit="10"/>
<path d="M157.71 89.23C157.1 89.57 156.39 90.065 155.98 90.63" stroke="#141822" stroke-miterlimit="10"/>
<path d="M160.18 83.0551C159.67 83.5451 158.685 83.5801 158.04 83.3851" stroke="#141822" stroke-miterlimit="10"/>
<path d="M160.345 81.575C159.91 80.665 159.525 78.395 158.7 77.95" stroke="#141822" stroke-miterlimit="10"/>
<path d="M161.165 78.36C160.565 77.705 159.935 77.005 159.025 76.795" stroke="#141822" stroke-miterlimit="10"/>
<path d="M160.755 74.82C160.155 74.405 159.14 74.39 158.45 74.655" stroke="#141822" stroke-miterlimit="10"/>
<path d="M157.79 72.845C157.29 72.855 157.02 73.41 156.555 73.585" stroke="#141822" stroke-miterlimit="10"/>
<path d="M155.895 71.9399C155.34 72.0249 154.32 71.9499 153.92 72.1849" stroke="#141822" stroke-miterlimit="10"/>
<path d="M154.495 70.705C153.77 70.445 153.11 70.04 152.355 69.88" stroke="#141822" stroke-miterlimit="10"/>
<path d="M157.79 70.045C157.405 69.345 156.55 69.075 155.815 68.975" stroke="#141822" stroke-miterlimit="10"/>
<path d="M160.92 70.54C160.445 69.91 160.17 69.02 159.44 68.645" stroke="#141822" stroke-miterlimit="10"/>
<path d="M163.31 72.02C163.185 71.165 162.715 70.47 162.32 69.715" stroke="#141822" stroke-miterlimit="10"/>
<path d="M161.415 72.845C160.51 71.9 159.325 71.44 158.12 71.035" stroke="#141822" stroke-miterlimit="10"/>
<path d="M162.235 75.81C162.27 74.765 163.645 73.46 164.625 73.255" stroke="#141822" stroke-miterlimit="10"/>
<path d="M163.475 76.9601C163.745 76.4101 164.295 75.6051 164.955 75.5601" stroke="#141822" stroke-miterlimit="10"/>
<path d="M164.05 82.23C164.535 81.15 166.12 79.89 166.025 78.605" stroke="#141822" stroke-miterlimit="10"/>
<path d="M161.495 83.795C161.93 82.59 161.69 81.235 162.155 80.005" stroke="#141822" stroke-miterlimit="10"/>
<path d="M166.11 82.5601C167.01 82.8901 167.84 82.2751 168.195 83.4601C168.365 84.0401 168.225 85.1351 167.43 85.1101" stroke="#141822" stroke-miterlimit="10"/>
<path d="M170.06 84.045C170.115 85.38 169.97 86.09 169.235 87.255" stroke="#141822" stroke-miterlimit="10"/>
<path d="M167.835 87.83C168.11 88.52 168.29 89.27 168.575 89.97" stroke="#141822" stroke-miterlimit="10"/>
<path d="M166.435 89.5601C165.71 90.5851 164.465 91.5101 163.47 92.2801" stroke="#141822" stroke-miterlimit="10"/>
<path d="M162.895 90.55C162.345 91.15 161.63 91.605 161 92.115" stroke="#141822" stroke-miterlimit="10"/>
<path d="M160.755 89.315C160.1 89.125 159.435 88.94 158.78 88.74" stroke="#141822" stroke-miterlimit="10"/>
<path d="M162.155 87.5C161.5 87.415 160.665 86.935 160.095 86.595" stroke="#141822" stroke-miterlimit="10"/>
<path d="M165.035 86.43C163.58 86.23 162.06 85.19 160.59 85.195" stroke="#141822" stroke-miterlimit="10"/>
<path d="M165.45 84.785C165.41 84.73 165.355 84.7 165.285 84.705" stroke="#141822" stroke-miterlimit="10"/>
<path d="M166.85 86.845C165.89 87.31 164.58 87.505 163.72 88.08" stroke="#141822" stroke-miterlimit="10"/>
<path d="M170.965 89.8101C171.35 90.2551 171.7 90.7651 171.955 91.2901" stroke="#141822" stroke-miterlimit="10"/>
<path d="M170.145 92.03C170.31 92.995 170.58 94.205 170.31 95.16" stroke="#141822" stroke-miterlimit="10"/>
<path d="M168.745 94.42C168.44 95.295 168.16 96.285 167.51 96.975" stroke="#141822" stroke-miterlimit="10"/>
<path d="M164.71 95.985C164.21 96.275 163.64 96.42 163.145 96.725" stroke="#141822" stroke-miterlimit="10"/>
<path d="M165.2 93.35C164.36 93.72 163.225 93.685 162.32 93.68" stroke="#141822" stroke-miterlimit="10"/>
<path d="M167.26 92.9351C166.975 93.6751 166.62 94.4001 166.355 95.1601" stroke="#141822" stroke-miterlimit="10"/>
<path d="M169.4 90.63C169.265 90.81 169.08 91.02 168.905 91.205" stroke="#141822" stroke-miterlimit="10"/>
<path d="M168.2 74.23L180.66 72.145C186.515 72.28 263.04 83.89 268.82 84.03" stroke="#F3E7D3" stroke-miterlimit="10"/>
<path d="M46.4849 91.03C50.4399 91.36 55.4099 90.49 59.3849 89.985C64.0199 89.4 68.5949 88.61 73.1649 87.945C75.3949 87.62 122.65 81.205 124.78 80.605L132.19 79.36" stroke="#F3E7D3" stroke-miterlimit="10"/>
<path d="M142.465 77.825C145.255 84.755 152.29 80.03 152.46 74.67C152.655 68.625 147.345 67.065 142.99 70.99C135.775 67.7 123.725 67.975 115.635 65.73C117.31 67.85 117.995 70.6 118.75 73.05C120.205 72.1 121.395 70.365 123.01 69.47C123.375 70.935 123.985 72.835 124.54 74.25C125.435 74.07 128.8 72.47 129.425 72.68C131.31 73.31 130.4 75.025 131.94 75.95C134.745 77.635 138.84 79.365 142.46 77.83L142.465 77.825Z" fill="#F4EE77"/>
<path d="M141.615 77.59C143.98 83.665 152.48 81.94 154.03 77.66C156.34 71.275 147.27 66.765 143.545 71.555C137.325 69 129.55 68.35 122.855 67.19C120.475 66.78 118.16 66.06 115.84 66.295C118.105 67.915 119.485 69.23 120.05 71.71C121.005 70.745 122.62 70.375 123.91 69.955C123.815 71.175 124.28 72.36 124.61 73.46C125.69 72.89 126.915 72.14 128.115 72.055V75.21C129.195 74.655 130.67 73.105 131.62 72.305C133.48 72.465 133.825 74.995 135.12 76.255" stroke="#141822" stroke-miterlimit="10"/>
<path d="M148.105 75.06C144.75 74.215 145.215 78.17 148.455 77.515" stroke="#141822" stroke-miterlimit="10"/>
</g>
<defs>
<clipPath id="clip0_2048_1270">
<rect width="320" height="240" fill="white"/>
</clipPath>
</defs>
</svg>
