<svg width="320" height="240" viewBox="0 0 320 240" fill="none" xmlns="http://www.w3.org/2000/svg">
<g clip-path="url(#clip0_2048_1269)">
<path d="M155.895 82.205C155.18 82.145 154.42 82.195 153.715 82.24C155.1 84.08 153.865 84.6499 153.47 86.5899C153.155 88.1449 153.395 90.835 154.105 92.25C152.975 93.085 153.98 107.545 154.435 108.695C156.805 108 159.005 107.595 161.5 107.16C163.625 106.79 166.73 105.68 168.91 105.735C168.605 104.935 167.05 92.5299 167.31 91.645C167.535 90.865 168.635 90.39 168.81 89.675C169.095 88.47 168.02 87.5599 167.56 86.1999C169.46 84.4399 168.21 81.16 169.41 78.915C170.085 77.65 170.765 73.875 169.89 72.785C169.495 72.29 165.465 70.455 165.29 71.505C165.84 68.21 165.33 63.49 163.685 60.46C162.395 58.09 157.52 56.38 154.735 58.24C150.095 61.34 158.71 62.17 159.775 63.17C162.02 65.29 160.08 69.52 157.84 70.805C154.54 72.695 150.81 70.285 147.225 70.565C146.34 75.32 152.2 76.725 154.99 78.045C154.81 79.445 155.955 80.1049 156.045 81.5899" fill="#F6AF37"/>
<path d="M46.4849 91.03C50.4399 91.36 55.4099 90.49 59.3849 89.985C64.0199 89.4 68.5949 88.61 73.1649 87.945C75.3949 87.62 122.65 81.205 124.78 80.605L144.795 77.24" stroke="#F3E7D3" stroke-miterlimit="10"/>
<path d="M181.32 74.5601C182.89 82.3451 181.815 91.5901 181.815 99.7601" stroke="#F3E7D3" stroke-miterlimit="10"/>
<path d="M274.52 106.725C274.785 100.85 275.86 92.305 274.025 86.735C270.35 88.215 266.23 88.185 262.205 88.625C257.275 89.165 252.05 91.07 247.075 91.46C240.835 91.95 234.61 93.9 228.4 94.77C215.97 96.515 203.765 98.63 191.31 100.445C183.79 101.54 176.39 103.74 168.93 105.53C159.905 107.695 150.325 107.455 141.635 110.85C126.06 106.045 108 103.97 91.5298 100.46C83.5098 98.75 75.9248 96.195 67.8948 94.67C60.2248 93.21 52.1998 93.105 44.7048 91.465C43.8848 99.24 46.9148 110.57 47.1548 118.395C47.6248 133.695 47.1948 148.58 47.5398 163.81C52.5598 165.1 58.1698 165.25 63.4748 166.755C73.4048 169.575 82.9798 173.68 92.9548 176.455C108.375 180.745 123.935 184.585 139.745 187.45C147.285 186.385 155.495 185.125 163.135 182.96C173.22 180.1 183.345 177.23 193.07 173.27C202.53 169.415 213.875 170.265 223.955 167.715C232.895 165.45 241.525 163.355 250.35 160.72C257.155 158.685 267.29 158.275 273.555 155.3C274.425 153.385 274.16 149.58 274.03 147.085C273.665 140.02 273.255 132.85 273.595 125.725C273.895 119.45 274.24 113.04 274.525 106.725H274.52ZM103.33 130.71C94.2048 131.9 80.5748 126.765 73.0698 122.67V114.16C82.4798 117.325 95.0948 118.385 105.225 118.415C105.225 121.88 103.335 127.24 103.335 130.71H103.33Z" fill="#A99CCC"/>
<path d="M230.05 92.885C232.83 91.605 235.355 88.855 237.755 86.87C239.115 85.745 238.825 84.78 240.705 83.87C241.465 83.5 243.45 83.925 244.74 83.125C244.55 84.285 245.265 85.21 245.265 86.1C263.7 75.24 258.84 106.63 257.055 118.17C256.52 121.62 255.64 126.385 259.1 129.505C257.595 133.015 257.945 134.505 259.1 137.505C258.285 137.65 261.86 140.02 261.145 140.2C261.62 140.74 257.895 141.39 258.6 142.005C257.525 144.16 256.695 144.955 255.6 147.005C254.115 145.78 251.45 145.78 251.6 143.505C250.235 143.47 252.08 142.23 251.1 142.005C250.84 141.9 248.375 141.48 248.1 141.505C248.195 138.55 246.865 137.27 247.6 134.505C245.175 133.09 246.56 128.27 246.6 125.505C244.02 124.19 244.52 118.335 245.68 116.2C244.025 114.425 244.43 111.815 243.93 109.59C246.155 107.725 245.34 107.62 245.605 106C245.765 105.025 245.135 102.835 245.245 101.66C245.525 98.67 245.07 97.305 244.265 94.4C242.39 93.815 244.76 94.285 244.105 92.505C238.185 92.18 236.67 91.87 230.055 92.89L230.05 92.885Z" fill="#F6AF37"/>
<path d="M45.1699 95.245C47.8449 118.145 47.0599 142.51 47.0599 165.695C65.4199 171.29 85.0949 173.69 103.8 178.58C116.105 181.795 129 184.98 140.68 188.39C140.68 165.985 141.155 143.625 141.155 121.25C141.155 118.86 140.425 115.47 141.155 113.21" stroke="#141822" stroke-miterlimit="10"/>
<path d="M262.27 89.625C266.445 88.765 271.68 86.665 274.02 86.735C273.385 88.775 274.02 90.875 274.02 93.155C274.02 112.465 275.44 136.095 275.44 155.5C267.66 159.56 251.265 162.86 242.34 165.225C223.64 170.175 204.155 171.83 185.6 177.64C172.69 181.685 155.445 182.205 144.935 186.975" stroke="#141822" stroke-miterlimit="10"/>
<path d="M143.52 111.325C176 106.155 208.745 97.19 241.42 92.99C242.13 92.9 242.965 92.76 243.9 92.58" stroke="#141822" stroke-miterlimit="10"/>
<path d="M140.21 110.85C132.44 109.26 124.97 107.525 117.515 105.65" stroke="#141822" stroke-miterlimit="10"/>
<path d="M248.965 84.845C251.675 83.925 255.35 84.785 257.95 85.79" stroke="#141822" stroke-miterlimit="10"/>
<path d="M239.415 86.105C237.905 87.485 236.43 89.305 235.63 91.305" stroke="#141822" stroke-miterlimit="10"/>
<path d="M248 126.525L246.995 134.5" stroke="#141822" stroke-miterlimit="10"/>
<path d="M256.18 87.6801C257 88.3101 257.99 88.8001 258.78 89.4701C259.57 90.1401 259.71 90.8651 260.28 91.6201" stroke="#141822" stroke-miterlimit="10"/>
<path d="M250.625 135.31C250.635 136.515 251.21 137.855 251.425 139.065" stroke="#141822" stroke-miterlimit="10"/>
<path d="M253.545 129.8C253.365 131.225 252.325 134.085 253.325 135.33" stroke="#141822" stroke-miterlimit="10"/>
<path d="M255.95 125.815C256.6 126.94 256.345 128.345 256.59 129.55" stroke="#141822" stroke-miterlimit="10"/>
<path d="M241.16 87.76C242.02 86.425 243.59 85.48 244.785 84.45" stroke="#141822" stroke-miterlimit="10"/>
<path d="M256.035 132.1C256.645 132.645 257.355 133.245 257.87 133.92" stroke="#141822" stroke-miterlimit="10"/>
<path d="M255.65 133.24C255.485 134.125 255.24 134.975 255.16 135.88" stroke="#141822" stroke-miterlimit="10"/>
<path d="M254.105 137.97C253.83 139.31 254.065 140.89 254.53 142.155" stroke="#141822" stroke-miterlimit="10"/>
<path d="M256.2 93.985C256.605 95.31 257.015 96.705 257.145 98.085" stroke="#141822" stroke-miterlimit="10"/>
<path d="M255.1 99.66C255.1 100.97 255.34 102.51 254.94 103.76" stroke="#141822" stroke-miterlimit="10"/>
<path d="M251.56 141.78C251.815 143.295 252.05 144.895 253.08 146.1" stroke="#141822" stroke-miterlimit="10"/>
<path d="M249.295 138.32C248.87 139.36 248.415 140.43 248.1 141.505" stroke="#141822" stroke-miterlimit="10"/>
<path d="M251.16 100.135C251.595 101.33 252.3 102.495 252.42 103.76" stroke="#141822" stroke-miterlimit="10"/>
<path d="M241.95 89.65C241.555 90.375 241.155 91.18 240.69 91.855" stroke="#141822" stroke-miterlimit="10"/>
<path d="M247.94 87.13C248.595 88.185 249.87 89.03 249.99 90.28" stroke="#141822" stroke-miterlimit="10"/>
<path d="M249.265 94.9301C249.305 96.3701 249.185 97.8651 248.635 99.1851" stroke="#141822" stroke-miterlimit="10"/>
<path d="M256.94 138.17C256.675 140.265 256.615 142.365 256.465 144.465" stroke="#141822" stroke-miterlimit="10"/>
<path d="M258.855 138.09C258.96 139.025 259.125 140.69 260.065 141.1" stroke="#141822" stroke-miterlimit="10"/>
<path d="M247.85 102.18C248.32 103.605 248.01 105.405 248.01 106.91" stroke="#141822" stroke-miterlimit="10"/>
<path d="M251.475 97.295C251.805 97.845 252.265 98.345 252.58 98.87" stroke="#141822" stroke-miterlimit="10"/>
<path d="M246.43 97.455C246.62 99.27 246.27 101.555 245.8 103.285" stroke="#141822" stroke-miterlimit="10"/>
<path d="M253.095 86.215C252.13 85.965 251.185 86.425 250.225 86.37" stroke="#141822" stroke-miterlimit="10"/>
<path d="M250.37 103.6C250.395 104.805 251.13 105.835 251 107.065" stroke="#141822" stroke-miterlimit="10"/>
<path d="M247.53 89.93C246.255 89.77 244.905 89.9099 243.685 90.2949" stroke="#141822" stroke-miterlimit="10"/>
<path d="M249.965 131.095C249.34 132.2 249.21 133.355 249.045 134.635" stroke="#141822" stroke-miterlimit="10"/>
<path d="M244.855 109.43C244.07 110.975 244.37 113.01 245.015 114.475" stroke="#141822" stroke-miterlimit="10"/>
<path d="M258.095 100.92C258.705 102.165 258.72 103.5 258.725 104.86" stroke="#141822" stroke-miterlimit="10"/>
<path d="M239.39 89.975C238.79 90.805 237.985 91.88 237.525 92.635" stroke="#141822" stroke-miterlimit="10"/>
<path d="M243.865 83.21C242.49 83.495 241.405 84.65 240.035 84.845" stroke="#141822" stroke-miterlimit="10"/>
<path d="M256.515 104.075C256.455 105.515 256.995 107.115 256.515 108.49" stroke="#141822" stroke-miterlimit="10"/>
<path d="M234.965 88.585C232.805 89.425 232.845 90.205 232.01 92.09" stroke="#141822" stroke-miterlimit="10"/>
<path d="M258.41 107.07C258.495 108.18 258.565 109.26 258.57 110.38" stroke="#141822" stroke-miterlimit="10"/>
<path d="M245.655 86.4351C245.27 87.0501 244.605 87.5851 243.915 87.8251" stroke="#141822" stroke-miterlimit="10"/>
<path d="M253.68 107.225C253.655 108.385 253.86 109.535 253.84 110.69" stroke="#141822" stroke-miterlimit="10"/>
<path d="M256.36 110.22C256.91 111.74 259.025 116.425 257.465 117.63" stroke="#141822" stroke-miterlimit="10"/>
<path d="M247.945 82.62C247.4 83.65 246.7 84.675 245.805 85.44" stroke="#141822" stroke-miterlimit="10"/>
<path d="M250.845 109.745C251.1 111.08 251.76 112.455 252.735 113.37" stroke="#141822" stroke-miterlimit="10"/>
<path d="M245.8 106.91C246.565 107.83 246.985 109.885 248.165 110.22" stroke="#141822" stroke-miterlimit="10"/>
<path d="M250.91 124.225C251.43 125.41 251.635 126.87 252.355 127.9" stroke="#141822" stroke-miterlimit="10"/>
<path d="M253.45 125.5C253.695 126.61 253.96 128.01 254.775 128.845" stroke="#141822" stroke-miterlimit="10"/>
<path d="M249.36 126.415C249.485 127.52 249.55 128.68 249.575 129.78" stroke="#141822" stroke-miterlimit="10"/>
<path d="M102.54 117.31C101.015 117.42 98.9202 116.625 97.2502 116.445C95.0152 116.2 92.7652 115.95 90.5652 115.735C86.8252 115.37 83.0702 114.935 79.4652 113.915C77.6902 113.415 75.7702 113.07 74.0152 112.74C71.8102 113.37 72.5302 120.835 72.5952 122.67C75.2552 124.825 79.1852 125.035 82.5652 125.63C87.8552 126.565 93.0002 127.6 98.3202 128.185C100.05 128.375 101.84 128.56 103.485 128.975C105.65 126.735 105.06 123.56 105.06 120.62" stroke="#141822" stroke-miterlimit="10"/>
<path d="M247.1 113.21C247.105 114.995 247.38 116.41 247.76 118.04" stroke="#141822" stroke-miterlimit="10"/>
<path d="M250.17 114.525C250.76 116.13 251.03 118.205 252.365 119.355" stroke="#141822" stroke-miterlimit="10"/>
<path d="M253.86 117.2C254.11 118.31 254.06 119.665 254.74 120.495" stroke="#141822" stroke-miterlimit="10"/>
<path d="M253.465 121.615C254.195 122.925 255.525 123.55 256.54 124.47" stroke="#141822" stroke-miterlimit="10"/>
<path d="M255.445 113.43C255.53 114.4 255.71 115.29 255.665 116.285" stroke="#141822" stroke-miterlimit="10"/>
<path d="M253.385 88.835C253.315 90.905 253.56 92.545 253.165 94.545" stroke="#141822" stroke-miterlimit="10"/>
<path d="M256.24 90.59C256.79 91.665 257.455 92.695 257.56 93.885" stroke="#141822" stroke-miterlimit="10"/>
<path d="M249.87 92.13C248.51 92.77 247.675 93.815 246.575 94.765" stroke="#141822" stroke-miterlimit="10"/>
<path d="M245.48 117.6C245.1 118.49 244.89 119.56 244.6 120.455" stroke="#141822" stroke-miterlimit="10"/>
<path d="M249.21 118.92C248.915 120.39 248.525 121.585 247.015 122.215" stroke="#141822" stroke-miterlimit="10"/>
<path d="M250.03 120.835C249.77 122.31 249.405 123.665 248.71 125.005" stroke="#141822" stroke-miterlimit="10"/>
<path d="M245.155 126.385C244.785 127.38 243.94 128.025 243.3 128.81" stroke="#141822" stroke-miterlimit="10"/>
<path d="M245.92 124.41C245.72 124.735 245.41 124.895 245.04 124.85" stroke="#141822" stroke-miterlimit="10"/>
<path d="M156.85 82.455C155.925 81.99 154.905 81.59 153.995 81.135" stroke="#141822" stroke-miterlimit="10"/>
<path d="M165.415 87.725C166.575 88.255 167.88 88.445 169.15 88.385" stroke="#141822" stroke-miterlimit="10"/>
<path d="M157.29 85.525C156.96 85.445 156.655 85.515 156.41 85.745" stroke="#141822" stroke-miterlimit="10"/>
<path d="M157.29 88.38C156.08 88.97 154.9 89.755 153.555 90.135" stroke="#141822" stroke-miterlimit="10"/>
<path d="M158.605 91.015C158.19 91.355 157.76 91.645 157.285 91.895" stroke="#141822" stroke-miterlimit="10"/>
<path d="M162.78 89.7C163.54 90.675 163.915 91.85 164.755 92.775" stroke="#141822" stroke-miterlimit="10"/>
<path d="M160.36 87.065C160.465 86.835 160.62 86.605 160.8 86.405" stroke="#141822" stroke-miterlimit="10"/>
<path d="M159.265 83.99V82.455" stroke="#141822" stroke-miterlimit="10"/>
<path d="M155.31 83.77H152.895" stroke="#141822" stroke-miterlimit="10"/>
<path d="M154.435 86.845C154.07 86.745 153.705 86.67 153.335 86.625" stroke="#141822" stroke-miterlimit="10"/>
<path d="M160.36 90.14C160.45 90.48 160.375 90.785 160.14 91.02" stroke="#141822" stroke-miterlimit="10"/>
<path d="M157.07 95.41C157.03 95.685 156.875 95.915 156.63 96.07" stroke="#141822" stroke-miterlimit="10"/>
<path d="M160.8 92.995C160.62 94.52 160.405 96.07 160.36 97.605" stroke="#141822" stroke-miterlimit="10"/>
<path d="M155.09 93.65C154.975 94.375 154.825 95.125 154.65 95.845" stroke="#141822" stroke-miterlimit="10"/>
<path d="M162.12 93.65C162.24 95.525 162.795 97.915 163.655 99.58" stroke="#141822" stroke-miterlimit="10"/>
<path d="M164.315 94.09C164.36 94.83 164.51 95.575 164.755 96.285" stroke="#141822" stroke-miterlimit="10"/>
<path d="M165.195 90.795C165.58 91.035 165.955 91.41 166.295 91.895" stroke="#141822" stroke-miterlimit="10"/>
<path d="M158.605 96.505C158.34 96.93 157.96 97.685 157.725 98.26" stroke="#141822" stroke-miterlimit="10"/>
<path d="M155.75 98.265C155.445 99.18 155.095 100.25 154.215 100.68" stroke="#141822" stroke-miterlimit="10"/>
<path d="M160.36 100.24C160.25 101.275 160.305 102.395 160.8 103.315" stroke="#141822" stroke-miterlimit="10"/>
<path d="M157.29 101.12C157.2 101.565 156.99 101.935 156.63 102.22" stroke="#141822" stroke-miterlimit="10"/>
<path d="M161.9 100.68C162.39 101.22 162.935 101.845 163.435 102.435" stroke="#141822" stroke-miterlimit="10"/>
<path d="M165.63 97.165C166.405 98.67 166.965 100.395 167.605 101.995" stroke="#141822" stroke-miterlimit="10"/>
<path d="M161.24 88.82C161.795 88.185 162.645 87.665 163.435 87.285" stroke="#141822" stroke-miterlimit="10"/>
<path d="M155.97 90.795C155.45 91.825 153.955 92.445 152.895 92.77" stroke="#141822" stroke-miterlimit="10"/>
<path d="M158.165 102.215C158.275 103.11 158.015 104.08 157.725 104.85" stroke="#141822" stroke-miterlimit="10"/>
<path d="M164.315 101.12C164.405 102.4 164.625 103.785 165.415 104.855" stroke="#141822" stroke-miterlimit="10"/>
<path d="M161.9 104.41V105.51" stroke="#141822" stroke-miterlimit="10"/>
<path d="M154.655 102.655C154.59 103.395 154.185 104.04 153.555 104.41" stroke="#141822" stroke-miterlimit="10"/>
<path d="M155.53 104.85C155.2 105.825 154.795 106.865 153.995 107.485" stroke="#141822" stroke-miterlimit="10"/>
<path d="M163.215 106.17C163.135 106.845 163.215 107.51 163.435 108.145" stroke="#141822" stroke-miterlimit="10"/>
<path d="M165.85 102.875C166.215 103.83 167.065 104.585 167.385 105.51" stroke="#141822" stroke-miterlimit="10"/>
<path d="M158.825 105.73C158.5 106.67 158.34 107.77 157.725 108.365" stroke="#141822" stroke-miterlimit="10"/>
<path d="M156.3 75.79C154.725 76.24 152.16 76.555 150.37 76.45" stroke="#141822" stroke-miterlimit="10"/>
<path d="M152.025 74.625C151.29 74.815 150.56 75.025 149.8 75.12" stroke="#141822" stroke-miterlimit="10"/>
<path d="M150.215 73.3101C149.61 73.3651 149.015 73.3901 148.405 73.3901" stroke="#141822" stroke-miterlimit="10"/>
<path d="M149.31 72.075C148.73 72.085 148.165 71.975 147.58 71.995" stroke="#141822" stroke-miterlimit="10"/>
<path d="M152.765 72.65C151.87 71.925 150.865 71.215 149.885 70.59" stroke="#141822" stroke-miterlimit="10"/>
<path d="M148.98 70.92C148.31 70.6 147.88 69.875 147.25 69.6" stroke="#141822" stroke-miterlimit="10"/>
<path d="M154.165 72.405C153.845 71.89 153.21 71.39 153.01 70.84" stroke="#141822" stroke-miterlimit="10"/>
<path d="M156.475 74.05C155.57 74.08 155.01 74.15 154.17 74.38" stroke="#141822" stroke-miterlimit="10"/>
<path d="M157.71 77.51C157.1 77.85 156.39 78.345 155.98 78.91" stroke="#141822" stroke-miterlimit="10"/>
<path d="M160.18 71.335C159.67 71.825 158.685 71.86 158.04 71.665" stroke="#141822" stroke-miterlimit="10"/>
<path d="M160.345 69.85C159.91 68.94 159.525 66.67 158.7 66.225" stroke="#141822" stroke-miterlimit="10"/>
<path d="M161.165 66.64C160.565 65.985 159.935 65.285 159.025 65.075" stroke="#141822" stroke-miterlimit="10"/>
<path d="M160.755 63.1001C160.155 62.6851 159.14 62.6701 158.45 62.9351" stroke="#141822" stroke-miterlimit="10"/>
<path d="M157.79 61.12C157.29 61.13 157.02 61.685 156.555 61.86" stroke="#141822" stroke-miterlimit="10"/>
<path d="M155.895 60.215C155.34 60.3 154.32 60.225 153.92 60.46" stroke="#141822" stroke-miterlimit="10"/>
<path d="M154.495 58.98C153.77 58.72 153.11 58.315 152.355 58.155" stroke="#141822" stroke-miterlimit="10"/>
<path d="M157.79 58.32C157.405 57.62 156.55 57.35 155.815 57.25" stroke="#141822" stroke-miterlimit="10"/>
<path d="M160.92 58.815C160.445 58.185 160.17 57.295 159.44 56.92" stroke="#141822" stroke-miterlimit="10"/>
<path d="M163.31 60.3C163.185 59.445 162.715 58.75 162.32 57.995" stroke="#141822" stroke-miterlimit="10"/>
<path d="M161.415 61.1201C160.51 60.1751 159.325 59.7151 158.12 59.3101" stroke="#141822" stroke-miterlimit="10"/>
<path d="M162.235 64.085C162.27 63.04 163.645 61.735 164.625 61.53" stroke="#141822" stroke-miterlimit="10"/>
<path d="M163.475 65.24C163.745 64.69 164.295 63.885 164.955 63.84" stroke="#141822" stroke-miterlimit="10"/>
<path d="M164.05 70.51C164.535 69.43 166.12 68.17 166.025 66.885" stroke="#141822" stroke-miterlimit="10"/>
<path d="M161.495 72.075C161.93 70.87 161.69 69.515 162.155 68.285" stroke="#141822" stroke-miterlimit="10"/>
<path d="M166.11 70.84C167.01 71.17 167.84 70.555 168.195 71.74C168.365 72.32 168.225 73.415 167.43 73.39" stroke="#141822" stroke-miterlimit="10"/>
<path d="M170.06 72.3199C170.115 73.6549 169.97 74.3649 169.235 75.5299" stroke="#141822" stroke-miterlimit="10"/>
<path d="M167.835 76.11C168.11 76.8 168.29 77.55 168.575 78.25" stroke="#141822" stroke-miterlimit="10"/>
<path d="M166.435 77.84C165.71 78.865 164.465 79.79 163.47 80.56" stroke="#141822" stroke-miterlimit="10"/>
<path d="M162.895 78.825C162.345 79.425 161.63 79.88 161 80.39" stroke="#141822" stroke-miterlimit="10"/>
<path d="M160.755 77.59C160.1 77.4 159.435 77.215 158.78 77.015" stroke="#141822" stroke-miterlimit="10"/>
<path d="M162.155 75.78C161.5 75.695 160.665 75.215 160.095 74.875" stroke="#141822" stroke-miterlimit="10"/>
<path d="M165.035 74.71C163.58 74.51 162.06 73.47 160.59 73.475" stroke="#141822" stroke-miterlimit="10"/>
<path d="M165.45 73.06C165.41 73.005 165.355 72.975 165.285 72.98" stroke="#141822" stroke-miterlimit="10"/>
<path d="M166.85 75.12C165.89 75.585 164.58 75.78 163.72 76.355" stroke="#141822" stroke-miterlimit="10"/>
<path d="M170.965 78.085C171.35 78.53 171.7 79.04 171.955 79.565" stroke="#141822" stroke-miterlimit="10"/>
<path d="M170.145 80.3101C170.31 81.2751 170.58 82.4851 170.31 83.4401" stroke="#141822" stroke-miterlimit="10"/>
<path d="M168.745 82.6949C168.44 83.5699 168.16 84.5599 167.51 85.2499" stroke="#141822" stroke-miterlimit="10"/>
<path d="M164.71 84.26C164.21 84.55 163.64 84.695 163.145 85" stroke="#141822" stroke-miterlimit="10"/>
<path d="M165.2 81.625C164.36 81.995 163.225 81.96 162.32 81.955" stroke="#141822" stroke-miterlimit="10"/>
<path d="M167.26 81.215C166.975 81.955 166.62 82.68 166.355 83.44" stroke="#141822" stroke-miterlimit="10"/>
<path d="M169.4 78.91C169.265 79.09 169.08 79.3 168.905 79.485" stroke="#141822" stroke-miterlimit="10"/>
<path d="M175.18 73.06L180.66 72.14C186.515 72.275 263.04 83.885 268.82 84.025" stroke="#F3E7D3" stroke-miterlimit="10"/>
<path d="M142.19 65.825C144.98 72.755 152.015 68.03 152.185 62.67C152.38 56.625 147.07 55.065 142.715 58.99C135.5 55.7 123.45 55.975 115.36 53.73C117.035 55.85 117.72 58.6 118.475 61.05C119.93 60.1 121.12 58.365 122.735 57.47C123.1 58.935 123.71 60.835 124.265 62.25C125.16 62.07 128.525 60.47 129.15 60.68C131.035 61.31 130.125 63.025 131.665 63.95C134.47 65.635 138.565 67.365 142.185 65.83L142.19 65.825Z" fill="#F4EE77"/>
<path d="M141.345 65.585C143.71 71.66 152.21 69.935 153.76 65.655C156.07 59.27 147 54.76 143.275 59.55C137.055 56.995 129.28 56.345 122.585 55.185C120.205 54.775 117.89 54.055 115.57 54.29C117.835 55.91 119.215 57.225 119.78 59.705C120.735 58.74 122.35 58.37 123.64 57.95C123.545 59.17 124.01 60.355 124.34 61.455C125.42 60.885 126.645 60.135 127.845 60.05V63.205C128.925 62.65 130.4 61.1 131.35 60.3C133.21 60.46 133.555 62.99 134.85 64.25" stroke="#141822" stroke-miterlimit="10"/>
<path d="M147.83 63.06C144.475 62.215 144.94 66.17 148.18 65.515" stroke="#141822" stroke-miterlimit="10"/>
</g>
<defs>
<clipPath id="clip0_2048_1269">
<rect width="320" height="240" fill="white"/>
</clipPath>
</defs>
</svg>
