<svg width="320" height="240" viewBox="0 0 320 240" fill="none" xmlns="http://www.w3.org/2000/svg">
<path d="M71.1948 51.18C70.5348 52.79 69.1248 53.92 68.1948 55.305C70.6498 56.615 75.3548 57.31 78.1648 57.34C75.5048 56.02 73.2398 54.045 71.1948 51.18Z" fill="#81D1DF"/>
<path d="M91.1801 58.43C85.0751 60.515 78.9301 62.05 72.7451 63.74C73.1701 65.735 73.7851 67.84 74.0651 69.93C74.1751 70.74 73.8251 73.915 74.2601 74.485C75.0201 75.48 79.3551 75.47 80.4201 75.625C83.8001 76.12 87.3551 76.045 90.6801 76.8C90.9001 73.17 88.5451 68.735 89.1251 65.26C89.5301 62.83 91.7951 60.77 91.1751 58.43H91.1801Z" fill="#81D1DF"/>
<path d="M54.0701 58.65C54.3301 60.625 54.8651 62.6 54.9201 64.545C50.6351 65.015 45.0801 63.44 40.9301 64.82C40.7601 67.745 40.9951 70.995 40.2051 73.765C39.9101 73.935 39.0151 74.24 38.6851 74.28C37.8151 71.965 38.2751 68.9 38.2601 66.33C38.2451 63.96 39.0301 63.435 40.4601 61.225C42.0451 58.78 42.8201 59.13 46.0651 59.29C48.4301 59.405 50.7251 59.175 54.0701 58.65Z" fill="#81D1DF"/>
<path d="M97.55 36.91C96.915 38.685 96.895 42.195 97.19 44.11C98.71 42.71 105.41 40.44 105.045 38.26C107.9 37.57 110.09 37.725 112.64 36.3C110.41 35.59 108.835 34.535 106.89 34.8C104.465 35.13 101.975 36.175 97.55 36.91Z" fill="#81D1DF"/>
<path d="M138.83 19.78C143.245 23.55 148.97 23.47 154.86 23.035C153.76 21.56 152.935 19.755 151.575 18.33C148.595 19.99 143.76 19.34 138.83 19.78Z" fill="#81D1DF"/>
<path d="M137.075 43.275C135.32 45.21 133.065 46.985 131.215 48.725C134.39 48.94 137.615 48.645 140.805 48.955C141.95 49.065 143.05 49.365 144.065 48.935C144.235 46.895 145.01 44.68 144.735 42.645C142.495 42.52 140.21 42.61 137.075 43.27V43.275Z" fill="#81D1DF"/>
<path d="M185.165 22.415C187.125 24.565 189.415 26.975 191.125 29.43C195.935 26.33 199.04 23.06 198.56 17.175C194.68 16.96 190.895 17.62 187.165 17.85C187.9 19.24 188.96 20.585 189.695 21.985C188.28 22.22 186.815 22.56 185.17 22.415H185.165Z" fill="#81D1DF"/>
<path d="M130.49 70.285C134.795 70.28 139.14 69.83 143.43 70.105C140.76 76.205 141.93 82.79 141 89.305C137.905 88.445 134.66 88.085 131.555 87.25C130.665 87.01 128.43 86.73 128.055 86.105C126.96 84.27 129.12 77.78 129.385 75.555C129.565 74.025 130.21 72.85 130.485 70.285H130.49Z" fill="#81D1DF"/>
<path d="M174.405 69.63C172.735 72.465 169.545 71.415 167.455 73.145C170.04 74.265 172.65 76.01 175.47 76.195C175.495 73.71 176.97 71.275 176.57 68.825C176.25 69.135 175.82 69.175 175.505 69.41C175.14 69.69 174.855 69.465 174.405 69.63Z" fill="#81D1DF"/>
<path d="M167.82 36.91C167.335 38.84 167.27 40.9 166.725 42.825C168.845 42.685 171.04 42.465 173.175 42.275C176.22 42 181.515 42.48 184.35 41.3C186.2 40.53 185.78 38.965 186.48 36.94C182.07 36.93 177.7 36.285 173.295 36.705C171.71 36.855 170.06 37.18 167.82 36.915V36.91Z" fill="#81D1DF"/>
<path d="M199.88 48.11C199.98 52.59 199.74 57.185 199.645 61.68C201.4 58.795 204.825 57.055 206.605 54.41C207.64 52.87 207.55 50.83 206.91 49.005C204.63 49.32 202.375 49.21 199.88 48.11Z" fill="#81D1DF"/>
<path d="M208.005 31.64C207.97 32.755 207.38 34.465 207.8 35.575C208.6 37.68 210.885 38.81 211.525 41.27C211.55 38.96 211.315 33.82 208 31.64H208.005Z" fill="#81D1DF"/>
<path d="M215.25 23.515C217.69 20.37 222.18 18.99 225.35 16.925C228.75 18.21 233.14 17.885 236.75 18.265C238.675 18.47 240.58 18.91 242.48 19.12C238.71 19.03 235.045 20.335 231.5 21.095V29C230.085 27.48 227.84 26.295 226.23 25.045C223.26 22.745 219.025 23.51 215.25 23.51V23.515Z" fill="#81D1DF"/>
<path d="M231.065 36.03C231.255 39.105 230.32 42.16 230.405 45.255C233.58 45.12 238.005 46.14 240.945 47.23C241.11 44.08 243.13 39.875 241.785 37.085C241.115 35.69 239.095 33.935 237.87 32.955C235.35 34.025 233.395 34.81 231.065 36.03Z" fill="#81D1DF"/>
<path d="M254.34 27.025C258.86 28.825 263.705 31.4 268.835 30.98C269.45 32.875 269.275 35.3 269.275 37.35C270.965 35.625 274.99 34.6 277.4 34.085C278.87 33.77 280.895 33.845 281.795 32.52C279.635 30.745 276.35 30.095 273.89 28.785C272.495 28.045 271.005 26.94 269.38 26.585C265.505 25.745 258.315 27.15 254.345 27.025H254.34Z" fill="#81D1DF"/>
<path d="M274.52 106.725C274.785 100.85 275.86 92.305 274.025 86.735C270.35 88.215 266.23 88.185 262.205 88.625C257.275 89.165 252.05 91.07 247.075 91.46C240.835 91.95 234.61 93.9 228.4 94.77C215.97 96.515 203.765 98.63 191.31 100.445C183.79 101.54 176.39 103.74 168.93 105.53C159.905 107.695 150.325 107.455 141.635 110.85C126.06 106.045 108 103.97 91.5298 100.46C83.5098 98.75 75.9248 96.195 67.8948 94.67C60.2248 93.21 52.1998 93.105 44.7048 91.465C43.8848 99.24 46.9148 110.57 47.1548 118.395C47.6248 133.695 47.1948 148.58 47.5398 163.81C52.5598 165.1 58.1698 165.25 63.4748 166.755C73.4048 169.575 82.9798 173.68 92.9548 176.455C108.375 180.745 123.935 184.585 139.745 187.45C147.285 186.385 155.495 185.125 163.135 182.96C173.22 180.1 183.345 177.23 193.07 173.27C202.53 169.415 213.875 170.265 223.955 167.715C232.895 165.45 241.525 163.355 250.35 160.72C257.155 158.685 267.29 158.275 273.555 155.3C274.425 153.385 274.16 149.58 274.03 147.085C273.665 140.02 273.255 132.85 273.595 125.725C273.895 119.45 274.24 113.04 274.525 106.725H274.52ZM103.33 130.71C94.2048 131.9 80.5748 126.765 73.0698 122.67V114.16C82.4798 117.325 95.0948 118.385 105.225 118.415C105.225 121.88 103.335 127.24 103.335 130.71H103.33Z" fill="#A99CCC"/>
<path d="M230.05 92.885C232.83 91.605 235.355 88.855 237.755 86.87C239.115 85.745 238.825 84.78 240.705 83.87C241.465 83.5 243.45 83.925 244.74 83.125C244.55 84.285 245.265 85.21 245.265 86.1C263.7 75.24 258.84 106.63 257.055 118.17C256.52 121.62 255.64 126.385 259.1 129.505C257.595 133.015 257.945 134.505 259.1 137.505C258.285 137.65 261.86 140.02 261.145 140.2C261.62 140.74 257.895 141.39 258.6 142.005C257.525 144.16 256.695 144.955 255.6 147.005C254.115 145.78 251.45 145.78 251.6 143.505C250.235 143.47 252.08 142.23 251.1 142.005C250.84 141.9 248.375 141.48 248.1 141.505C248.195 138.55 246.865 137.27 247.6 134.505C245.175 133.09 246.56 128.27 246.6 125.505C244.02 124.19 244.52 118.335 245.68 116.2C244.025 114.425 244.43 111.815 243.93 109.59C246.155 107.725 245.34 107.62 245.605 106C245.765 105.025 245.135 102.835 245.245 101.66C245.525 98.67 245.07 97.305 244.265 94.4C242.39 93.815 244.76 94.285 244.105 92.505C238.185 92.18 236.67 91.87 230.055 92.89L230.05 92.885Z" fill="#F6AF37"/>
<path d="M45.1699 95.245C47.8449 118.145 47.0599 142.51 47.0599 165.695C65.4199 171.29 85.0949 173.69 103.8 178.58C116.105 181.795 129 184.98 140.68 188.39C140.68 165.985 141.155 143.625 141.155 121.25C141.155 118.86 140.425 115.47 141.155 113.21" stroke="#141822" stroke-miterlimit="10"/>
<path d="M262.27 89.625C266.445 88.765 271.68 86.665 274.02 86.735C273.385 88.775 274.02 90.875 274.02 93.155C274.02 112.465 275.44 136.095 275.44 155.5C267.66 159.56 251.265 162.86 242.34 165.225C223.64 170.175 204.155 171.83 185.6 177.64C172.69 181.685 155.445 182.205 144.935 186.975" stroke="#141822" stroke-miterlimit="10"/>
<path d="M143.52 111.325C176 106.155 208.745 97.19 241.42 92.99C242.13 92.9 242.965 92.76 243.9 92.58" stroke="#141822" stroke-miterlimit="10"/>
<path d="M140.21 110.85C132.44 109.26 124.97 107.525 117.515 105.65" stroke="#141822" stroke-miterlimit="10"/>
<path d="M248.965 84.845C251.675 83.925 255.35 84.785 257.95 85.79" stroke="#141822" stroke-miterlimit="10"/>
<path d="M239.415 86.105C237.905 87.485 236.43 89.305 235.63 91.305" stroke="#141822" stroke-miterlimit="10"/>
<path d="M248 126.525L246.995 134.5" stroke="#141822" stroke-miterlimit="10"/>
<path d="M256.18 87.68C257 88.31 257.99 88.8 258.78 89.47C259.57 90.14 259.71 90.865 260.28 91.62" stroke="#141822" stroke-miterlimit="10"/>
<path d="M250.625 135.31C250.635 136.515 251.21 137.855 251.425 139.065" stroke="#141822" stroke-miterlimit="10"/>
<path d="M253.545 129.8C253.365 131.225 252.325 134.085 253.325 135.33" stroke="#141822" stroke-miterlimit="10"/>
<path d="M255.95 125.815C256.6 126.94 256.345 128.345 256.59 129.55" stroke="#141822" stroke-miterlimit="10"/>
<path d="M241.16 87.76C242.02 86.425 243.59 85.48 244.785 84.45" stroke="#141822" stroke-miterlimit="10"/>
<path d="M256.035 132.1C256.645 132.645 257.355 133.245 257.87 133.92" stroke="#141822" stroke-miterlimit="10"/>
<path d="M255.65 133.24C255.485 134.125 255.24 134.975 255.16 135.88" stroke="#141822" stroke-miterlimit="10"/>
<path d="M254.105 137.97C253.83 139.31 254.065 140.89 254.53 142.155" stroke="#141822" stroke-miterlimit="10"/>
<path d="M256.2 93.985C256.605 95.31 257.015 96.705 257.145 98.085" stroke="#141822" stroke-miterlimit="10"/>
<path d="M255.1 99.66C255.1 100.97 255.34 102.51 254.94 103.76" stroke="#141822" stroke-miterlimit="10"/>
<path d="M251.56 141.78C251.815 143.295 252.05 144.895 253.08 146.1" stroke="#141822" stroke-miterlimit="10"/>
<path d="M249.295 138.32C248.87 139.36 248.415 140.43 248.1 141.505" stroke="#141822" stroke-miterlimit="10"/>
<path d="M251.16 100.135C251.595 101.33 252.3 102.495 252.42 103.76" stroke="#141822" stroke-miterlimit="10"/>
<path d="M241.95 89.65C241.555 90.375 241.155 91.18 240.69 91.855" stroke="#141822" stroke-miterlimit="10"/>
<path d="M247.94 87.13C248.595 88.185 249.87 89.03 249.99 90.28" stroke="#141822" stroke-miterlimit="10"/>
<path d="M249.265 94.93C249.305 96.37 249.185 97.865 248.635 99.185" stroke="#141822" stroke-miterlimit="10"/>
<path d="M256.94 138.17C256.675 140.265 256.615 142.365 256.465 144.465" stroke="#141822" stroke-miterlimit="10"/>
<path d="M258.855 138.09C258.96 139.025 259.125 140.69 260.065 141.1" stroke="#141822" stroke-miterlimit="10"/>
<path d="M247.85 102.18C248.32 103.605 248.01 105.405 248.01 106.91" stroke="#141822" stroke-miterlimit="10"/>
<path d="M251.475 97.295C251.805 97.845 252.265 98.345 252.58 98.87" stroke="#141822" stroke-miterlimit="10"/>
<path d="M246.43 97.455C246.62 99.27 246.27 101.555 245.8 103.285" stroke="#141822" stroke-miterlimit="10"/>
<path d="M253.095 86.215C252.13 85.965 251.185 86.425 250.225 86.37" stroke="#141822" stroke-miterlimit="10"/>
<path d="M250.37 103.6C250.395 104.805 251.13 105.835 251 107.065" stroke="#141822" stroke-miterlimit="10"/>
<path d="M247.53 89.93C246.255 89.77 244.905 89.91 243.685 90.295" stroke="#141822" stroke-miterlimit="10"/>
<path d="M249.965 131.095C249.34 132.2 249.21 133.355 249.045 134.635" stroke="#141822" stroke-miterlimit="10"/>
<path d="M244.855 109.43C244.07 110.975 244.37 113.01 245.015 114.475" stroke="#141822" stroke-miterlimit="10"/>
<path d="M258.095 100.92C258.705 102.165 258.72 103.5 258.725 104.86" stroke="#141822" stroke-miterlimit="10"/>
<path d="M239.39 89.975C238.79 90.805 237.985 91.88 237.525 92.635" stroke="#141822" stroke-miterlimit="10"/>
<path d="M243.865 83.21C242.49 83.495 241.405 84.65 240.035 84.845" stroke="#141822" stroke-miterlimit="10"/>
<path d="M256.515 104.075C256.455 105.515 256.995 107.115 256.515 108.49" stroke="#141822" stroke-miterlimit="10"/>
<path d="M234.965 88.585C232.805 89.425 232.845 90.205 232.01 92.09" stroke="#141822" stroke-miterlimit="10"/>
<path d="M258.41 107.07C258.495 108.18 258.565 109.26 258.57 110.38" stroke="#141822" stroke-miterlimit="10"/>
<path d="M245.655 86.435C245.27 87.05 244.605 87.585 243.915 87.825" stroke="#141822" stroke-miterlimit="10"/>
<path d="M253.68 107.225C253.655 108.385 253.86 109.535 253.84 110.69" stroke="#141822" stroke-miterlimit="10"/>
<path d="M256.36 110.22C256.91 111.74 259.025 116.425 257.465 117.63" stroke="#141822" stroke-miterlimit="10"/>
<path d="M247.945 82.62C247.4 83.65 246.7 84.675 245.805 85.44" stroke="#141822" stroke-miterlimit="10"/>
<path d="M250.845 109.745C251.1 111.08 251.76 112.455 252.735 113.37" stroke="#141822" stroke-miterlimit="10"/>
<path d="M245.8 106.91C246.565 107.83 246.985 109.885 248.165 110.22" stroke="#141822" stroke-miterlimit="10"/>
<path d="M250.91 124.225C251.43 125.41 251.635 126.87 252.355 127.9" stroke="#141822" stroke-miterlimit="10"/>
<path d="M253.45 125.5C253.695 126.61 253.96 128.01 254.775 128.845" stroke="#141822" stroke-miterlimit="10"/>
<path d="M249.36 126.415C249.485 127.52 249.55 128.68 249.575 129.78" stroke="#141822" stroke-miterlimit="10"/>
<path d="M102.54 117.31C101.015 117.42 98.9202 116.625 97.2502 116.445C95.0152 116.2 92.7652 115.95 90.5652 115.735C86.8252 115.37 83.0702 114.935 79.4652 113.915C77.6902 113.415 75.7702 113.07 74.0152 112.74C71.8102 113.37 72.5302 120.835 72.5952 122.67C75.2552 124.825 79.1852 125.035 82.5652 125.63C87.8552 126.565 93.0002 127.6 98.3202 128.185C100.05 128.375 101.84 128.56 103.485 128.975C105.65 126.735 105.06 123.56 105.06 120.62" stroke="#141822" stroke-miterlimit="10"/>
<path d="M247.1 113.21C247.105 114.995 247.38 116.41 247.76 118.04" stroke="#141822" stroke-miterlimit="10"/>
<path d="M250.17 114.525C250.76 116.13 251.03 118.205 252.365 119.355" stroke="#141822" stroke-miterlimit="10"/>
<path d="M253.86 117.2C254.11 118.31 254.06 119.665 254.74 120.495" stroke="#141822" stroke-miterlimit="10"/>
<path d="M253.465 121.615C254.195 122.925 255.525 123.55 256.54 124.47" stroke="#141822" stroke-miterlimit="10"/>
<path d="M255.445 113.43C255.53 114.4 255.71 115.29 255.665 116.285" stroke="#141822" stroke-miterlimit="10"/>
<path d="M253.385 88.835C253.315 90.905 253.56 92.545 253.165 94.545" stroke="#141822" stroke-miterlimit="10"/>
<path d="M256.24 90.59C256.79 91.665 257.455 92.695 257.56 93.885" stroke="#141822" stroke-miterlimit="10"/>
<path d="M249.87 92.13C248.51 92.77 247.675 93.815 246.575 94.765" stroke="#141822" stroke-miterlimit="10"/>
<path d="M245.48 117.6C245.1 118.49 244.89 119.56 244.6 120.455" stroke="#141822" stroke-miterlimit="10"/>
<path d="M249.21 118.92C248.915 120.39 248.525 121.585 247.015 122.215" stroke="#141822" stroke-miterlimit="10"/>
<path d="M250.03 120.835C249.77 122.31 249.405 123.665 248.71 125.005" stroke="#141822" stroke-miterlimit="10"/>
<path d="M245.155 126.385C244.785 127.38 243.94 128.025 243.3 128.81" stroke="#141822" stroke-miterlimit="10"/>
<path d="M245.92 124.41C245.72 124.735 245.41 124.895 245.04 124.85" stroke="#141822" stroke-miterlimit="10"/>
<path d="M208.03 30.89C209.955 35.015 210.77 39.535 211.935 43.9" stroke="#141822" stroke-miterlimit="10"/>
<path d="M164.235 74.895L151.635 76.21C147.88 76.995 148.46 76.375 144.79 77.24" stroke="#F3E7D3" stroke-miterlimit="10"/>
<path d="M268.82 84.03C263.035 83.885 186.515 72.275 180.66 72.145" stroke="#F3E7D3" stroke-miterlimit="10"/>
<path d="M46.4849 91.03C50.4399 91.36 55.4099 90.49 59.3849 89.985C64.0199 89.4 68.5949 88.61 73.1649 87.945C75.3949 87.62 122.65 81.205 124.78 80.605" stroke="#F3E7D3" stroke-miterlimit="10"/>
<path d="M181.32 74.56C182.89 82.345 181.815 91.59 181.815 99.76" stroke="#F3E7D3" stroke-miterlimit="10"/>
<path d="M53.8498 59.09C50.1748 59.715 45.6598 60.315 41.9898 59.53C40.3598 61.22 38.2198 63.235 36.2798 64.58C39.6248 63.505 44.0298 64.73 47.5048 64.81C49.9498 64.865 53.6398 64.8 55.6048 64.8C55.4448 64.145 55.3748 63.105 55.3848 62.385" stroke="#141822" stroke-miterlimit="10"/>
<path d="M89.645 76.875C89.765 72.565 89.025 68.155 88.765 63.92C89.71 62.09 91.13 59.95 92.06 58.21C88.615 59.85 85.125 60.215 81.52 61.275C79.465 61.88 77.58 62.9 75.375 62.82C78.15 62.615 80.895 63.7 83.72 63.7" stroke="#141822" stroke-miterlimit="10"/>
<path d="M75.3698 65.015C75.3698 68.28 74.9798 71.685 75.1498 74.895C78.9698 74.865 82.4698 74.62 86.1298 75.555" stroke="#141822" stroke-miterlimit="10"/>
<path d="M70.9752 50.965C69.9502 52.685 68.7152 54.705 67.2402 56.015C69.9652 55.97 72.8752 56.47 75.5852 56.455C74.8902 55.745 73.6752 54.715 72.9502 54.04" stroke="#141822" stroke-miterlimit="10"/>
<path d="M99.7301 38.37C101.045 38.33 102.195 38.145 103.575 38.15C107.67 38.17 110.245 37.48 114.005 35.955C112.455 35.36 109.54 34.81 108.295 33.98C105.41 36.105 100.54 35.36 97.3151 36.615C97.4551 38.86 96.5801 41.21 96.4351 43.42C98.2551 42.215 100.535 42.305 102.365 41.225" stroke="#141822" stroke-miterlimit="10"/>
<path d="M139.34 19.83C143.29 19.34 147.43 19.13 151.42 18.51C152.58 19.305 153.88 21.49 154.275 22.9C150.62 22.9 146.57 22.64 143.075 23.12" stroke="#141822" stroke-miterlimit="10"/>
<path d="M140.905 79.07C140.905 82.29 140.99 85.54 140.84 88.74C138.22 88.585 130.035 87.335 128.595 85.165C127.72 83.845 128.375 78.9 128.54 77.36C129.015 72.835 129.12 73.47 133.29 73.325C136.175 73.225 139.14 73.555 141.81 74.04C141.925 72.65 141.945 71.22 141.79 69.79C139.48 70.76 134.135 71.325 131.19 71.115" stroke="#141822" stroke-miterlimit="10"/>
<path d="M176.24 68.47C177.11 70.775 176.65 73.44 176.27 75.815C173.69 75.785 169.98 74.815 167.53 73.67C169.025 72.375 170.855 71.125 172.705 70.675" stroke="#141822" stroke-miterlimit="10"/>
<path d="M269.445 30.48C269.445 32.93 269.475 35.385 269.415 37.835C273.115 35.365 277.375 33.935 281.225 31.795C277.605 30.315 273.295 27.165 269.455 26.495C265.18 25.75 259.925 27 255.465 26.925C256.9 30.115 259.83 29.305 262.82 30.48" stroke="#141822" stroke-miterlimit="10"/>
<path d="M231.015 36.665C230.865 39.31 230.31 41.965 230.155 44.59C233.685 45.08 236.96 46.325 240.21 47.23C240.67 44.45 242.53 40.91 241.61 37.99C240.825 35.49 238.67 34.875 237.55 32.41C236.76 32.45 236.285 32.78 235.87 33.13" stroke="#141822" stroke-miterlimit="10"/>
<path d="M187.285 18.995C191.205 19.02 194.96 17.74 198.765 16.945C198.785 19.2 198.81 21.525 198.725 23.77C196.025 24.875 194.82 27.555 193.145 29.565C191.87 26.365 185.705 26.17 186.025 23.04C187.765 22.625 189.785 22.27 191.7 22.53" stroke="#141822" stroke-miterlimit="10"/>
<path d="M244.265 19.435C239.305 18.17 229.84 17.085 224.82 18.105C221.445 18.79 218.665 22.435 215.69 23.86C220.225 23.13 228.725 25.29 231.81 21.655C231.99 24.125 231.9 26.66 231.9 29.155" stroke="#141822" stroke-miterlimit="10"/>
<path d="M135.165 44.615C133.845 46.105 132.26 47.39 131.16 48.965C135.525 49.255 139.995 49.555 144.37 49.435C144.29 47.22 144.94 45.11 144.815 42.915C142.89 42.67 141.04 43.1 139.14 43.29" stroke="#141822" stroke-miterlimit="10"/>
<path d="M170.72 41.59C175.755 40.545 182.2 41.23 186.73 41.025C186.875 39.51 186.835 37.845 186.785 36.28C182.02 36.065 177.34 36.73 168.29 37.105C167.885 38.935 167.3 40.905 167.145 42.8" stroke="#141822" stroke-miterlimit="10"/>
<path d="M207.235 48.655C204.835 48.76 202.4 47.99 200.005 48.23C200.5 51.49 200.59 55.065 200.53 58.39C202.04 56.97 204.895 55.545 207.11 55.79C207.2 54.52 207.23 53.23 207.235 51.955" stroke="#141822" stroke-miterlimit="10"/>
<path d="M38.4751 65.015C38.4751 68.09 38.7751 71.175 38.6951 74.24" stroke="#141822" stroke-miterlimit="10"/>
</svg>
