<svg width="320" height="240" viewBox="0 0 320 240" fill="none" xmlns="http://www.w3.org/2000/svg">
<path d="M62.7452 46.54C62.3952 47.39 61.6502 47.99 61.1602 48.72C62.4602 49.415 64.9452 49.78 66.4252 49.795C65.0202 49.1 63.8252 48.055 62.7452 46.54Z" fill="#81D1DF"/>
<path d="M76.4548 74.57C74.0998 75.375 71.7298 75.97 69.3398 76.62C69.5048 77.39 69.7398 78.205 69.8498 79.01C69.8898 79.325 69.7549 80.55 69.9249 80.77C70.2199 81.155 71.8898 81.15 72.3048 81.21C73.6098 81.4 74.9798 81.37 76.2648 81.665C76.3498 80.265 75.4398 78.555 75.6648 77.21C75.8198 76.275 76.6948 75.475 76.4548 74.575V74.57Z" fill="#81D1DF"/>
<path d="M38.9648 66.12C39.0448 66.715 39.2048 67.305 39.2198 67.895C37.9298 68.035 36.2598 67.565 35.0098 67.98C34.9598 68.86 35.0298 69.835 34.7898 70.67C34.6998 70.72 34.4348 70.815 34.3348 70.825C34.0748 70.13 34.2098 69.21 34.2098 68.435C34.2098 67.72 34.4398 67.565 34.8698 66.9C35.3448 66.165 35.5798 66.27 36.5548 66.32C37.2648 66.355 37.9548 66.285 38.9648 66.13V66.12Z" fill="#81D1DF"/>
<path d="M92.6101 35.515C92.3301 36.295 92.3201 37.835 92.4501 38.675C93.1151 38.06 96.0601 37.065 95.9001 36.105C97.1551 35.8 98.1151 35.87 99.2351 35.245C98.2551 34.935 97.5651 34.47 96.7101 34.585C95.6451 34.73 94.5501 35.19 92.6101 35.51V35.515Z" fill="#81D1DF"/>
<path d="M126.785 18.025C130.31 21.035 134.88 20.975 139.585 20.625C138.71 19.445 138.05 18.005 136.96 16.87C134.58 18.195 130.72 17.675 126.785 18.025Z" fill="#81D1DF"/>
<path d="M128.545 52.325C127.93 53 127.145 53.62 126.5 54.225C127.61 54.3 128.73 54.195 129.845 54.305C130.245 54.345 130.63 54.45 130.985 54.3C131.045 53.59 131.315 52.815 131.22 52.105C130.44 52.06 129.64 52.095 128.55 52.325H128.545Z" fill="#81D1DF"/>
<path d="M185.81 13.855C186.65 14.78 187.635 15.815 188.37 16.87C190.435 15.54 191.77 14.135 191.565 11.605C189.9 11.515 188.27 11.795 186.67 11.895C186.985 12.49 187.44 13.07 187.755 13.67C187.15 13.77 186.52 13.92 185.81 13.855Z" fill="#81D1DF"/>
<path d="M133.85 92.085C135.17 92.085 136.505 91.945 137.825 92.03C137.005 93.905 137.365 95.925 137.08 97.925C136.13 97.66 135.135 97.55 134.18 97.295C133.905 97.22 133.22 97.135 133.105 96.945C132.77 96.38 133.43 94.39 133.515 93.705C133.57 93.235 133.77 92.875 133.85 92.085Z" fill="#81D1DF"/>
<path d="M173.73 76.615C172.8 78.19 171.025 77.605 169.865 78.57C171.3 79.19 172.755 80.165 174.32 80.265C174.335 78.88 175.155 77.53 174.93 76.165C174.75 76.335 174.51 76.36 174.34 76.49C174.135 76.645 173.975 76.52 173.73 76.61V76.615Z" fill="#81D1DF"/>
<path d="M168.89 30.285C168.72 30.97 168.695 31.7 168.5 32.385C169.255 32.335 170.03 32.26 170.79 32.19C171.87 32.09 173.75 32.265 174.755 31.845C175.41 31.57 175.265 31.015 175.51 30.3C173.945 30.3 172.395 30.07 170.83 30.215C170.27 30.27 169.68 30.385 168.885 30.29L168.89 30.285Z" fill="#81D1DF"/>
<path d="M214.43 59.85C214.47 61.055 214.375 62.295 214.34 63.505C215.005 62.73 216.3 62.26 216.975 61.545C217.37 61.13 217.33 60.58 217.09 60.09C216.225 60.175 215.37 60.145 214.425 59.85H214.43Z" fill="#81D1DF"/>
<path d="M208.615 33.595C208.59 34.33 208.205 35.46 208.48 36.195C209.005 37.585 210.515 38.33 210.94 39.95C210.96 38.425 210.8 35.035 208.615 33.595Z" fill="#81D1DF"/>
<path d="M225.855 17.115C227.14 15.46 229.5 14.735 231.17 13.65C232.96 14.325 235.27 14.155 237.165 14.355C238.18 14.46 239.18 14.695 240.18 14.805C238.195 14.76 236.27 15.445 234.405 15.845V20.005C233.66 19.205 232.48 18.58 231.63 17.925C230.07 16.715 227.84 17.115 225.855 17.115Z" fill="#81D1DF"/>
<path d="M250.4 48.375C250.47 49.525 250.12 50.665 250.155 51.82C251.34 51.77 252.995 52.15 254.095 52.56C254.155 51.385 254.91 49.81 254.41 48.77C254.16 48.25 253.405 47.595 252.95 47.23C252.01 47.63 251.28 47.925 250.405 48.38L250.4 48.375Z" fill="#81D1DF"/>
<path d="M262.335 29.95C264.22 30.7 266.245 31.775 268.385 31.6C268.64 32.39 268.57 33.405 268.57 34.26C269.275 33.54 270.955 33.115 271.96 32.895C272.575 32.765 273.42 32.795 273.795 32.24C272.895 31.5 271.525 31.23 270.495 30.68C269.915 30.37 269.29 29.91 268.615 29.765C267 29.415 263.995 30 262.34 29.95H262.335Z" fill="#81D1DF"/>
<path d="M274.52 106.725C274.785 100.85 275.86 92.305 274.025 86.735C270.35 88.215 266.23 88.185 262.205 88.625C257.275 89.165 252.05 91.07 247.075 91.46C240.835 91.95 234.61 93.9 228.4 94.77C215.97 96.515 203.765 98.63 191.31 100.445C183.79 101.54 176.39 103.74 168.93 105.53C159.905 107.695 150.325 107.455 141.635 110.85C126.06 106.045 108 103.97 91.5298 100.46C83.5098 98.75 75.9248 96.195 67.8948 94.67C60.2248 93.21 52.1998 93.105 44.7048 91.465C43.8848 99.24 46.9148 110.57 47.1548 118.395C47.6248 133.695 47.1948 148.58 47.5398 163.81C52.5598 165.1 58.1698 165.25 63.4748 166.755C73.4048 169.575 82.9798 173.68 92.9548 176.455C108.375 180.745 123.935 184.585 139.745 187.45C147.285 186.385 155.495 185.125 163.135 182.96C173.22 180.1 183.345 177.23 193.07 173.27C202.53 169.415 213.875 170.265 223.955 167.715C232.895 165.45 241.525 163.355 250.35 160.72C257.155 158.685 267.29 158.275 273.555 155.3C274.425 153.385 274.16 149.58 274.03 147.085C273.665 140.02 273.255 132.85 273.595 125.725C273.895 119.45 274.24 113.04 274.525 106.725H274.52ZM103.33 130.71C94.2048 131.9 80.5748 126.765 73.0698 122.67V114.16C82.4798 117.325 95.0948 118.385 105.225 118.415C105.225 121.88 103.335 127.24 103.335 130.71H103.33Z" fill="#A99CCC"/>
<path d="M230.05 92.885C232.83 91.605 235.355 88.855 237.755 86.87C239.115 85.745 238.825 84.78 240.705 83.87C241.465 83.5 243.45 83.925 244.74 83.125C244.55 84.285 245.265 85.21 245.265 86.1C263.7 75.24 258.84 106.63 257.055 118.17C256.52 121.62 255.64 126.385 259.1 129.505C257.595 133.015 257.945 134.505 259.1 137.505C258.285 137.65 261.86 140.02 261.145 140.2C261.62 140.74 257.895 141.39 258.6 142.005C257.525 144.16 256.695 144.955 255.6 147.005C254.115 145.78 251.45 145.78 251.6 143.505C250.235 143.47 252.08 142.23 251.1 142.005C250.84 141.9 248.375 141.48 248.1 141.505C248.195 138.55 246.865 137.27 247.6 134.505C245.175 133.09 246.56 128.27 246.6 125.505C244.02 124.19 244.52 118.335 245.68 116.2C244.025 114.425 244.43 111.815 243.93 109.59C246.155 107.725 245.34 107.62 245.605 106C245.765 105.025 245.135 102.835 245.245 101.66C245.525 98.67 245.07 97.305 244.265 94.4C242.39 93.815 244.76 94.285 244.105 92.505C238.185 92.18 236.67 91.87 230.055 92.89L230.05 92.885Z" fill="#F6AF37"/>
<path d="M45.1699 95.245C47.8449 118.145 47.0599 142.51 47.0599 165.695C65.4199 171.29 85.0949 173.69 103.8 178.58C116.105 181.795 129 184.98 140.68 188.39C140.68 165.985 141.155 143.625 141.155 121.25C141.155 118.86 140.425 115.47 141.155 113.21" stroke="#141822" stroke-miterlimit="10"/>
<path d="M262.27 89.625C266.445 88.765 271.68 86.665 274.02 86.735C273.385 88.775 274.02 90.875 274.02 93.155C274.02 112.465 275.44 136.095 275.44 155.5C267.66 159.56 251.265 162.86 242.34 165.225C223.64 170.175 204.155 171.83 185.6 177.64C172.69 181.685 155.445 182.205 144.935 186.975" stroke="#141822" stroke-miterlimit="10"/>
<path d="M143.52 111.325C176 106.155 208.745 97.19 241.42 92.99C242.13 92.9 242.965 92.76 243.9 92.58" stroke="#141822" stroke-miterlimit="10"/>
<path d="M140.21 110.85C132.44 109.26 124.97 107.525 117.515 105.65" stroke="#141822" stroke-miterlimit="10"/>
<path d="M248.965 84.845C251.675 83.925 255.35 84.785 257.95 85.79" stroke="#141822" stroke-miterlimit="10"/>
<path d="M239.415 86.105C237.905 87.485 236.43 89.305 235.63 91.305" stroke="#141822" stroke-miterlimit="10"/>
<path d="M248 126.525L246.995 134.5" stroke="#141822" stroke-miterlimit="10"/>
<path d="M256.18 87.68C257 88.31 257.99 88.8 258.78 89.47C259.57 90.14 259.71 90.865 260.28 91.62" stroke="#141822" stroke-miterlimit="10"/>
<path d="M250.625 135.31C250.635 136.515 251.21 137.855 251.425 139.065" stroke="#141822" stroke-miterlimit="10"/>
<path d="M253.545 129.8C253.365 131.225 252.325 134.085 253.325 135.33" stroke="#141822" stroke-miterlimit="10"/>
<path d="M255.95 125.815C256.6 126.94 256.345 128.345 256.59 129.55" stroke="#141822" stroke-miterlimit="10"/>
<path d="M241.16 87.76C242.02 86.425 243.59 85.48 244.785 84.45" stroke="#141822" stroke-miterlimit="10"/>
<path d="M256.035 132.1C256.645 132.645 257.355 133.245 257.87 133.92" stroke="#141822" stroke-miterlimit="10"/>
<path d="M255.65 133.24C255.485 134.125 255.24 134.975 255.16 135.88" stroke="#141822" stroke-miterlimit="10"/>
<path d="M254.105 137.97C253.83 139.31 254.065 140.89 254.53 142.155" stroke="#141822" stroke-miterlimit="10"/>
<path d="M256.2 93.985C256.605 95.31 257.015 96.705 257.145 98.085" stroke="#141822" stroke-miterlimit="10"/>
<path d="M255.1 99.66C255.1 100.97 255.34 102.51 254.94 103.76" stroke="#141822" stroke-miterlimit="10"/>
<path d="M251.56 141.78C251.815 143.295 252.05 144.895 253.08 146.1" stroke="#141822" stroke-miterlimit="10"/>
<path d="M249.295 138.32C248.87 139.36 248.415 140.43 248.1 141.505" stroke="#141822" stroke-miterlimit="10"/>
<path d="M251.16 100.135C251.595 101.33 252.3 102.495 252.42 103.76" stroke="#141822" stroke-miterlimit="10"/>
<path d="M241.95 89.65C241.555 90.375 241.155 91.18 240.69 91.855" stroke="#141822" stroke-miterlimit="10"/>
<path d="M247.94 87.13C248.595 88.185 249.87 89.03 249.99 90.28" stroke="#141822" stroke-miterlimit="10"/>
<path d="M249.265 94.93C249.305 96.37 249.185 97.865 248.635 99.185" stroke="#141822" stroke-miterlimit="10"/>
<path d="M256.94 138.17C256.675 140.265 256.615 142.365 256.465 144.465" stroke="#141822" stroke-miterlimit="10"/>
<path d="M258.855 138.09C258.96 139.025 259.125 140.69 260.065 141.1" stroke="#141822" stroke-miterlimit="10"/>
<path d="M247.85 102.18C248.32 103.605 248.01 105.405 248.01 106.91" stroke="#141822" stroke-miterlimit="10"/>
<path d="M251.475 97.295C251.805 97.845 252.265 98.345 252.58 98.87" stroke="#141822" stroke-miterlimit="10"/>
<path d="M246.43 97.455C246.62 99.27 246.27 101.555 245.8 103.285" stroke="#141822" stroke-miterlimit="10"/>
<path d="M253.095 86.215C252.13 85.965 251.185 86.425 250.225 86.37" stroke="#141822" stroke-miterlimit="10"/>
<path d="M250.37 103.6C250.395 104.805 251.13 105.835 251 107.065" stroke="#141822" stroke-miterlimit="10"/>
<path d="M247.53 89.93C246.255 89.77 244.905 89.91 243.685 90.295" stroke="#141822" stroke-miterlimit="10"/>
<path d="M249.965 131.095C249.34 132.2 249.21 133.355 249.045 134.635" stroke="#141822" stroke-miterlimit="10"/>
<path d="M244.855 109.43C244.07 110.975 244.37 113.01 245.015 114.475" stroke="#141822" stroke-miterlimit="10"/>
<path d="M258.095 100.92C258.705 102.165 258.72 103.5 258.725 104.86" stroke="#141822" stroke-miterlimit="10"/>
<path d="M239.39 89.975C238.79 90.805 237.985 91.88 237.525 92.635" stroke="#141822" stroke-miterlimit="10"/>
<path d="M243.865 83.21C242.49 83.495 241.405 84.65 240.035 84.845" stroke="#141822" stroke-miterlimit="10"/>
<path d="M256.515 104.075C256.455 105.515 256.995 107.115 256.515 108.49" stroke="#141822" stroke-miterlimit="10"/>
<path d="M234.965 88.585C232.805 89.425 232.845 90.205 232.01 92.09" stroke="#141822" stroke-miterlimit="10"/>
<path d="M258.41 107.07C258.495 108.18 258.565 109.26 258.57 110.38" stroke="#141822" stroke-miterlimit="10"/>
<path d="M245.655 86.435C245.27 87.05 244.605 87.585 243.915 87.825" stroke="#141822" stroke-miterlimit="10"/>
<path d="M253.68 107.225C253.655 108.385 253.86 109.535 253.84 110.69" stroke="#141822" stroke-miterlimit="10"/>
<path d="M256.36 110.22C256.91 111.74 259.025 116.425 257.465 117.63" stroke="#141822" stroke-miterlimit="10"/>
<path d="M247.945 82.62C247.4 83.65 246.7 84.675 245.805 85.44" stroke="#141822" stroke-miterlimit="10"/>
<path d="M250.845 109.745C251.1 111.08 251.76 112.455 252.735 113.37" stroke="#141822" stroke-miterlimit="10"/>
<path d="M245.8 106.91C246.565 107.83 246.985 109.885 248.165 110.22" stroke="#141822" stroke-miterlimit="10"/>
<path d="M250.91 124.225C251.43 125.41 251.635 126.87 252.355 127.9" stroke="#141822" stroke-miterlimit="10"/>
<path d="M253.45 125.5C253.695 126.61 253.96 128.01 254.775 128.845" stroke="#141822" stroke-miterlimit="10"/>
<path d="M249.36 126.415C249.485 127.52 249.55 128.68 249.575 129.78" stroke="#141822" stroke-miterlimit="10"/>
<path d="M102.54 117.31C101.015 117.42 98.9202 116.625 97.2502 116.445C95.0152 116.2 92.7652 115.95 90.5652 115.735C86.8252 115.37 83.0702 114.935 79.4652 113.915C77.6902 113.415 75.7702 113.07 74.0152 112.74C71.8102 113.37 72.5302 120.835 72.5952 122.67C75.2552 124.825 79.1852 125.035 82.5652 125.63C87.8552 126.565 93.0002 127.6 98.3202 128.185C100.05 128.375 101.84 128.56 103.485 128.975C105.65 126.735 105.06 123.56 105.06 120.62" stroke="#141822" stroke-miterlimit="10"/>
<path d="M247.1 113.21C247.105 114.995 247.38 116.41 247.76 118.04" stroke="#141822" stroke-miterlimit="10"/>
<path d="M250.17 114.525C250.76 116.13 251.03 118.205 252.365 119.355" stroke="#141822" stroke-miterlimit="10"/>
<path d="M253.86 117.2C254.11 118.31 254.06 119.665 254.74 120.495" stroke="#141822" stroke-miterlimit="10"/>
<path d="M253.465 121.615C254.195 122.925 255.525 123.55 256.54 124.47" stroke="#141822" stroke-miterlimit="10"/>
<path d="M255.445 113.43C255.53 114.4 255.71 115.29 255.665 116.285" stroke="#141822" stroke-miterlimit="10"/>
<path d="M253.385 88.835C253.315 90.905 253.56 92.545 253.165 94.545" stroke="#141822" stroke-miterlimit="10"/>
<path d="M256.24 90.59C256.79 91.665 257.455 92.695 257.56 93.885" stroke="#141822" stroke-miterlimit="10"/>
<path d="M249.87 92.13C248.51 92.77 247.675 93.815 246.575 94.765" stroke="#141822" stroke-miterlimit="10"/>
<path d="M245.48 117.6C245.1 118.49 244.89 119.56 244.6 120.455" stroke="#141822" stroke-miterlimit="10"/>
<path d="M249.21 118.92C248.915 120.39 248.525 121.585 247.015 122.215" stroke="#141822" stroke-miterlimit="10"/>
<path d="M250.03 120.835C249.77 122.31 249.405 123.665 248.71 125.005" stroke="#141822" stroke-miterlimit="10"/>
<path d="M245.155 126.385C244.785 127.38 243.94 128.025 243.3 128.81" stroke="#141822" stroke-miterlimit="10"/>
<path d="M245.92 124.41C245.72 124.735 245.41 124.895 245.04 124.85" stroke="#141822" stroke-miterlimit="10"/>
<path d="M208.63 33.1C209.9 35.82 210.44 38.805 211.205 41.685" stroke="#141822" stroke-miterlimit="10"/>
<path d="M46.4849 91.03C50.4399 91.36 55.4099 90.49 59.3849 89.985C64.0199 89.4 68.5949 88.61 73.1649 87.945C75.3949 87.62 122.65 81.205 124.78 80.605L144.795 77.24C148.465 76.375 147.885 76.995 151.64 76.21L164.24 74.895L180.665 72.145C186.52 72.28 263.045 83.89 268.825 84.03" stroke="#F3E7D3" stroke-miterlimit="10"/>
<path d="M181.32 74.56C182.89 82.345 181.815 91.59 181.815 99.76" stroke="#F3E7D3" stroke-miterlimit="10"/>
<path d="M38.9001 66.25C37.7951 66.435 36.4351 66.62 35.3351 66.38C34.8451 66.89 34.2001 67.495 33.6201 67.9C34.6251 67.575 35.9501 67.945 36.9951 67.97C37.7301 67.985 38.8401 67.97 39.4301 67.97C39.3801 67.77 39.3601 67.46 39.3651 67.245" stroke="#141822" stroke-miterlimit="10"/>
<path d="M75.865 81.69C75.91 80.025 75.625 78.325 75.525 76.69C75.89 75.985 76.44 75.16 76.795 74.485C75.465 75.12 74.12 75.26 72.725 75.67C71.93 75.905 71.205 76.295 70.355 76.265C71.425 76.185 72.485 76.605 73.575 76.605" stroke="#141822" stroke-miterlimit="10"/>
<path d="M70.3552 77.11C70.3552 78.37 70.2052 79.685 70.2702 80.925C71.7452 80.915 73.0952 80.82 74.5102 81.18" stroke="#141822" stroke-miterlimit="10"/>
<path d="M62.6302 46.425C62.0902 47.33 61.4352 48.4 60.6602 49.095C62.1002 49.07 63.6352 49.335 65.0702 49.325C64.7002 48.95 64.0602 48.405 63.6802 48.05" stroke="#141822" stroke-miterlimit="10"/>
<path d="M93.57 36.155C94.145 36.14 94.65 36.055 95.255 36.06C97.05 36.07 98.185 35.765 99.835 35.095C99.155 34.835 97.875 34.595 97.33 34.23C96.065 35.165 93.925 34.835 92.51 35.385C92.57 36.37 92.185 37.4 92.125 38.375C92.925 37.845 93.925 37.885 94.725 37.41" stroke="#141822" stroke-miterlimit="10"/>
<path d="M127.19 18.06C130.345 17.67 133.65 17.505 136.83 17.01C137.755 17.645 138.79 19.39 139.11 20.515C136.195 20.515 132.955 20.31 130.17 20.69" stroke="#141822" stroke-miterlimit="10"/>
<path d="M137.05 94.785C137.05 95.775 137.075 96.77 137.03 97.755C136.225 97.705 133.71 97.325 133.27 96.655C133 96.25 133.205 94.73 133.255 94.26C133.4 92.87 133.435 93.065 134.715 93.02C135.6 92.99 136.51 93.09 137.33 93.24C137.365 92.815 137.37 92.375 137.325 91.935C136.615 92.235 134.975 92.405 134.07 92.34" stroke="#141822" stroke-miterlimit="10"/>
<path d="M174.75 75.965C175.235 77.245 174.975 78.725 174.77 80.05C173.335 80.035 171.27 79.495 169.91 78.86C170.74 78.14 171.76 77.445 172.785 77.195" stroke="#141822" stroke-miterlimit="10"/>
<path d="M268.64 31.39C268.64 32.415 268.65 33.435 268.625 34.46C270.17 33.43 271.945 32.83 273.555 31.94C272.045 31.325 270.245 30.005 268.645 29.73C266.86 29.42 264.665 29.94 262.805 29.91C263.405 31.24 264.625 30.905 265.875 31.395" stroke="#141822" stroke-miterlimit="10"/>
<path d="M250.385 48.615C250.33 49.605 250.125 50.595 250.065 51.575C251.385 51.76 252.605 52.225 253.82 52.56C253.99 51.52 254.685 50.2 254.345 49.11C254.05 48.175 253.245 47.945 252.83 47.025C252.535 47.04 252.355 47.165 252.205 47.295" stroke="#141822" stroke-miterlimit="10"/>
<path d="M186.72 12.385C188.405 12.395 190.015 11.845 191.65 11.505C191.66 12.475 191.67 13.47 191.635 14.435C190.475 14.91 189.96 16.06 189.24 16.925C188.69 15.55 186.045 15.465 186.18 14.125C186.925 13.945 187.795 13.795 188.62 13.905" stroke="#141822" stroke-miterlimit="10"/>
<path d="M241.12 14.97C238.51 14.305 233.53 13.735 230.89 14.27C229.115 14.63 227.65 16.55 226.085 17.3C228.47 16.915 232.945 18.05 234.565 16.14C234.66 17.44 234.61 18.775 234.61 20.085" stroke="#141822" stroke-miterlimit="10"/>
<path d="M127.875 52.79C127.415 53.31 126.86 53.76 126.48 54.31C128.005 54.41 129.565 54.515 131.09 54.475C131.06 53.7 131.29 52.965 131.245 52.2C130.575 52.115 129.93 52.265 129.265 52.33" stroke="#141822" stroke-miterlimit="10"/>
<path d="M169.92 31.945C171.705 31.575 173.995 31.815 175.605 31.745C175.655 31.205 175.64 30.615 175.625 30.06C173.935 29.985 172.27 30.22 169.06 30.355C168.915 31.005 168.71 31.705 168.655 32.375" stroke="#141822" stroke-miterlimit="10"/>
<path d="M217.22 60C216.31 60.03 215.39 59.82 214.48 59.885C214.665 60.765 214.7 61.725 214.68 62.625C215.25 62.24 216.335 61.86 217.17 61.925C217.205 61.585 217.215 61.235 217.22 60.89" stroke="#141822" stroke-miterlimit="10"/>
<path d="M34.2749 68.035C34.2749 68.96 34.3649 69.885 34.3399 70.81" stroke="#141822" stroke-miterlimit="10"/>
</svg>
