<svg width="320" height="240" viewBox="0 0 320 240" fill="none" xmlns="http://www.w3.org/2000/svg">
<path d="M38.3599 70.605C39.5549 74.085 38.7999 79.125 38.7999 82.9C50.3599 82.9 62.3949 84.025 73.9249 84.655C78.5749 84.91 83.6899 84.91 88.2099 85.975C88.4199 82.945 86.4899 75.155 87.9349 72.58C89.2799 70.18 89.6949 67.025 92.7099 66.035C92.6499 64.54 97.7649 66.81 97.6499 65.33C97.4599 62.82 94.9149 61.465 93.4949 59.425C91.0399 60.545 88.4049 61.105 85.8949 62.04C83.8299 62.81 82.8649 64.515 81.1749 65.96C80.1899 66.805 78.6749 68.185 77.4799 68.155C75.8999 68.115 72.7899 66.08 71.2499 65.39C70.2249 64.93 69.1749 64.405 68.2249 63.88C64.1849 68.39 58.8399 68.15 53.0599 68.19C49.8999 68.21 46.0099 69.24 42.9749 68.41C41.4649 69.315 39.7449 69.69 38.3649 70.605H38.3599Z" fill="#81D1DF"/>
<path d="M158.04 45.795C151.105 48.33 143.52 50.625 135.83 52.33C123.91 54.97 113.365 58.975 101.165 58.975C100.64 56.925 101.35 54.32 100.505 52.385C104.5 51.46 108.75 50.215 112.685 48.745C119.25 46.285 125.8 42.16 132.84 41.22C139.88 40.28 147.15 38.9 153.65 37.015C155.715 39.165 157.735 41.09 160.02 42.945C159.99 46.63 158.7 42.22 158.045 45.8L158.04 45.795Z" fill="#81D1DF"/>
<path d="M160.455 35.69C161.87 37.985 163.93 39.81 164.845 42.39C165.86 45.24 166.865 42.19 167.04 45.245C172.175 42.62 176.105 43.525 181.66 43.82C183.21 43.9 186.655 44.325 188.12 43.82C189.34 43.4 191.14 44.71 192.29 43.82C193.82 42.635 195.01 44.595 196.025 42.94C197.18 41.05 196.455 38.58 196.465 36.35C183.73 35.045 173.125 32.61 160.45 35.69H160.455Z" fill="#81D1DF"/>
<path d="M205.255 35.035C203.675 36.855 200.805 37.815 199.325 39.645C200.04 42.51 207.23 41.32 207.23 43.815C210.31 48.005 208.045 54.325 210.525 59.405C212.655 58.43 213.785 56.19 215.365 54.62C216.135 53.855 217.25 53.22 217.77 52.38C222.385 54.92 228.705 55.425 233.815 56.495C238.925 57.565 244.325 57.205 249.28 55.785C253.47 54.585 257.16 52.3 261.455 51.44C264.01 50.93 266.51 51.165 268.955 50.185C270.085 49.73 271.03 49.185 272.23 48.865C273.52 44.855 273.27 40.915 273.765 36.785C259.155 36.785 244.69 35.37 230.065 35.02C224.835 34.895 219.595 34.58 214.385 34.59C212.33 34.59 207.01 35.865 205.25 35.03L205.255 35.035Z" fill="#81D1DF"/>
<path d="M95.4548 72.145C95.4198 75.92 93.8298 79.85 93.0898 83.525C92.6748 85.57 92.6198 87.735 91.9448 89.71C92.6948 89.265 94.2148 89.46 95.2098 89.525C99.0848 89.765 102.995 90.105 106.87 90.415C112.705 90.88 118.575 91.92 124.42 92.14C127.055 92.24 131.655 91.63 133.67 92.13C134.71 89.795 133.645 85.7 134.57 83.215C135.61 80.415 133.875 77.525 134.88 74.705C136.25 70.855 141.58 69.49 141.58 65.34C141.58 62.33 139.065 58.145 136.75 56.115C134.855 58.06 133.435 60.495 131.92 62.485C126.965 63.575 121.235 63.145 116.11 63.145C115.9 64.535 115.595 65.95 115.23 67.315C109.21 69.57 101.545 70.935 95.4648 72.145H95.4548Z" fill="#81D1DF"/>
<path d="M163.53 58.09C160.645 59.755 158.74 63.15 156.49 65.56C155.23 66.91 153.825 68.195 152.77 69.73C152.77 75.075 152.77 80.415 152.77 85.76C158.745 84.585 164.61 81.68 170.34 80.05C170.34 74.56 170.34 68.85 170.34 63.36C168.2 61.095 165.43 60.335 163.535 58.09H163.53Z" fill="#81D1DF"/>
<path d="M172.975 49.305C172.975 50.88 172.76 52.375 172.755 53.915C172.74 57.375 186.605 56.53 189.885 54.31C195.05 57.745 187.19 70.18 193.195 71.375C195.37 71.81 197.395 72.035 199.545 71.92C199.545 66.93 199.785 61.22 200.425 56.33C200.895 52.74 196.315 50.08 192.745 49.525C188.12 48.8 183.06 49.145 178.345 48.645C175.795 48.375 175.53 49.315 172.975 49.305Z" fill="#81D1DF"/>
<path d="M274.52 106.725C274.785 100.85 275.86 92.305 274.025 86.735C270.35 88.215 266.23 88.185 262.205 88.625C257.275 89.165 252.05 91.07 247.075 91.46C240.835 91.95 234.61 93.9 228.4 94.77C215.97 96.515 203.765 98.63 191.31 100.445C183.79 101.54 176.39 103.74 168.93 105.53C159.905 107.695 150.325 107.455 141.635 110.85C126.06 106.045 108 103.97 91.5298 100.46C83.5098 98.75 75.9248 96.195 67.8948 94.67C60.2248 93.21 52.1998 93.105 44.7048 91.465C43.8848 99.24 46.9148 110.57 47.1548 118.395C47.6248 133.695 47.1948 148.58 47.5398 163.81C52.5598 165.1 58.1698 165.25 63.4748 166.755C73.4048 169.575 82.9798 173.68 92.9548 176.455C108.375 180.745 123.935 184.585 139.745 187.45C147.285 186.385 155.495 185.125 163.135 182.96C173.22 180.1 183.345 177.23 193.07 173.27C202.53 169.415 213.875 170.265 223.955 167.715C232.895 165.45 241.525 163.355 250.35 160.72C257.155 158.685 267.29 158.275 273.555 155.3C274.425 153.385 274.16 149.58 274.03 147.085C273.665 140.02 273.255 132.85 273.595 125.725C273.895 119.45 274.24 113.04 274.525 106.725H274.52ZM103.33 130.71C94.2048 131.9 80.5748 126.765 73.0698 122.67V114.16C82.4798 117.325 95.0948 118.385 105.225 118.415C105.225 121.88 103.335 127.24 103.335 130.71H103.33Z" fill="#A99CCC"/>
<path d="M230.05 92.885C232.83 91.605 235.355 88.855 237.755 86.87C239.115 85.745 238.825 84.78 240.705 83.87C241.465 83.5 243.45 83.925 244.74 83.125C244.55 84.285 245.265 85.21 245.265 86.1C263.7 75.24 258.84 106.63 257.055 118.17C256.52 121.62 255.64 126.385 259.1 129.505C257.595 133.015 257.945 134.505 259.1 137.505C258.285 137.65 261.86 140.02 261.145 140.2C261.62 140.74 257.895 141.39 258.6 142.005C257.525 144.16 256.695 144.955 255.6 147.005C254.115 145.78 251.45 145.78 251.6 143.505C250.235 143.47 252.08 142.23 251.1 142.005C250.84 141.9 248.375 141.48 248.1 141.505C248.195 138.55 246.865 137.27 247.6 134.505C245.175 133.09 246.56 128.27 246.6 125.505C244.02 124.19 244.52 118.335 245.68 116.2C244.025 114.425 244.43 111.815 243.93 109.59C246.155 107.725 245.34 107.62 245.605 106C245.765 105.025 245.135 102.835 245.245 101.66C245.525 98.67 245.07 97.305 244.265 94.4C242.39 93.815 244.76 94.285 244.105 92.505C238.185 92.18 236.67 91.87 230.055 92.89L230.05 92.885Z" fill="#F6AF37"/>
<path d="M45.1699 95.245C47.8449 118.145 47.0599 142.51 47.0599 165.695C65.4199 171.29 85.0949 173.69 103.8 178.58C116.105 181.795 129 184.98 140.68 188.39C140.68 165.985 141.155 143.625 141.155 121.25C141.155 118.86 140.425 115.47 141.155 113.21" stroke="#141822" stroke-miterlimit="10"/>
<path d="M262.27 89.625C266.445 88.765 271.68 86.665 274.02 86.735C273.385 88.775 274.02 90.875 274.02 93.155C274.02 112.465 275.44 136.095 275.44 155.5C267.66 159.56 251.265 162.86 242.34 165.225C223.64 170.175 204.155 171.83 185.6 177.64C172.69 181.685 155.445 182.205 144.935 186.975" stroke="#141822" stroke-miterlimit="10"/>
<path d="M143.52 111.325C176 106.155 208.745 97.19 241.42 92.99C242.13 92.9 242.965 92.76 243.9 92.58" stroke="#141822" stroke-miterlimit="10"/>
<path d="M268.82 84.03C263.035 83.885 186.515 72.275 180.66 72.145C177.94 72.77 174.32 73.2 171.655 74.12" stroke="#F3E7D3" stroke-miterlimit="10"/>
<path d="M140.21 110.85C132.44 109.26 124.97 107.525 117.515 105.65" stroke="#141822" stroke-miterlimit="10"/>
<path d="M248.965 84.845C251.675 83.925 255.35 84.785 257.95 85.79" stroke="#141822" stroke-miterlimit="10"/>
<path d="M239.415 86.105C237.905 87.485 236.43 89.305 235.63 91.305" stroke="#141822" stroke-miterlimit="10"/>
<path d="M248 126.525L246.995 134.5" stroke="#141822" stroke-miterlimit="10"/>
<path d="M256.18 87.68C257 88.31 257.99 88.8 258.78 89.47C259.57 90.14 259.71 90.865 260.28 91.62" stroke="#141822" stroke-miterlimit="10"/>
<path d="M250.625 135.31C250.635 136.515 251.21 137.855 251.425 139.065" stroke="#141822" stroke-miterlimit="10"/>
<path d="M253.545 129.8C253.365 131.225 252.325 134.085 253.325 135.33" stroke="#141822" stroke-miterlimit="10"/>
<path d="M255.95 125.815C256.6 126.94 256.345 128.345 256.59 129.55" stroke="#141822" stroke-miterlimit="10"/>
<path d="M241.16 87.76C242.02 86.425 243.59 85.48 244.785 84.45" stroke="#141822" stroke-miterlimit="10"/>
<path d="M256.035 132.1C256.645 132.645 257.355 133.245 257.87 133.92" stroke="#141822" stroke-miterlimit="10"/>
<path d="M255.65 133.24C255.485 134.125 255.24 134.975 255.16 135.88" stroke="#141822" stroke-miterlimit="10"/>
<path d="M254.105 137.97C253.83 139.31 254.065 140.89 254.53 142.155" stroke="#141822" stroke-miterlimit="10"/>
<path d="M256.2 93.985C256.605 95.31 257.015 96.705 257.145 98.085" stroke="#141822" stroke-miterlimit="10"/>
<path d="M255.1 99.66C255.1 100.97 255.34 102.51 254.94 103.76" stroke="#141822" stroke-miterlimit="10"/>
<path d="M251.56 141.78C251.815 143.295 252.05 144.895 253.08 146.1" stroke="#141822" stroke-miterlimit="10"/>
<path d="M249.295 138.32C248.87 139.36 248.415 140.43 248.1 141.505" stroke="#141822" stroke-miterlimit="10"/>
<path d="M251.16 100.135C251.595 101.33 252.3 102.495 252.42 103.76" stroke="#141822" stroke-miterlimit="10"/>
<path d="M241.95 89.65C241.555 90.375 241.155 91.18 240.69 91.855" stroke="#141822" stroke-miterlimit="10"/>
<path d="M247.94 87.13C248.595 88.185 249.87 89.03 249.99 90.28" stroke="#141822" stroke-miterlimit="10"/>
<path d="M249.265 94.93C249.305 96.37 249.185 97.865 248.635 99.185" stroke="#141822" stroke-miterlimit="10"/>
<path d="M256.94 138.17C256.675 140.265 256.615 142.365 256.465 144.465" stroke="#141822" stroke-miterlimit="10"/>
<path d="M258.855 138.09C258.96 139.025 259.125 140.69 260.065 141.1" stroke="#141822" stroke-miterlimit="10"/>
<path d="M247.85 102.18C248.32 103.605 248.01 105.405 248.01 106.91" stroke="#141822" stroke-miterlimit="10"/>
<path d="M251.475 97.295C251.805 97.845 252.265 98.345 252.58 98.87" stroke="#141822" stroke-miterlimit="10"/>
<path d="M246.43 97.455C246.62 99.27 246.27 101.555 245.8 103.285" stroke="#141822" stroke-miterlimit="10"/>
<path d="M253.095 86.215C252.13 85.965 251.185 86.425 250.225 86.37" stroke="#141822" stroke-miterlimit="10"/>
<path d="M250.37 103.6C250.395 104.805 251.13 105.835 251 107.065" stroke="#141822" stroke-miterlimit="10"/>
<path d="M247.53 89.93C246.255 89.77 244.905 89.91 243.685 90.295" stroke="#141822" stroke-miterlimit="10"/>
<path d="M249.965 131.095C249.34 132.2 249.21 133.355 249.045 134.635" stroke="#141822" stroke-miterlimit="10"/>
<path d="M244.855 109.43C244.07 110.975 244.37 113.01 245.015 114.475" stroke="#141822" stroke-miterlimit="10"/>
<path d="M258.095 100.92C258.705 102.165 258.72 103.5 258.725 104.86" stroke="#141822" stroke-miterlimit="10"/>
<path d="M239.39 89.975C238.79 90.805 237.985 91.88 237.525 92.635" stroke="#141822" stroke-miterlimit="10"/>
<path d="M243.865 83.21C242.49 83.495 241.405 84.65 240.035 84.845" stroke="#141822" stroke-miterlimit="10"/>
<path d="M256.515 104.075C256.455 105.515 256.995 107.115 256.515 108.49" stroke="#141822" stroke-miterlimit="10"/>
<path d="M234.965 88.585C232.805 89.425 232.845 90.205 232.01 92.09" stroke="#141822" stroke-miterlimit="10"/>
<path d="M258.41 107.07C258.495 108.18 258.565 109.26 258.57 110.38" stroke="#141822" stroke-miterlimit="10"/>
<path d="M245.655 86.435C245.27 87.05 244.605 87.585 243.915 87.825" stroke="#141822" stroke-miterlimit="10"/>
<path d="M253.68 107.225C253.655 108.385 253.86 109.535 253.84 110.69" stroke="#141822" stroke-miterlimit="10"/>
<path d="M256.36 110.22C256.91 111.74 259.025 116.425 257.465 117.63" stroke="#141822" stroke-miterlimit="10"/>
<path d="M247.945 82.62C247.4 83.65 246.7 84.675 245.805 85.44" stroke="#141822" stroke-miterlimit="10"/>
<path d="M250.845 109.745C251.1 111.08 251.76 112.455 252.735 113.37" stroke="#141822" stroke-miterlimit="10"/>
<path d="M245.8 106.91C246.565 107.83 246.985 109.885 248.165 110.22" stroke="#141822" stroke-miterlimit="10"/>
<path d="M250.91 124.225C251.43 125.41 251.635 126.87 252.355 127.9" stroke="#141822" stroke-miterlimit="10"/>
<path d="M253.45 125.5C253.695 126.61 253.96 128.01 254.775 128.845" stroke="#141822" stroke-miterlimit="10"/>
<path d="M249.36 126.415C249.485 127.52 249.55 128.68 249.575 129.78" stroke="#141822" stroke-miterlimit="10"/>
<path d="M102.54 117.31C101.015 117.42 98.9202 116.625 97.2502 116.445C95.0152 116.2 92.7652 115.95 90.5652 115.735C86.8252 115.37 83.0702 114.935 79.4652 113.915C77.6902 113.415 75.7702 113.07 74.0152 112.74C71.8102 113.37 72.5302 120.835 72.5952 122.67C75.2552 124.825 79.1852 125.035 82.5652 125.63C87.8552 126.565 93.0002 127.6 98.3202 128.185C100.05 128.375 101.84 128.56 103.485 128.975C105.65 126.735 105.06 123.56 105.06 120.62" stroke="#141822" stroke-miterlimit="10"/>
<path d="M247.1 113.21C247.105 114.995 247.38 116.41 247.76 118.04" stroke="#141822" stroke-miterlimit="10"/>
<path d="M250.17 114.525C250.76 116.13 251.03 118.205 252.365 119.355" stroke="#141822" stroke-miterlimit="10"/>
<path d="M253.86 117.2C254.11 118.31 254.06 119.665 254.74 120.495" stroke="#141822" stroke-miterlimit="10"/>
<path d="M253.465 121.615C254.195 122.925 255.525 123.55 256.54 124.47" stroke="#141822" stroke-miterlimit="10"/>
<path d="M255.445 113.43C255.53 114.4 255.71 115.29 255.665 116.285" stroke="#141822" stroke-miterlimit="10"/>
<path d="M253.385 88.835C253.315 90.905 253.56 92.545 253.165 94.545" stroke="#141822" stroke-miterlimit="10"/>
<path d="M256.24 90.59C256.79 91.665 257.455 92.695 257.56 93.885" stroke="#141822" stroke-miterlimit="10"/>
<path d="M249.87 92.13C248.51 92.77 247.675 93.815 246.575 94.765" stroke="#141822" stroke-miterlimit="10"/>
<path d="M245.48 117.6C245.1 118.49 244.89 119.56 244.6 120.455" stroke="#141822" stroke-miterlimit="10"/>
<path d="M249.21 118.92C248.915 120.39 248.525 121.585 247.015 122.215" stroke="#141822" stroke-miterlimit="10"/>
<path d="M250.03 120.835C249.77 122.31 249.405 123.665 248.71 125.005" stroke="#141822" stroke-miterlimit="10"/>
<path d="M245.155 126.385C244.785 127.38 243.94 128.025 243.3 128.81" stroke="#141822" stroke-miterlimit="10"/>
<path d="M245.92 124.41C245.72 124.735 245.41 124.895 245.04 124.85" stroke="#141822" stroke-miterlimit="10"/>
<path d="M138.135 73.245C136.86 67.525 135.265 67.24 141.57 64.055C140.69 62.515 139.875 60.64 139.35 58.83" stroke="#141822" stroke-miterlimit="10"/>
<path d="M217.56 40.835C226.63 44.83 237.915 39.755 248.15 39.215" stroke="#141822" stroke-miterlimit="10"/>
<path d="M154.51 36.755C156.225 38.62 158.345 40.355 160.105 42.31C155.815 44.375 150.95 46.27 146.125 46.6" stroke="#141822" stroke-miterlimit="10"/>
<path d="M44.855 68.295C51.2 67.96 67.095 70.775 69.71 63.68C72.02 65.665 74.785 67.605 77.57 68.905C80.61 66.355 83.4 63.19 87.05 61.605" stroke="#141822" stroke-miterlimit="10"/>
<path d="M200.25 68.965C200.95 65.965 201.135 61.78 200.69 58.55" stroke="#141822" stroke-miterlimit="10"/>
<path d="M195.44 52.89C187.89 53.29 180.375 53.41 172.83 53.565C172.58 52.24 172.49 50.445 172.975 49.13" stroke="#141822" stroke-miterlimit="10"/>
<path d="M130.425 91.36C117.965 92.075 104.945 89.075 92.3799 89.385C93.2149 89.365 93.5949 73.44 96.1349 71.245C99.8199 68.055 110.72 67.225 115.11 67.645C115.655 66.18 116.15 64.695 116.59 63.2C120.965 61.76 126.745 62.705 131.415 62.705C132.795 61.26 133.795 58.72 134.875 57.27" stroke="#141822" stroke-miterlimit="10"/>
<path d="M41.4902 70.605C57.0902 70.605 72.4402 72.5 87.9352 72.58C89.2152 71.115 90.0252 69.33 90.9002 67.64C92.1752 65.17 95.5652 65.57 98.3102 65.665C96.9202 64.335 94.2552 62.24 92.3802 61.71" stroke="#141822" stroke-miterlimit="10"/>
<path d="M38.7998 72.365C38.7998 75.985 39.0198 79.505 39.0198 83.125C50.9548 83.125 62.7548 83.7 74.6048 85.045C78.7748 85.52 83.0498 85.615 87.1148 86.42C87.5648 83.17 87.1198 79.68 87.7748 76.54" stroke="#141822" stroke-miterlimit="10"/>
<path d="M144.865 47.11C137.66 47.14 130.56 49.15 123.33 49.945C116.465 50.7 109.745 51.95 102.92 51.945C114.455 48.65 125.965 45.12 137.7 42.33C143.005 41.07 147.95 40.895 152.105 37.01" stroke="#141822" stroke-miterlimit="10"/>
<path d="M158.04 45.795C154.2 47.25 119.31 57.28 115.22 57.27C110.24 57.255 105.705 59.615 100.725 59.63C100.725 57.8 100.505 55.75 100.505 53.92" stroke="#141822" stroke-miterlimit="10"/>
<path d="M215.795 40.74C212.865 41.44 210.21 43.335 207.23 43.815C204.47 42.14 201.88 40.7 198.665 39.86C199.98 39.12 201.14 37.29 201.74 35.905" stroke="#141822" stroke-miterlimit="10"/>
<path d="M207.45 45.795C209.18 50.005 209.785 54.56 210.745 58.97" stroke="#141822" stroke-miterlimit="10"/>
<path d="M213.16 58.53C213.95 55.85 216.315 53.655 218.005 51.575C225.68 55.435 236.02 58.805 244.555 56.23C249.695 54.68 254.855 52.72 259.98 51.065C263.925 49.79 268.1 49.275 272.2 48.64C272.455 44.885 274.66 40.93 273.77 37.23C264.14 39.17 253.5 42.635 243.92 44.635C239.56 45.545 235.125 45.85 230.715 46.455C227.4 46.91 224.175 47.97 220.845 48.54C218.385 48.965 216.255 49.355 214.035 50.405" stroke="#141822" stroke-miterlimit="10"/>
<path d="M264.325 36.35C245.25 36.29 226.13 35.47 207.01 35.47" stroke="#141822" stroke-miterlimit="10"/>
<path d="M174.07 49.085C178.15 50.27 183.21 49.565 187.44 49.955C189.84 50.18 192.065 50.605 194.49 50.62" stroke="#141822" stroke-miterlimit="10"/>
<path d="M173.195 55.675C173.035 59.25 191.99 55.675 191.99 55.675C191.99 55.675 193.3 67.785 193.195 71.38C193.135 73.535 195.305 70.095 198.23 70.83" stroke="#141822" stroke-miterlimit="10"/>
<path d="M159.8 36.57C161.775 37.82 163.515 40.235 164.63 42.28" stroke="#141822" stroke-miterlimit="10"/>
<path d="M167.045 41.84H187.905C189.93 38.835 193.645 37.56 196.47 35.47C188.58 35.645 180.565 34.6 172.635 34.59C169.13 34.59 165.72 35.235 162.215 35.25" stroke="#141822" stroke-miterlimit="10"/>
<path d="M167.045 45.245C169.815 43.56 192.895 44.735 195.81 43.38C196.1 41.73 196.39 40.015 196.25 38.33" stroke="#141822" stroke-miterlimit="10"/>
<path d="M170.34 79.83C170.34 75.725 170.34 71.625 170.34 67.52C170.34 66.51 170.47 65.22 170.12 64.455C168.725 61.405 165.215 60.73 163.53 57.865C160.985 62.08 155.84 64.405 153.43 68.625C152.525 70.21 153.235 72.685 153.32 74.485C153.445 77.14 153.295 79.81 153.43 82.465C153.5 83.86 153.42 85.54 153.87 86.855C156.185 85.005 161.215 84.34 163.98 83.335C165.235 82.875 166.43 82.385 167.705 82.025" stroke="#141822" stroke-miterlimit="10"/>
<path d="M156.065 68.19C159.075 66.97 162.275 66.085 165.29 64.895" stroke="#141822" stroke-miterlimit="10"/>
<path d="M97.8701 73.025C111.18 72.32 124.76 75.38 138.055 74.56" stroke="#141822" stroke-miterlimit="10"/>
<path d="M133.445 91.69C134.875 87.4 134.545 81.59 134.545 76.975" stroke="#141822" stroke-miterlimit="10"/>
<path d="M151.635 76.21C147.88 76.995 143.52 77.22 139.85 78.085" stroke="#F3E7D3" stroke-miterlimit="10"/>
<path d="M46.4849 91.03C50.4399 91.36 55.4099 90.49 59.3849 89.985C64.0199 89.4 68.5949 88.61 73.1649 87.945C75.3949 87.62 77.7349 87.675 79.8649 87.075" stroke="#F3E7D3" stroke-miterlimit="10"/>
<path d="M181.32 74.56C182.89 82.345 181.815 91.59 181.815 99.76" stroke="#F3E7D3" stroke-miterlimit="10"/>
</svg>
