<svg width="320" height="240" viewBox="0 0 320 240" fill="none" xmlns="http://www.w3.org/2000/svg">
<path d="M274.52 106.725C274.785 100.85 275.86 92.305 274.025 86.735C270.35 88.215 266.23 88.185 262.205 88.625C257.275 89.165 252.05 91.07 247.075 91.46C240.835 91.95 234.61 93.9 228.4 94.77C215.97 96.515 203.765 98.63 191.31 100.445C183.79 101.54 176.39 103.74 168.93 105.53C159.905 107.695 150.325 107.455 141.635 110.85C126.06 106.045 108 103.97 91.5298 100.46C83.5098 98.75 75.9248 96.195 67.8948 94.67C60.2248 93.21 52.1998 93.105 44.7048 91.465C43.8848 99.24 46.9148 110.57 47.1548 118.395C47.6248 133.695 47.1948 148.58 47.5398 163.81C52.5598 165.1 58.1698 165.25 63.4748 166.755C73.4048 169.575 82.9798 173.68 92.9548 176.455C108.375 180.745 123.935 184.585 139.745 187.45C147.285 186.385 155.495 185.125 163.135 182.96C173.22 180.1 183.345 177.23 193.07 173.27C202.53 169.415 213.875 170.265 223.955 167.715C232.895 165.45 241.525 163.355 250.35 160.72C257.155 158.685 267.29 158.275 273.555 155.3C274.425 153.385 274.16 149.58 274.03 147.085C273.665 140.02 273.255 132.85 273.595 125.725C273.895 119.45 274.24 113.04 274.525 106.725H274.52ZM103.33 130.71C94.2048 131.9 80.5748 126.765 73.0698 122.67V114.16C82.4798 117.325 95.0948 118.385 105.225 118.415C105.225 121.88 103.335 127.24 103.335 130.71H103.33Z" fill="#A99CCC"/>
<path d="M230.05 92.885C232.83 91.605 235.355 88.855 237.755 86.87C239.115 85.745 238.825 84.78 240.705 83.87C241.465 83.5 243.45 83.925 244.74 83.125C244.55 84.285 245.265 85.21 245.265 86.1C263.7 75.24 258.84 106.63 257.055 118.17C256.52 121.62 255.64 126.385 259.1 129.505C257.595 133.015 257.945 134.505 259.1 137.505C258.285 137.65 261.86 140.02 261.145 140.2C261.62 140.74 257.895 141.39 258.6 142.005C257.525 144.16 256.695 144.955 255.6 147.005C254.115 145.78 251.45 145.78 251.6 143.505C250.235 143.47 252.08 142.23 251.1 142.005C250.84 141.9 248.375 141.48 248.1 141.505C248.195 138.55 246.865 137.27 247.6 134.505C245.175 133.09 246.56 128.27 246.6 125.505C244.02 124.19 244.52 118.335 245.68 116.2C244.025 114.425 244.43 111.815 243.93 109.59C246.155 107.725 245.34 107.62 245.605 106C245.765 105.025 245.135 102.835 245.245 101.66C245.525 98.67 245.07 97.305 244.265 94.4C242.39 93.815 244.76 94.285 244.105 92.505C238.185 92.18 236.67 91.87 230.055 92.89L230.05 92.885Z" fill="#F6AF37"/>
<path d="M45.1699 95.245C47.8449 118.145 47.0599 142.51 47.0599 165.695C65.4199 171.29 85.0949 173.69 103.8 178.58C116.105 181.795 129 184.98 140.68 188.39C140.68 165.985 141.155 143.625 141.155 121.25C141.155 118.86 140.425 115.47 141.155 113.21" stroke="#141822" stroke-miterlimit="10"/>
<path d="M262.27 89.625C266.445 88.765 271.68 86.665 274.02 86.735C273.385 88.775 274.02 90.875 274.02 93.155C274.02 112.465 275.44 136.095 275.44 155.5C267.66 159.56 251.265 162.86 242.34 165.225C223.64 170.175 204.155 171.83 185.6 177.64C172.69 181.685 155.445 182.205 144.935 186.975" stroke="#141822" stroke-miterlimit="10"/>
<path d="M143.52 111.325C176 106.155 208.745 97.19 241.42 92.99C242.13 92.9 242.965 92.76 243.9 92.58" stroke="#141822" stroke-miterlimit="10"/>
<path d="M140.21 110.85C132.44 109.26 124.97 107.525 117.515 105.65" stroke="#141822" stroke-miterlimit="10"/>
<path d="M248.965 84.845C251.675 83.925 255.35 84.785 257.95 85.79" stroke="#141822" stroke-miterlimit="10"/>
<path d="M239.415 86.105C237.905 87.485 236.43 89.305 235.63 91.305" stroke="#141822" stroke-miterlimit="10"/>
<path d="M248 126.525L246.995 134.5" stroke="#141822" stroke-miterlimit="10"/>
<path d="M256.18 87.6801C257 88.3101 257.99 88.8001 258.78 89.4701C259.57 90.1401 259.71 90.8651 260.28 91.6201" stroke="#141822" stroke-miterlimit="10"/>
<path d="M250.625 135.31C250.635 136.515 251.21 137.855 251.425 139.065" stroke="#141822" stroke-miterlimit="10"/>
<path d="M253.545 129.8C253.365 131.225 252.325 134.085 253.325 135.33" stroke="#141822" stroke-miterlimit="10"/>
<path d="M255.95 125.815C256.6 126.94 256.345 128.345 256.59 129.55" stroke="#141822" stroke-miterlimit="10"/>
<path d="M241.16 87.76C242.02 86.425 243.59 85.48 244.785 84.45" stroke="#141822" stroke-miterlimit="10"/>
<path d="M256.035 132.1C256.645 132.645 257.355 133.245 257.87 133.92" stroke="#141822" stroke-miterlimit="10"/>
<path d="M255.65 133.24C255.485 134.125 255.24 134.975 255.16 135.88" stroke="#141822" stroke-miterlimit="10"/>
<path d="M254.105 137.97C253.83 139.31 254.065 140.89 254.53 142.155" stroke="#141822" stroke-miterlimit="10"/>
<path d="M256.2 93.985C256.605 95.31 257.015 96.705 257.145 98.085" stroke="#141822" stroke-miterlimit="10"/>
<path d="M255.1 99.66C255.1 100.97 255.34 102.51 254.94 103.76" stroke="#141822" stroke-miterlimit="10"/>
<path d="M251.56 141.78C251.815 143.295 252.05 144.895 253.08 146.1" stroke="#141822" stroke-miterlimit="10"/>
<path d="M249.295 138.32C248.87 139.36 248.415 140.43 248.1 141.505" stroke="#141822" stroke-miterlimit="10"/>
<path d="M251.16 100.135C251.595 101.33 252.3 102.495 252.42 103.76" stroke="#141822" stroke-miterlimit="10"/>
<path d="M241.95 89.65C241.555 90.375 241.155 91.18 240.69 91.855" stroke="#141822" stroke-miterlimit="10"/>
<path d="M247.94 87.13C248.595 88.185 249.87 89.03 249.99 90.28" stroke="#141822" stroke-miterlimit="10"/>
<path d="M249.265 94.9301C249.305 96.3701 249.185 97.8651 248.635 99.1851" stroke="#141822" stroke-miterlimit="10"/>
<path d="M256.94 138.17C256.675 140.265 256.615 142.365 256.465 144.465" stroke="#141822" stroke-miterlimit="10"/>
<path d="M258.855 138.09C258.96 139.025 259.125 140.69 260.065 141.1" stroke="#141822" stroke-miterlimit="10"/>
<path d="M247.85 102.18C248.32 103.605 248.01 105.405 248.01 106.91" stroke="#141822" stroke-miterlimit="10"/>
<path d="M251.475 97.295C251.805 97.845 252.265 98.345 252.58 98.87" stroke="#141822" stroke-miterlimit="10"/>
<path d="M246.43 97.455C246.62 99.27 246.27 101.555 245.8 103.285" stroke="#141822" stroke-miterlimit="10"/>
<path d="M253.095 86.215C252.13 85.965 251.185 86.425 250.225 86.37" stroke="#141822" stroke-miterlimit="10"/>
<path d="M250.37 103.6C250.395 104.805 251.13 105.835 251 107.065" stroke="#141822" stroke-miterlimit="10"/>
<path d="M247.53 89.93C246.255 89.77 244.905 89.9099 243.685 90.2949" stroke="#141822" stroke-miterlimit="10"/>
<path d="M249.965 131.095C249.34 132.2 249.21 133.355 249.045 134.635" stroke="#141822" stroke-miterlimit="10"/>
<path d="M244.855 109.43C244.07 110.975 244.37 113.01 245.015 114.475" stroke="#141822" stroke-miterlimit="10"/>
<path d="M258.095 100.92C258.705 102.165 258.72 103.5 258.725 104.86" stroke="#141822" stroke-miterlimit="10"/>
<path d="M239.39 89.975C238.79 90.805 237.985 91.88 237.525 92.635" stroke="#141822" stroke-miterlimit="10"/>
<path d="M243.865 83.21C242.49 83.495 241.405 84.65 240.035 84.845" stroke="#141822" stroke-miterlimit="10"/>
<path d="M256.515 104.075C256.455 105.515 256.995 107.115 256.515 108.49" stroke="#141822" stroke-miterlimit="10"/>
<path d="M234.965 88.585C232.805 89.425 232.845 90.205 232.01 92.09" stroke="#141822" stroke-miterlimit="10"/>
<path d="M258.41 107.07C258.495 108.18 258.565 109.26 258.57 110.38" stroke="#141822" stroke-miterlimit="10"/>
<path d="M245.655 86.4351C245.27 87.0501 244.605 87.5851 243.915 87.8251" stroke="#141822" stroke-miterlimit="10"/>
<path d="M253.68 107.225C253.655 108.385 253.86 109.535 253.84 110.69" stroke="#141822" stroke-miterlimit="10"/>
<path d="M256.36 110.22C256.91 111.74 259.025 116.425 257.465 117.63" stroke="#141822" stroke-miterlimit="10"/>
<path d="M247.945 82.62C247.4 83.65 246.7 84.675 245.805 85.44" stroke="#141822" stroke-miterlimit="10"/>
<path d="M250.845 109.745C251.1 111.08 251.76 112.455 252.735 113.37" stroke="#141822" stroke-miterlimit="10"/>
<path d="M245.8 106.91C246.565 107.83 246.985 109.885 248.165 110.22" stroke="#141822" stroke-miterlimit="10"/>
<path d="M250.91 124.225C251.43 125.41 251.635 126.87 252.355 127.9" stroke="#141822" stroke-miterlimit="10"/>
<path d="M253.45 125.5C253.695 126.61 253.96 128.01 254.775 128.845" stroke="#141822" stroke-miterlimit="10"/>
<path d="M249.36 126.415C249.485 127.52 249.55 128.68 249.575 129.78" stroke="#141822" stroke-miterlimit="10"/>
<path d="M102.54 117.31C101.015 117.42 98.9202 116.625 97.2502 116.445C95.0152 116.2 92.7652 115.95 90.5652 115.735C86.8252 115.37 83.0702 114.935 79.4652 113.915C77.6902 113.415 75.7702 113.07 74.0152 112.74C71.8102 113.37 72.5302 120.835 72.5952 122.67C75.2552 124.825 79.1852 125.035 82.5652 125.63C87.8552 126.565 93.0002 127.6 98.3202 128.185C100.05 128.375 101.84 128.56 103.485 128.975C105.65 126.735 105.06 123.56 105.06 120.62" stroke="#141822" stroke-miterlimit="10"/>
<path d="M247.1 113.21C247.105 114.995 247.38 116.41 247.76 118.04" stroke="#141822" stroke-miterlimit="10"/>
<path d="M250.17 114.525C250.76 116.13 251.03 118.205 252.365 119.355" stroke="#141822" stroke-miterlimit="10"/>
<path d="M253.86 117.2C254.11 118.31 254.06 119.665 254.74 120.495" stroke="#141822" stroke-miterlimit="10"/>
<path d="M253.465 121.615C254.195 122.925 255.525 123.55 256.54 124.47" stroke="#141822" stroke-miterlimit="10"/>
<path d="M255.445 113.43C255.53 114.4 255.71 115.29 255.665 116.285" stroke="#141822" stroke-miterlimit="10"/>
<path d="M253.385 88.835C253.315 90.905 253.56 92.545 253.165 94.545" stroke="#141822" stroke-miterlimit="10"/>
<path d="M256.24 90.59C256.79 91.665 257.455 92.695 257.56 93.885" stroke="#141822" stroke-miterlimit="10"/>
<path d="M249.87 92.13C248.51 92.77 247.675 93.815 246.575 94.765" stroke="#141822" stroke-miterlimit="10"/>
<path d="M245.48 117.6C245.1 118.49 244.89 119.56 244.6 120.455" stroke="#141822" stroke-miterlimit="10"/>
<path d="M249.21 118.92C248.915 120.39 248.525 121.585 247.015 122.215" stroke="#141822" stroke-miterlimit="10"/>
<path d="M250.03 120.835C249.77 122.31 249.405 123.665 248.71 125.005" stroke="#141822" stroke-miterlimit="10"/>
<path d="M245.155 126.385C244.785 127.38 243.94 128.025 243.3 128.81" stroke="#141822" stroke-miterlimit="10"/>
<path d="M245.92 124.41C245.72 124.735 245.41 124.895 245.04 124.85" stroke="#141822" stroke-miterlimit="10"/>
<path d="M46.4849 91.03C50.4399 91.36 55.4099 90.49 59.3849 89.985C64.0199 89.4 68.5949 88.61 73.1649 87.945C75.3949 87.62 122.65 81.205 124.78 80.605L144.795 77.24C148.465 76.375 147.885 76.995 151.64 76.21L164.24 74.895L180.665 72.145C186.52 72.28 263.045 83.89 268.825 84.03" stroke="#F3E7D3" stroke-miterlimit="10"/>
<path d="M181.32 74.5601C182.89 82.3451 181.815 91.5901 181.815 99.7601" stroke="#F3E7D3" stroke-miterlimit="10"/>
</svg>
