<svg width="320" height="240" viewBox="0 0 320 240" fill="none" xmlns="http://www.w3.org/2000/svg">
<path d="M274.52 106.725C274.785 100.85 275.86 92.305 274.025 86.735C270.35 88.215 266.23 88.185 262.205 88.625C257.275 89.165 252.05 91.07 247.075 91.46C240.835 91.95 234.61 93.9 228.4 94.77C215.97 96.515 203.765 98.63 191.31 100.445C183.79 101.54 176.39 103.74 168.93 105.53C159.905 107.695 150.325 107.455 141.635 110.85C126.06 106.045 108 103.97 91.5301 100.46C83.5101 98.75 75.9251 96.195 67.8951 94.67C60.2251 93.21 52.2001 93.105 44.7051 91.465C43.8851 99.24 46.9151 110.57 47.1551 118.395C47.6251 133.695 47.1951 148.58 47.5401 163.81C52.5601 165.1 58.1701 165.25 63.4751 166.755C73.4051 169.575 82.9801 173.68 92.9551 176.455C108.375 180.745 123.935 184.585 139.745 187.45C147.285 186.385 155.495 185.125 163.135 182.96C173.22 180.1 183.345 177.23 193.07 173.27C202.53 169.415 213.875 170.265 223.955 167.715C232.895 165.45 241.525 163.355 250.35 160.72C257.155 158.685 267.29 158.275 273.555 155.3C274.425 153.385 274.16 149.58 274.03 147.085C273.665 140.02 273.255 132.85 273.595 125.725C273.895 119.45 274.24 113.04 274.525 106.725H274.52ZM103.33 130.71C94.2051 131.9 80.5751 126.765 73.0701 122.67V114.16C82.4801 117.325 95.0951 118.385 105.225 118.415C105.225 121.88 103.335 127.24 103.335 130.71H103.33Z" fill="#A99CCC"/>
<path d="M230.05 92.885C232.83 91.605 235.355 88.855 237.755 86.87C239.115 85.745 238.825 84.78 240.705 83.87C241.465 83.5 243.45 83.925 244.74 83.125C244.55 84.285 246.595 83.115 246.595 84.005C263.595 79.505 263.38 107.96 261.595 119.505C261.06 122.955 260.595 125.505 261.095 129.005C259.59 132.515 259.44 132.005 260.595 135.005C259.78 135.15 262.31 138.325 261.595 138.505C262.07 139.045 260.385 142.39 261.095 143.005C260.02 145.16 257.19 144.455 256.095 146.505C254.61 145.28 252.945 145.78 253.095 143.505C251.73 143.47 253.075 142.73 252.095 142.505C251.835 142.4 250.87 140.98 250.595 141.005C250.69 138.05 249.36 138.27 250.095 135.505C247.67 134.09 250.055 131.27 250.095 128.505C247.515 127.19 249.435 119.14 250.595 117.005C248.94 115.23 250.095 113.73 249.595 111.505C251.82 109.64 249.83 107.62 250.095 106.005C250.255 105.03 248.985 102.68 249.095 101.505C249.375 98.515 249.4 95.41 248.595 92.505C246.72 91.92 244.75 94.29 244.095 92.505C238.175 92.18 236.66 91.87 230.045 92.89L230.05 92.885Z" fill="#F6AF37"/>
<path d="M45.1699 95.245C47.8449 118.145 47.0599 142.51 47.0599 165.695C65.4199 171.29 85.0949 173.69 103.8 178.58C116.105 181.795 129 184.98 140.68 188.39C140.68 165.985 141.155 143.625 141.155 121.25C141.155 118.86 140.425 115.47 141.155 113.21" stroke="#141822" stroke-miterlimit="10"/>
<path d="M262.77 89.125C266.945 88.265 271.68 86.665 274.02 86.735C273.385 88.775 274.02 90.875 274.02 93.155C274.02 112.465 275.44 136.095 275.44 155.5C267.66 159.56 251.265 162.86 242.34 165.225C223.64 170.175 204.155 171.83 185.6 177.64C172.69 181.685 155.445 182.205 144.935 186.975" stroke="#141822" stroke-miterlimit="10"/>
<path d="M143.52 111.325C176 106.155 208.745 97.19 241.42 92.99C242.13 92.9 242.965 92.76 243.9 92.58" stroke="#141822" stroke-miterlimit="10"/>
<path d="M251.325 82.61C257.18 82.745 263.035 83.885 268.82 84.03" stroke="#F3E7D3" stroke-miterlimit="10"/>
<path d="M140.21 110.85C132.44 109.26 124.97 107.525 117.515 105.65" stroke="#141822" stroke-miterlimit="10"/>
<path d="M248.965 84.845C251.675 83.925 255.35 84.785 257.95 85.79" stroke="#141822" stroke-miterlimit="10"/>
<path d="M239.415 86.105C237.905 87.485 236.43 89.305 235.63 91.305" stroke="#141822" stroke-miterlimit="10"/>
<path d="M253.035 126.745C252.005 129.22 250.975 131.69 249.945 134.165" stroke="#141822" stroke-miterlimit="10"/>
<path d="M256.18 87.6801C257 88.3101 257.99 88.8001 258.78 89.4701C259.57 90.1401 259.71 90.8651 260.28 91.6201" stroke="#141822" stroke-miterlimit="10"/>
<path d="M254.57 135.28C254.57 136.485 255.13 137.83 255.33 139.04" stroke="#141822" stroke-miterlimit="10"/>
<path d="M257.54 129.8C257.345 131.225 256.28 134.075 257.265 135.33" stroke="#141822" stroke-miterlimit="10"/>
<path d="M262.49 125.86C263.125 126.99 262.86 128.395 263.095 129.6" stroke="#141822" stroke-miterlimit="10"/>
<path d="M241.16 87.76C242.02 86.425 243.59 85.48 244.785 84.45" stroke="#141822" stroke-miterlimit="10"/>
<path d="M260.01 132.125C260.615 132.675 261.315 133.28 261.83 133.96" stroke="#141822" stroke-miterlimit="10"/>
<path d="M259.615 133.265C259.445 134.15 259.19 134.995 259.1 135.9" stroke="#141822" stroke-miterlimit="10"/>
<path d="M258.025 137.975C257.74 139.315 257.955 140.89 258.41 142.165" stroke="#141822" stroke-miterlimit="10"/>
<path d="M258.7 93.985C259.105 95.31 259.515 96.705 259.645 98.085" stroke="#141822" stroke-miterlimit="10"/>
<path d="M257.6 99.66C257.6 100.97 257.84 102.51 257.44 103.76" stroke="#141822" stroke-miterlimit="10"/>
<path d="M255.44 141.76C255.68 143.275 255.9 144.88 256.92 146.095" stroke="#141822" stroke-miterlimit="10"/>
<path d="M253.21 138.28C252.775 139.315 252.31 140.38 251.985 141.455" stroke="#141822" stroke-miterlimit="10"/>
<path d="M253.66 100.135C254.095 101.33 254.8 102.495 254.92 103.76" stroke="#141822" stroke-miterlimit="10"/>
<path d="M241.95 89.65C241.555 90.375 241.155 91.18 240.69 91.855" stroke="#141822" stroke-miterlimit="10"/>
<path d="M247.94 87.13C248.595 88.185 249.87 89.03 249.99 90.28" stroke="#141822" stroke-miterlimit="10"/>
<path d="M251.765 94.9301C251.805 96.3701 251.685 97.8651 251.135 99.1851" stroke="#141822" stroke-miterlimit="10"/>
<path d="M260.855 138.2C260.57 140.29 260.49 142.39 260.32 144.49" stroke="#141822" stroke-miterlimit="10"/>
<path d="M262.77 138.145C262.865 139.08 263.015 140.75 263.95 141.17" stroke="#141822" stroke-miterlimit="10"/>
<path d="M250.85 100.68C251.32 102.105 251.01 103.905 251.01 105.41" stroke="#141822" stroke-miterlimit="10"/>
<path d="M253.975 97.295C254.305 97.845 254.765 98.345 255.08 98.87" stroke="#141822" stroke-miterlimit="10"/>
<path d="M248.93 97.455C249.12 99.27 248.77 101.555 248.3 103.285" stroke="#141822" stroke-miterlimit="10"/>
<path d="M253.095 86.215C252.13 85.965 251.185 86.425 250.225 86.37" stroke="#141822" stroke-miterlimit="10"/>
<path d="M252.87 103.6C252.895 104.805 253.63 105.835 253.5 107.065" stroke="#141822" stroke-miterlimit="10"/>
<path d="M247.53 89.93C246.255 89.77 244.905 89.9099 243.685 90.2949" stroke="#141822" stroke-miterlimit="10"/>
<path d="M253.95 131.06C253.31 132.16 253.17 133.31 252.995 134.59" stroke="#141822" stroke-miterlimit="10"/>
<path d="M249.855 109.43C249.07 110.975 249.37 113.01 250.015 114.475" stroke="#141822" stroke-miterlimit="10"/>
<path d="M260.595 100.92C261.205 102.165 261.22 103.5 261.225 104.86" stroke="#141822" stroke-miterlimit="10"/>
<path d="M239.39 89.975C238.79 90.805 237.985 91.88 237.525 92.635" stroke="#141822" stroke-miterlimit="10"/>
<path d="M243.865 83.21C242.49 83.495 241.405 84.65 240.035 84.845" stroke="#141822" stroke-miterlimit="10"/>
<path d="M261.515 104.075C261.455 105.515 261.995 107.115 261.515 108.49" stroke="#141822" stroke-miterlimit="10"/>
<path d="M234.965 88.585C232.805 89.425 232.845 90.205 232.01 92.09" stroke="#141822" stroke-miterlimit="10"/>
<path d="M263.41 107.07C263.495 108.18 263.565 109.26 263.57 110.38" stroke="#141822" stroke-miterlimit="10"/>
<path d="M245.655 86.4351C245.27 87.0501 244.605 87.5851 243.915 87.8251" stroke="#141822" stroke-miterlimit="10"/>
<path d="M258.68 107.225C258.655 108.385 258.86 109.535 258.84 110.69" stroke="#141822" stroke-miterlimit="10"/>
<path d="M260.36 110.22C260.91 111.74 263.025 116.425 261.465 117.63" stroke="#141822" stroke-miterlimit="10"/>
<path d="M247.945 82.62C247.4 83.65 246.7 84.675 245.805 85.44" stroke="#141822" stroke-miterlimit="10"/>
<path d="M255.845 109.745C256.1 111.08 256.76 112.455 257.735 113.37" stroke="#141822" stroke-miterlimit="10"/>
<path d="M250.8 106.91C251.565 107.83 251.985 109.885 253.165 110.22" stroke="#141822" stroke-miterlimit="10"/>
<path d="M259.99 125.525C260.225 126.64 260.475 128.04 261.285 128.88" stroke="#141822" stroke-miterlimit="10"/>
<path d="M255.895 126.4C256.01 127.505 256.065 128.67 256.075 129.765" stroke="#141822" stroke-miterlimit="10"/>
<path d="M102.54 117.31C101.015 117.42 98.9199 116.625 97.2499 116.445C95.0149 116.2 92.7649 115.95 90.5649 115.735C86.8249 115.37 83.0699 114.935 79.4649 113.915C77.6899 113.415 75.7699 113.07 74.0149 112.74C71.8099 113.37 72.5299 120.835 72.5949 122.67C75.2549 124.825 79.1849 125.035 82.5649 125.63C87.8549 126.565 92.9999 127.6 98.3199 128.185C100.05 128.375 101.84 128.56 103.485 128.975C105.65 126.735 105.06 123.56 105.06 120.62" stroke="#141822" stroke-miterlimit="10"/>
<path d="M251.1 113.21C251.105 114.995 251.38 116.41 251.76 118.04" stroke="#141822" stroke-miterlimit="10"/>
<path d="M254.17 114.525C254.76 116.13 255.03 118.205 256.365 119.355" stroke="#141822" stroke-miterlimit="10"/>
<path d="M257.86 117.2C258.11 118.31 258.06 119.665 258.74 120.495" stroke="#141822" stroke-miterlimit="10"/>
<path d="M257.465 121.615C258.195 122.925 259.525 123.55 260.54 124.47" stroke="#141822" stroke-miterlimit="10"/>
<path d="M257.945 113.43C258.03 114.4 258.21 115.29 258.165 116.285" stroke="#141822" stroke-miterlimit="10"/>
<path d="M253.385 88.835C253.315 90.905 253.56 92.545 253.165 94.545" stroke="#141822" stroke-miterlimit="10"/>
<path d="M256.24 90.59C256.79 91.665 257.455 92.695 257.56 93.885" stroke="#141822" stroke-miterlimit="10"/>
<path d="M252.37 92.13C251.01 92.77 250.175 93.815 249.075 94.765" stroke="#141822" stroke-miterlimit="10"/>
<path d="M249.48 117.6C249.1 118.49 248.89 119.56 248.6 120.455" stroke="#141822" stroke-miterlimit="10"/>
<path d="M253.21 118.92C252.915 120.39 252.525 121.585 251.015 122.215" stroke="#141822" stroke-miterlimit="10"/>
<path d="M254.03 120.835C253.77 122.31 253.405 123.665 252.71 125.005" stroke="#141822" stroke-miterlimit="10"/>
<path d="M251.685 126.325C251.305 127.315 250.455 127.955 249.805 128.73" stroke="#141822" stroke-miterlimit="10"/>
<path d="M250.085 123.98C248.7 124.225 247.505 124.105 246.13 123.815" stroke="#141822" stroke-miterlimit="10"/>
<path d="M255.025 124.475C254.445 124.97 254.085 125.59 253.87 126.285" stroke="#141822" stroke-miterlimit="10"/>
<path d="M43.2099 90.5199C49.7849 90.2499 56.3499 92.5749 62.5999 93.9349C73.4049 96.2849 84.5299 98.33 95.6499 99.845C105.795 101.23 115.995 102.84 126.075 103.78C131.815 104.315 137.84 105.835 143.455 105.645C152.235 105.35 161.475 102.59 169.97 100.51C181.11 97.78 191.945 94.03 203.05 91.22C214.435 88.34 225.87 87.2 237.13 83.6399C250.655 79.3599 264.84 77.1549 278.215 73.9649C277.035 70.6249 277.055 65.7449 277.27 62.1449C274.28 63.6049 268.03 61.5049 264.545 61.2099C254.92 60.3949 245.335 59.895 235.72 59.24C220.325 58.195 204.785 56.2099 189.465 54.5699C179.535 53.5099 169.765 52.9349 160.005 51.7449C151.32 50.6849 142.315 55.8649 134.15 58.3849C124.89 61.2399 114.645 61.6699 105.115 63.9299C95.7349 66.1549 87.0049 67.9899 77.2649 68.7249C65.0099 69.6499 53.1299 71.825 41.7949 74.91C42.2249 79.8 44.0649 85.7299 43.2149 90.5149L43.2099 90.5199Z" fill="#81D1DF"/>
<path d="M51.205 72.48C66.565 71.855 82.405 68.075 97.565 65.105C113.81 61.92 130.485 59.66 146.585 56.385C151.865 55.31 158.875 51.12 164.215 52.09C170.56 53.245 177.315 52.53 183.795 52.9C194.435 53.51 205.005 54.93 215.63 55.965C230.725 57.435 245.93 58.39 260.79 59.96C265.825 60.49 272.39 62.335 277.07 63.435C269.215 63.185 259.57 65.765 251.78 66.935C238.995 68.86 226.15 70.395 213.39 72.38C199.47 74.55 185.56 78.25 171.71 81.165C164.745 82.63 157.635 83.695 150.865 85.965C147.36 87.14 143.26 90.96 139.77 89.885C121.3 84.22 99.5799 85.875 80.3799 82.48C67.8349 80.265 52.96 79.24 41.95 76.295" stroke="#141822" stroke-miterlimit="10"/>
<path d="M42.125 79.61L42.72 90.47C55.955 93.67 69.43 95.365 82.645 98.175C96.685 101.16 111.885 103.075 125.925 104.75C131.515 105.42 136.66 105.995 142.115 106.81C140.745 104.165 141.37 97.72 141.915 94.51" stroke="#141822" stroke-miterlimit="10"/>
<path d="M145.835 105.66C154.135 101.905 164.035 100.78 172.73 97.415C181.455 94.04 191.45 93.37 200.585 91.275C217.915 87.295 235.52 82.87 252.87 79.45C260.525 77.94 268.875 73.795 276.69 73.875C277.215 71.35 276.9 68.26 277.195 65.795" stroke="#141822" stroke-miterlimit="10"/>
</svg>
