<svg width="320" height="240" viewBox="0 0 320 240" fill="none" xmlns="http://www.w3.org/2000/svg">
<path d="M274.52 106.725C274.785 100.85 275.86 92.305 274.025 86.735C270.35 88.215 266.23 88.185 262.205 88.625C257.275 89.165 252.05 91.07 247.075 91.46C240.835 91.95 234.61 93.9 228.4 94.77C215.97 96.515 203.765 98.63 191.31 100.445C183.79 101.54 176.39 103.74 168.93 105.53C159.905 107.695 150.325 107.455 141.635 110.85C126.06 106.045 108 103.97 91.5301 100.46C83.5101 98.75 75.9251 96.195 67.8951 94.67C60.2251 93.21 52.2001 93.105 44.7051 91.465C43.8851 99.24 46.9151 110.57 47.1551 118.395C47.6251 133.695 47.1951 148.58 47.5401 163.81C52.5601 165.1 58.1701 165.25 63.4751 166.755C73.4051 169.575 82.9801 173.68 92.9551 176.455C108.375 180.745 123.935 184.585 139.745 187.45C147.285 186.385 155.495 185.125 163.135 182.96C173.22 180.1 183.345 177.23 193.07 173.27C202.53 169.415 213.875 170.265 223.955 167.715C232.895 165.45 241.525 163.355 250.35 160.72C257.155 158.685 267.29 158.275 273.555 155.3C274.425 153.385 274.16 149.58 274.03 147.085C273.665 140.02 273.255 132.85 273.595 125.725C273.895 119.45 274.24 113.04 274.525 106.725H274.52ZM103.33 130.71C94.2051 131.9 80.5751 126.765 73.0701 122.67V114.16C82.4801 117.325 95.0951 118.385 105.225 118.415C105.225 121.88 103.335 127.24 103.335 130.71H103.33Z" fill="#A99CCC"/>
<path d="M230.05 92.885C232.83 91.605 235.355 88.855 237.755 86.87C239.115 85.745 238.825 84.78 240.705 83.87C241.465 83.5 243.45 83.925 244.74 83.125C244.55 84.285 245.265 85.21 245.265 86.1C263.7 75.24 261.84 105.63 260.055 117.17C259.52 120.62 260.57 125.835 264.025 128.95C262.52 132.46 265.125 135.3 266.28 138.3C265.465 138.445 264.855 139.02 264.14 139.2C264.615 139.74 264.73 140.62 265.44 141.235C264.365 143.39 262.835 145.505 261.74 147.56C260.255 146.335 258.67 144.41 258.82 142.135C257.455 142.1 256.915 141.41 255.935 141.185C255.675 141.08 255.475 141.52 255.2 141.545C255.295 138.59 253.825 135.94 254.565 133.175C252.14 131.76 248.62 125.5 248.66 122.735C246.08 121.42 247.515 117.34 248.675 115.205C247.02 113.43 247.425 110.82 246.925 108.595C249.15 106.73 246.925 106.405 247.185 104.79C247.345 103.815 248.125 101.845 248.235 100.665C248.515 97.675 248.06 96.31 247.255 93.405C245.38 92.82 247.75 93.29 247.095 91.51C241.175 91.185 236.66 91.875 230.045 92.895L230.05 92.885Z" fill="#F6AF37"/>
<path d="M45.1699 95.245C47.8449 118.145 47.0599 142.51 47.0599 165.695C65.4199 171.29 85.0949 173.69 103.8 178.58C116.105 181.795 129 184.98 140.68 188.39C140.68 165.985 141.155 143.625 141.155 121.25C141.155 118.86 140.425 115.47 141.155 113.21" stroke="#141822" stroke-miterlimit="10"/>
<path d="M263.77 88.125C267.945 87.265 271.68 86.665 274.02 86.735C273.385 88.775 274.02 90.875 274.02 93.155C274.02 112.465 275.44 136.095 275.44 155.5C267.66 159.56 251.265 162.86 242.34 165.225C223.64 170.175 204.155 171.83 185.6 177.64C172.69 181.685 155.445 182.205 144.935 186.975" stroke="#141822" stroke-miterlimit="10"/>
<path d="M143.52 111.325C176 106.155 208.745 97.19 241.42 92.99C242.13 92.9 242.965 92.76 243.9 92.58" stroke="#141822" stroke-miterlimit="10"/>
<path d="M251.325 82.61C257.18 82.745 263.035 83.885 268.82 84.03" stroke="#F3E7D3" stroke-miterlimit="10"/>
<path d="M140.21 110.85C132.44 109.26 124.97 107.525 117.515 105.65" stroke="#141822" stroke-miterlimit="10"/>
<path d="M248.965 84.845C251.675 83.925 255.35 84.785 257.95 85.79" stroke="#141822" stroke-miterlimit="10"/>
<path d="M239.415 86.105C237.905 87.485 236.43 89.305 235.63 91.305" stroke="#141822" stroke-miterlimit="10"/>
<path d="M251.8 87.68C253.41 89 255.445 90.01 256.055 91.935" stroke="#141822" stroke-miterlimit="10"/>
<path d="M256.055 88.155C257.57 89.42 259.445 90.56 260.785 91.94" stroke="#141822" stroke-miterlimit="10"/>
<path d="M253.455 127.05V135.09" stroke="#141822" stroke-miterlimit="10"/>
<path d="M259.68 87.68C260.5 88.31 261.49 88.8 262.28 89.47C263.07 90.14 263.21 90.865 263.78 91.62" stroke="#141822" stroke-miterlimit="10"/>
<path d="M254.13 92.095C254.38 93.295 254.6 94.365 254.76 95.56" stroke="#141822" stroke-miterlimit="10"/>
<path d="M257.16 135.44C257.32 136.635 258.055 137.89 258.42 139.065" stroke="#141822" stroke-miterlimit="10"/>
<path d="M259.365 129.605C259.365 131.04 258.69 134.01 259.84 135.12" stroke="#141822" stroke-miterlimit="10"/>
<path d="M261.255 125.35C262.04 126.385 261.965 127.81 262.36 128.975" stroke="#141822" stroke-miterlimit="10"/>
<path d="M241.16 87.76C242.02 86.425 243.59 85.48 244.785 84.45" stroke="#141822" stroke-miterlimit="10"/>
<path d="M262.125 131.575C262.795 132.04 263.575 132.545 264.175 133.15" stroke="#141822" stroke-miterlimit="10"/>
<path d="M261.885 132.76C261.835 133.66 261.695 134.53 261.725 135.44" stroke="#141822" stroke-miterlimit="10"/>
<path d="M260.94 137.645C260.835 139.01 261.265 140.545 261.885 141.745" stroke="#141822" stroke-miterlimit="10"/>
<path d="M256.655 93.985C256.7 95.195 256.81 96.39 256.815 97.61" stroke="#141822" stroke-miterlimit="10"/>
<path d="M258.7 93.985C259.105 95.31 259.515 96.705 259.645 98.085" stroke="#141822" stroke-miterlimit="10"/>
<path d="M257.6 99.66C257.6 100.97 257.84 102.51 257.44 103.76" stroke="#141822" stroke-miterlimit="10"/>
<path d="M258.89 141.74C259.33 143.21 259.765 144.77 260.94 145.84" stroke="#141822" stroke-miterlimit="10"/>
<path d="M256.215 138.59C255.92 139.675 255.605 140.79 255.425 141.9" stroke="#141822" stroke-miterlimit="10"/>
<path d="M253.66 100.135C254.095 101.33 254.8 102.495 254.92 103.76" stroke="#141822" stroke-miterlimit="10"/>
<path d="M241.95 89.65C241.555 90.375 241.155 91.18 240.69 91.855" stroke="#141822" stroke-miterlimit="10"/>
<path d="M247.94 87.13C248.595 88.185 249.87 89.03 249.99 90.28" stroke="#141822" stroke-miterlimit="10"/>
<path d="M249.09 91.935C249.585 92.58 249.96 93.35 250.195 94.14" stroke="#141822" stroke-miterlimit="10"/>
<path d="M251.765 94.93C251.805 96.37 251.685 97.865 251.135 99.185" stroke="#141822" stroke-miterlimit="10"/>
<path d="M263.78 137.485C263.78 139.595 263.98 141.685 264.095 143.79" stroke="#141822" stroke-miterlimit="10"/>
<path d="M247.195 92.41C247.85 93.36 248.24 94.56 248.14 95.72" stroke="#141822" stroke-miterlimit="10"/>
<path d="M265.67 137.17C265.89 138.085 266.26 139.715 267.245 140.005" stroke="#141822" stroke-miterlimit="10"/>
<path d="M250.35 102.18C250.82 103.605 250.51 105.405 250.51 106.91" stroke="#141822" stroke-miterlimit="10"/>
<path d="M253.975 97.295C254.305 97.845 254.765 98.345 255.08 98.87" stroke="#141822" stroke-miterlimit="10"/>
<path d="M248.93 97.455C249.12 99.27 248.77 101.555 248.3 103.285" stroke="#141822" stroke-miterlimit="10"/>
<path d="M253.095 86.215C252.13 85.965 251.185 86.425 250.225 86.37" stroke="#141822" stroke-miterlimit="10"/>
<path d="M252.87 103.6C252.895 104.805 253.63 105.835 253.5 107.065" stroke="#141822" stroke-miterlimit="10"/>
<path d="M247.53 89.93C246.255 89.77 244.905 89.91 243.685 90.295" stroke="#141822" stroke-miterlimit="10"/>
<path d="M255.975 131.34C255.49 132.515 255.505 133.675 255.5 134.965" stroke="#141822" stroke-miterlimit="10"/>
<path d="M247.355 109.43C246.57 110.975 246.87 113.01 247.515 114.475" stroke="#141822" stroke-miterlimit="10"/>
<path d="M260.595 100.92C261.205 102.165 261.22 103.5 261.225 104.86" stroke="#141822" stroke-miterlimit="10"/>
<path d="M239.39 89.975C238.79 90.805 237.985 91.88 237.525 92.635" stroke="#141822" stroke-miterlimit="10"/>
<path d="M243.865 83.21C242.49 83.495 241.405 84.65 240.035 84.845" stroke="#141822" stroke-miterlimit="10"/>
<path d="M259.015 104.075C258.955 105.515 259.495 107.115 259.015 108.49" stroke="#141822" stroke-miterlimit="10"/>
<path d="M234.965 88.585C232.805 89.425 232.845 90.205 232.01 92.09" stroke="#141822" stroke-miterlimit="10"/>
<path d="M260.91 107.07C260.995 108.18 261.065 109.26 261.07 110.38" stroke="#141822" stroke-miterlimit="10"/>
<path d="M245.655 86.435C245.27 87.05 244.605 87.585 243.915 87.825" stroke="#141822" stroke-miterlimit="10"/>
<path d="M256.18 107.225C256.155 108.385 256.36 109.535 256.34 110.69" stroke="#141822" stroke-miterlimit="10"/>
<path d="M258.86 110.22C259.41 111.74 261.525 116.425 259.965 117.63" stroke="#141822" stroke-miterlimit="10"/>
<path d="M247.945 82.62C247.4 83.65 246.7 84.675 245.805 85.44" stroke="#141822" stroke-miterlimit="10"/>
<path d="M253.345 109.745C253.6 111.08 254.26 112.455 255.235 113.37" stroke="#141822" stroke-miterlimit="10"/>
<path d="M248.3 106.91C249.065 107.83 249.485 109.885 250.665 110.22" stroke="#141822" stroke-miterlimit="10"/>
<path d="M256.055 124.405C256.715 125.515 257.105 126.94 257.945 127.87" stroke="#141822" stroke-miterlimit="10"/>
<path d="M258.735 125.35C259.115 126.425 259.555 127.78 260.47 128.5" stroke="#141822" stroke-miterlimit="10"/>
<path d="M254.795 126.77C255.055 127.85 255.265 128.995 255.425 130.08" stroke="#141822" stroke-miterlimit="10"/>
<path d="M102.54 117.31C101.015 117.42 98.9199 116.625 97.2499 116.445C95.0149 116.2 92.7649 115.95 90.5649 115.735C86.8249 115.37 83.0699 114.935 79.4649 113.915C77.6899 113.415 75.7699 113.07 74.0149 112.74C71.8099 113.37 72.5299 120.835 72.5949 122.67C75.2549 124.825 79.1849 125.035 82.5649 125.63C87.8549 126.565 92.9999 127.6 98.3199 128.185C100.05 128.375 101.84 128.56 103.485 128.975C105.65 126.735 105.06 123.56 105.06 120.62" stroke="#141822" stroke-miterlimit="10"/>
<path d="M249.6 113.21C249.605 114.995 249.88 116.41 250.26 118.04" stroke="#141822" stroke-miterlimit="10"/>
<path d="M252.67 114.525C253.26 116.13 253.53 118.205 254.865 119.355" stroke="#141822" stroke-miterlimit="10"/>
<path d="M256.845 116.285C257.475 117.495 257.85 119.1 257.945 120.455" stroke="#141822" stroke-miterlimit="10"/>
<path d="M260.36 118.7C260.61 119.81 260.56 121.165 261.24 121.995" stroke="#141822" stroke-miterlimit="10"/>
<path d="M251.355 118.26C251.35 119.91 251.39 122.23 250.915 123.75" stroke="#141822" stroke-miterlimit="10"/>
<path d="M253.77 121.775V124.85" stroke="#141822" stroke-miterlimit="10"/>
<path d="M255.965 121.115C256.695 122.425 258.025 123.05 259.04 123.97" stroke="#141822" stroke-miterlimit="10"/>
<path d="M257.945 113.43C258.03 114.4 258.21 115.29 258.165 116.285" stroke="#141822" stroke-miterlimit="10"/>
<path d="M43.2099 90.52C49.7849 90.25 56.3499 92.575 62.5999 93.935C73.4049 96.285 84.5299 98.33 95.6499 99.845C105.795 101.23 115.995 102.84 126.075 103.78C131.815 104.315 137.84 105.835 143.455 105.645C152.235 105.35 161.475 102.59 169.97 100.51C181.11 97.78 191.945 94.03 203.05 91.22C214.435 88.34 225.87 87.2 237.13 83.64C250.655 79.36 264.84 77.155 278.215 73.965C277.035 70.625 277.055 65.745 277.27 62.145C274.28 63.605 268.03 61.505 264.545 61.21C254.92 60.395 245.335 59.895 235.72 59.24C220.325 58.195 204.785 56.21 189.465 54.57C179.535 53.51 169.765 52.935 160.005 51.745C151.32 50.685 142.315 55.865 134.15 58.385C124.89 61.24 114.645 61.67 105.115 63.93C95.7349 66.155 87.0049 67.99 77.2649 68.725C65.0099 69.65 53.1299 71.825 41.7949 74.91C42.2249 79.8 44.0649 85.73 43.2149 90.515L43.2099 90.52Z" fill="#81D1DF"/>
<path d="M51.205 72.48C66.565 71.855 82.405 68.075 97.565 65.105C113.81 61.92 130.485 59.66 146.585 56.385C151.865 55.31 158.875 51.12 164.215 52.09C170.56 53.245 177.315 52.53 183.795 52.9C194.435 53.51 205.005 54.93 215.63 55.965C230.725 57.435 245.93 58.39 260.79 59.96C265.825 60.49 272.39 62.335 277.07 63.435C269.215 63.185 259.57 65.765 251.78 66.935C238.995 68.86 226.15 70.395 213.39 72.38C199.47 74.55 185.56 78.25 171.71 81.165C164.745 82.63 157.635 83.695 150.865 85.965C147.36 87.14 143.26 90.96 139.77 89.885C121.3 84.22 99.5799 85.875 80.3799 82.48C67.8349 80.265 52.96 79.24 41.95 76.295" stroke="#141822" stroke-miterlimit="10"/>
<path d="M42.125 79.61L42.72 90.47C55.955 93.67 69.43 95.365 82.645 98.175C96.685 101.16 111.885 103.075 125.925 104.75C131.515 105.42 136.66 105.995 142.115 106.81C140.745 104.165 141.37 97.72 141.915 94.51" stroke="#141822" stroke-miterlimit="10"/>
<path d="M145.835 105.66C154.135 101.905 164.035 100.78 172.73 97.415C181.455 94.04 191.45 93.37 200.585 91.275C217.915 87.295 235.52 82.87 252.87 79.45C260.525 77.94 268.875 73.795 276.69 73.875C277.215 71.35 276.9 68.26 277.195 65.795" stroke="#141822" stroke-miterlimit="10"/>
</svg>
